<?xml version="1.0" encoding="utf-8"?>
<!-- Generator: Adobe Illustrator 15.1.0, SVG Export Plug-In  -->
<!DOCTYPE svg PUBLIC "-//W3C//DTD SVG 1.1//EN" "http://www.w3.org/Graphics/SVG/1.1/DTD/svg11.dtd" [
	<!ENTITY ns_flows "http://ns.adobe.com/Flows/1.0/">
]>
<svg version="1.1"
	 xmlns="http://www.w3.org/2000/svg" xmlns:xlink="http://www.w3.org/1999/xlink" xmlns:a="http://ns.adobe.com/AdobeSVGViewerExtensions/3.0/"
	 x="0px" y="0px" width="221px" height="221px" viewBox="-10 -50 221 221" enable-background="new -10 -50 221 221"
	 xml:space="preserve">
<defs>
</defs>
<g>
	<g>
		<line fill="none" stroke="#D9D9D9" stroke-linecap="round" stroke-miterlimit="10" x1="0.5" y1="91" x2="2.5" y2="91"/>
		
			<line fill="none" stroke="#D9D9D9" stroke-linecap="round" stroke-miterlimit="10" stroke-dasharray="3,3" x1="5.5" y1="91" x2="197.5" y2="91"/>
		<line fill="none" stroke="#D9D9D9" stroke-linecap="round" stroke-miterlimit="10" x1="199.5" y1="91" x2="200.5" y2="91"/>
	</g>
</g>
<g>
	<g>
		<line fill="none" stroke="#D9D9D9" stroke-linecap="round" stroke-miterlimit="10" x1="0.5" y1="61" x2="2.5" y2="61"/>
		
			<line fill="none" stroke="#D9D9D9" stroke-linecap="round" stroke-miterlimit="10" stroke-dasharray="3,3" x1="5.5" y1="61" x2="197.5" y2="61"/>
		<line fill="none" stroke="#D9D9D9" stroke-linecap="round" stroke-miterlimit="10" x1="199.5" y1="61" x2="200.5" y2="61"/>
	</g>
</g>
<g>
	<g>
		<line fill="none" stroke="#D9D9D9" stroke-linecap="round" stroke-miterlimit="10" x1="0.5" y1="31" x2="2.5" y2="31"/>
		
			<line fill="none" stroke="#D9D9D9" stroke-linecap="round" stroke-miterlimit="10" stroke-dasharray="3,3" x1="5.5" y1="31" x2="197.5" y2="31"/>
		<line fill="none" stroke="#D9D9D9" stroke-linecap="round" stroke-miterlimit="10" x1="199.5" y1="31" x2="200.5" y2="31"/>
	</g>
</g>
<g>
	<g>
		<line fill="none" stroke="#D9D9D9" stroke-linecap="round" stroke-miterlimit="10" x1="50.875" y1="120.5" x2="50.875" y2="119"/>
		
			<line fill="none" stroke="#D9D9D9" stroke-linecap="round" stroke-miterlimit="10" stroke-dasharray="3,3" x1="50.875" y1="116" x2="50.875" y2="3.5"/>
		<line fill="none" stroke="#D9D9D9" stroke-linecap="round" stroke-miterlimit="10" x1="50.875" y1="2" x2="50.875" y2="0.5"/>
	</g>
</g>
<g>
	<g>
		
			<line fill="none" stroke="#D9D9D9" stroke-linecap="round" stroke-miterlimit="10" x1="100.875" y1="120.5" x2="100.875" y2="119"/>
		
			<line fill="none" stroke="#D9D9D9" stroke-linecap="round" stroke-miterlimit="10" stroke-dasharray="3,3" x1="100.875" y1="116" x2="100.875" y2="3.5"/>
		<line fill="none" stroke="#D9D9D9" stroke-linecap="round" stroke-miterlimit="10" x1="100.875" y1="2" x2="100.875" y2="0.5"/>
	</g>
</g>
<g>
	<g>
		
			<line fill="none" stroke="#D9D9D9" stroke-linecap="round" stroke-miterlimit="10" x1="150.875" y1="120.5" x2="150.875" y2="119"/>
		
			<line fill="none" stroke="#D9D9D9" stroke-linecap="round" stroke-miterlimit="10" stroke-dasharray="3,3" x1="150.875" y1="116" x2="150.875" y2="3.5"/>
		<line fill="none" stroke="#D9D9D9" stroke-linecap="round" stroke-miterlimit="10" x1="150.875" y1="2" x2="150.875" y2="0.5"/>
	</g>
</g>
<line fill="none" stroke="#1A1A1A" stroke-linecap="round" stroke-miterlimit="10" x1="78.5" y1="31" x2="200.5" y2="31"/>
<g>
	<path fill="#1A1A1A" d="M0.5,31l78-0.5c0.2763672-0.0019531,0.5014648,0.2207031,0.503418,0.496582
		c0.0014648,0.2763672-0.2207031,0.5014648-0.4970703,0.503418c-0.0009766,0-0.0053711,0-0.0063477,0L0.5,31z"/>
</g>
<line fill="none" stroke="#1A1A1A" stroke-linecap="round" stroke-miterlimit="10" x1="1" y1="121.5" x2="1" y2="1.5"/>
<g>
	<path fill="#CC3333" d="M13.625,30.9716797l27.0371094-0.1875l13.5185547-0.09375l6.7587891-0.046875l1.6899414-0.0117188
		c0.5625-0.0351563,1.2460938,0.0595703,1.793457,0.3349609c0.559082,0.2675781,1.0566406,0.6567383,1.4370117,1.1513672
		c0.4008789,0.4667969,0.6113281,1.1557617,0.7294922,1.6665039l7.0097656,26.1132813l0.8764648,3.2641602
		c0.1474609,0.5302734,0.2885742,1.1186523,0.4414063,1.6010742c0.1416016,0.362793,0.4379883,0.7866211,0.7958984,1.074707
		c0.3583984,0.3017578,0.7915039,0.5224609,1.2290039,0.6123047c0.3808594,0.0874023,0.9951172,0.0317383,1.5527344,0.0419922
		l3.3798828-0.0234375L95.3925781,66.375l27.0371094-0.1875l1.6899414-0.0117188
		c0.253418-0.0063477,0.6396484-0.0019531,1.0302734,0.078125c0.3569336,0.0668945,0.6904297,0.1835938,1.0078125,0.3242188
		c0.6342773,0.284668,1.199707,0.6835938,1.6791992,1.1972656c0.2407227,0.2548828,0.4584961,0.5419922,0.6376953,0.8676758
		c0.0917969,0.1494141,0.1743164,0.3535156,0.2358398,0.4936523l0.1582031,0.3916016l2.527832,6.2685547l5.0395508,12.4892578
		c0.2856445,0.6645508,1.0488281,1.2666016,1.7983398,1.4760742c0.1845703,0.0498047,0.3686523,0.0849609,0.53125,0.081543
		l0.8237305-0.0039063l1.6899414-0.0117188l6.7587891-0.046875l13.5185547-0.09375L188.59375,89.5
		c0.8286133-0.0058594,1.5048828,0.6611328,1.5102539,1.4897461c0.0058594,0.828125-0.6611328,1.5043945-1.4892578,1.5102539
		c-0.0043945,0-0.0166016,0-0.0209961,0l-27.0371094-0.1875l-13.5185547-0.09375l-6.7587891-0.046875l-1.6899414-0.0117188
		l-0.8662109-0.0083008c-0.4018555-0.0053711-0.7758789-0.081543-1.1318359-0.1845703
		c-1.3916016-0.4443359-2.565918-1.359375-3.2075195-2.7592773l-4.9052734-12.652832l-2.440918-6.3032227l-0.1523438-0.394043
		c-0.0522461-0.1171875-0.0693359-0.1787109-0.1245117-0.2700195c-0.0883789-0.1699219-0.2099609-0.3383789-0.3540039-0.4941406
		c-0.2827148-0.3149414-0.652832-0.5854492-1.043457-0.765625c-0.1953125-0.0898438-0.3964844-0.1645508-0.5932617-0.2021484
		c-0.1616211-0.0351563-0.3408203-0.0566406-0.6503906-0.0517578L122.4296875,68.0625L95.3925781,67.875l-13.5180664-0.09375
		l-3.3798828-0.0234375c-0.5649414-0.0273438-1.090332,0.0522461-1.8164063-0.09375
		c-0.6645508-0.1494141-1.2587891-0.4707031-1.7558594-0.8984375c-0.5014648-0.4384766-0.8935547-0.9511719-1.1459961-1.6455078
		c-0.1772461-0.5942383-0.2875977-1.1054688-0.4345703-1.6621094l-0.8310547-3.2758789l-6.6469727-26.2080078
		c-0.1347656-0.5810547-0.2553711-1.0014648-0.5810547-1.4145508c-0.300293-0.4038086-0.7099609-0.7338867-1.1630859-0.9584961
		c-0.4672852-0.2304688-0.9267578-0.3095703-1.4902344-0.2895508l-1.6899414-0.0117188l-6.7587891-0.046875l-13.5185547-0.09375
		L13.625,30.9716797z"/>
</g>
</svg>
