<?xml version="1.0" encoding="utf-8"?>
<!-- Generator: Adobe Illustrator 15.1.0, SVG Export Plug-In  -->
<!DOCTYPE svg PUBLIC "-//W3C//DTD SVG 1.1//EN" "http://www.w3.org/Graphics/SVG/1.1/DTD/svg11.dtd" [
	<!ENTITY ns_flows "http://ns.adobe.com/Flows/1.0/">
]>
<svg version="1.1"
	 xmlns="http://www.w3.org/2000/svg" xmlns:xlink="http://www.w3.org/1999/xlink" xmlns:a="http://ns.adobe.com/AdobeSVGViewerExtensions/3.0/"
	 x="0px" y="0px" width="305px" height="105px" viewBox="-78 -10.336 305 105" enable-background="new -78 -10.336 305 105"
	 xml:space="preserve">
<defs>
</defs>
<g>
	<path fill="#4D4D4D" d="M138.075,0.411c-0.042-0.548-0.108-0.548-0.15,0l-1.6,18.006c-0.042,0.548-0.325,1.447-0.325,1.997v1
		c0,0.55,0,1.45,0,2v6.504c0,0.55,0.248,1,0.246,1s0.07,0.112,0.009,0.25s-0.325,0.374-0.325,0.373s-0.388,0.123-0.938,0.123H128.5
		c-0.55,0-1.5-0.7-1.5-1.25v-2c0-0.55,0.05-0.75-0.5-0.75h-106c-0.55,0-1.5,0.2-1.5,0.75v2c0,0.55,0.05,1.25-0.5,1.25h-6.492
		c-0.55,0-1-0.124-1-0.123s-0.112-0.111-0.25-0.172c-0.138-0.063-0.502-0.42-0.504-0.42S10,30.468,10,29.918v-6.504
		c0-0.55,0-1.45,0-2v-1c0-0.55,0.217-1.449,0.175-1.997L8.95,0.411c-0.042-0.548-0.046-0.548-0.088,0L7.294,18.417
		C7.252,18.965,7,19.864,7,20.414v1c0,0.55,0,1.45,0,2v7c0,0.55,0,1.338,0,1.75s0.401,1.213,0.586,1.625s1.752,0.875,2.164,0.875
		s1.2,0,1.75,0h7c0.55,0,0.5,0.2,0.5,0.75v24c0,0.55,0.95,1.25,1.5,1.25h106c0.55,0,0.5-0.7,0.5-1.25v-24c0-0.55,0.95-0.75,1.5-0.75
		h7c0.55,0,1.338,0,1.75,0s0.838-0.276,1.25-0.461s0.5-1.627,0.5-2.039s0-1.2,0-1.75v-7c0-0.55,0-1.45,0-2v-1
		c0-0.55,0.217-1.449,0.175-1.997L138.075,0.411z"/>
</g>
<g>
	<g>
		<g>
			<path fill="#CCCCCC" d="M10,30.164c0,0.55,0.727,1.5,1.004,1.5s0.502,0,0.5,0s0.446,0,0.996,0h6c0.55,0,0.5-0.95,0.5-1.5v-2
				c0-0.55,0.95-0.5,1.5-0.5h106c0.55,0,0.5-0.05,0.5,0.5v2c0,0.55,0.95,1.5,1.5,1.5h7c0.55,0,0.5-0.611,0.5-0.748s0-0.137,0,0
				s0-0.202,0-0.752v-7.5c0-0.55,0-1.45,0-2v-0.5c0-0.55,0.05-0.5-0.5-0.5h-2c-0.55,0-1.5-0.05-1.5,0.5v1c0,0.55,0.05,1.5-0.5,1.5
				H18.496c-0.55,0-1.45,0-2,0H15.5c-0.55,0-1.5-0.95-1.5-1.5v-1c0-0.55,0.05-0.5-0.5-0.5h-2c-0.55,0-1.5-0.05-1.5,0.5v0.5
				c0,0.55,0,1.45,0,2V30.164z"/>
			<path fill="none" stroke="#1A1A1A" stroke-miterlimit="10" d="M10.5,30.164c0,0.55,0.227,1,0.504,1s0.502,0,0.5,0
				s0.446,0,0.996,0h6c0.55,0,1-0.45,1-1v-2c0-0.55,0.45-1,1-1h106c0.55,0,1,0.45,1,1v2c0,0.55,0.45,1,1,1h7c0.55,0,1-0.111,1-0.248
				s0-0.137,0,0s0-0.202,0-0.752v-7.5c0-0.55,0-1.45,0-2v-0.5c0-0.55-0.45-1-1-1h-2c-0.55,0-1,0.45-1,1v1c0,0.55-0.45,1-1,1H18.496
				c-0.55,0-1.45,0-2,0H15.5c-0.55,0-1-0.45-1-1v-1c0-0.55-0.45-1-1-1h-2c-0.55,0-1,0.45-1,1v0.5c0,0.55,0,1.45,0,2V30.164z"/>
		</g>
		<g>
			<path fill="#CCCCCC" d="M0,55.664c0,0.55,0,1.45,0,2v6.5c0,0.55,0.95,1.5,1.5,1.5h14.996c0.55,0,1.45,0,2,0H145.5
				c0.55,0,0.5-0.95,0.5-1.5v-9c0-0.55,0.95-0.5,1.5-0.5h1c0.55,0,0.5-0.95,0.5-1.5v-2c0-0.55,0.05-0.5-0.5-0.5h-20
				c-0.55,0-1.5-0.05-1.5,0.5v8c0,0.55,0.05,1.5-0.5,1.5h-106c-0.55,0-1.5-0.95-1.5-1.5v-24c0-0.55,0.05-0.5-0.5-0.5h-6
				c-0.55,0-1.338,0-1.75,0s-1.157-0.441-1.655-0.675l-1.203-0.933C7.539,32.635,7,31.826,7,31.414s0-1.2,0-1.75v-7
				c0-0.55,0-1.45,0-2v-0.5c0-0.55,0.05-0.5-0.5-0.5h-2c-0.55,0-1.5-0.05-1.5,0.5v1c0,0.55,0.05,1.5-0.5,1.5h-1
				c-0.55,0-1.5-0.05-1.5,0.5v5.5c0,0.55,0,1.45,0,2V55.664z"/>
			<path fill="none" stroke="#1A1A1A" stroke-miterlimit="10" d="M0.5,55.664c0,0.55,0,1.45,0,2v6.5c0,0.55,0.45,1,1,1h14.996
				c0.55,0,1.45,0,2,0H145.5c0.55,0,1-0.45,1-1v-9c0-0.55,0.45-1,1-1h1c0.55,0,1-0.45,1-1v-2c0-0.55-0.45-1-1-1h-20
				c-0.55,0-1,0.45-1,1v8c0,0.55-0.45,1-1,1h-106c-0.55,0-1-0.45-1-1v-24c0-0.55-0.45-1-1-1h-6c-0.55,0-1.338,0-1.75,0
				s-1.157-0.191-1.655-0.425l-0.953-0.808C7.789,32.51,7.5,31.826,7.5,31.414s0-1.2,0-1.75v-7c0-0.55,0-1.45,0-2v-0.5
				c0-0.55-0.45-1-1-1h-2c-0.55,0-1,0.45-1,1v1c0,0.55-0.45,1-1,1h-1c-0.55,0-1,0.45-1,1v5.5c0,0.55,0,1.45,0,2V55.664z"/>
		</g>
		<g>
			<path fill="#CCCCCC" d="M147.5,33.664c-0.55,0-1.5-0.95-1.5-1.5v-9c0-0.55,0.05-0.5-0.5-0.5h-1c-0.55,0-1.5-0.95-1.5-1.5v-1
				c0-0.55,0.05-0.5-0.5-0.5h-2c-0.55,0-1.5-0.05-1.5,0.5v0.5c0,0.55,0,1.45,0,2v7c0,0.55,0,1.338,0,1.75s0.212,1.4,0.165,1.89
				s-0.503,1.36-0.915,1.36s-1.2,0-1.75,0h-8c-0.55,0-1.5-0.05-1.5,0.5v1c0,0.55,0.95,1.5,1.5,1.5h20c0.55,0,0.5-0.95,0.5-1.5v-2
				c0-0.55,0.05-0.5-0.5-0.5H147.5z"/>
			<path fill="none" stroke="#1A1A1A" stroke-miterlimit="10" d="M147.5,33.164c-0.55,0-1-0.45-1-1v-9c0-0.55-0.45-1-1-1h-1
				c-0.55,0-1-0.45-1-1v-1c0-0.55-0.45-1-1-1h-2c-0.55,0-1,0.45-1,1v0.5c0,0.55,0,1.45,0,2v7c0,0.55,0,1.338,0,1.75
				s-0.038,1.15-0.085,1.64s-0.753,1.11-1.165,1.11s-1.2,0-1.75,0h-8c-0.55,0-1,0.45-1,1v1c0,0.55,0.45,1,1,1h20c0.55,0,1-0.45,1-1
				v-2c0-0.55-0.45-1-1-1H147.5z"/>
		</g>
	</g>
</g>
<polygon fill="#CCCCCC" stroke="#1A1A1A" stroke-linejoin="round" stroke-miterlimit="10" points="72.5,38.164 72.5,28.164 
	70.6,28.164 70.1,31.922 69.6,28.164 67.6,28.164 67.1,31.922 66.6,28.164 63.5,28.164 63.5,59.164 66.6,59.164 67.1,55.406 
	67.6,59.164 69.6,59.164 70.1,55.406 70.6,59.164 72.5,59.164 72.5,49.164 176.5,49.164 176.5,38.164 "/>
</svg>
