solid AI_F100128_Default_sldprt
   facet normal 0.000000e+000 0.000000e+000 -1.000000e+000
      outer loop
         vertex -6.869969e-001 1.028856e+000 0.000000e+000
         vertex -6.722634e-001 1.060452e+000 0.000000e+000
         vertex -6.522673e-001 1.089009e+000 0.000000e+000
      endloop
   endfacet
   facet normal 0.000000e+000 0.000000e+000 -1.000000e+000
      outer loop
         vertex -3.111199e-001 8.920479e-001 0.000000e+000
         vertex -3.258533e-001 8.604519e-001 0.000000e+000
         vertex -3.458495e-001 8.318944e-001 0.000000e+000
      endloop
   endfacet
   facet normal 0.000000e+000 0.000000e+000 -1.000000e+000
      outer loop
         vertex -5.674624e-001 1.148391e+000 0.000000e+000
         vertex -5.337880e-001 1.157413e+000 0.000000e+000
         vertex -3.458495e-001 8.318944e-001 0.000000e+000
      endloop
   endfacet
   facet normal 0.000000e+000 0.000000e+000 -1.000000e+000
      outer loop
         vertex -6.522673e-001 8.318944e-001 0.000000e+000
         vertex -6.722634e-001 8.604519e-001 0.000000e+000
         vertex -6.869969e-001 8.920479e-001 0.000000e+000
      endloop
   endfacet
   facet normal 0.000000e+000 0.000000e+000 -1.000000e+000
      outer loop
         vertex -3.458495e-001 8.318944e-001 0.000000e+000
         vertex -3.705008e-001 8.072430e-001 0.000000e+000
         vertex -3.990584e-001 7.872469e-001 0.000000e+000
      endloop
   endfacet
   facet normal 0.000000e+000 0.000000e+000 -1.000000e+000
      outer loop
         vertex -5.990584e-001 1.133657e+000 0.000000e+000
         vertex -5.674624e-001 1.148391e+000 0.000000e+000
         vertex -6.276159e-001 1.113661e+000 0.000000e+000
      endloop
   endfacet
   facet normal 0.000000e+000 0.000000e+000 -1.000000e+000
      outer loop
         vertex -6.276159e-001 1.113661e+000 0.000000e+000
         vertex -5.674624e-001 1.148391e+000 0.000000e+000
         vertex -3.458495e-001 8.318944e-001 0.000000e+000
      endloop
   endfacet
   facet normal 0.000000e+000 0.000000e+000 -1.000000e+000
      outer loop
         vertex -6.276159e-001 1.113661e+000 0.000000e+000
         vertex -3.458495e-001 8.318944e-001 0.000000e+000
         vertex -6.522673e-001 1.089009e+000 0.000000e+000
      endloop
   endfacet
   facet normal 0.000000e+000 0.000000e+000 -1.000000e+000
      outer loop
         vertex -6.522673e-001 1.089009e+000 0.000000e+000
         vertex -3.458495e-001 8.318944e-001 0.000000e+000
         vertex -3.990584e-001 7.872469e-001 0.000000e+000
      endloop
   endfacet
   facet normal 0.000000e+000 0.000000e+000 -1.000000e+000
      outer loop
         vertex -6.522673e-001 1.089009e+000 0.000000e+000
         vertex -3.990584e-001 7.872469e-001 0.000000e+000
         vertex -4.306543e-001 7.725134e-001 0.000000e+000
      endloop
   endfacet
   facet normal 0.000000e+000 0.000000e+000 -1.000000e+000
      outer loop
         vertex -5.337880e-001 1.157413e+000 0.000000e+000
         vertex -4.990584e-001 1.160452e+000 0.000000e+000
         vertex -3.458495e-001 8.318944e-001 0.000000e+000
      endloop
   endfacet
   facet normal 0.000000e+000 0.000000e+000 -1.000000e+000
      outer loop
         vertex -3.458495e-001 8.318944e-001 0.000000e+000
         vertex -4.990584e-001 1.160452e+000 0.000000e+000
         vertex -4.643288e-001 1.157413e+000 0.000000e+000
      endloop
   endfacet
   facet normal 0.000000e+000 0.000000e+000 -1.000000e+000
      outer loop
         vertex -3.458495e-001 8.318944e-001 0.000000e+000
         vertex -4.643288e-001 1.157413e+000 0.000000e+000
         vertex -4.306543e-001 1.148391e+000 0.000000e+000
      endloop
   endfacet
   facet normal 0.000000e+000 0.000000e+000 -1.000000e+000
      outer loop
         vertex -5.990584e-001 7.872469e-001 0.000000e+000
         vertex -6.276159e-001 8.072430e-001 0.000000e+000
         vertex -5.674624e-001 7.725134e-001 0.000000e+000
      endloop
   endfacet
   facet normal 0.000000e+000 0.000000e+000 -1.000000e+000
      outer loop
         vertex -5.674624e-001 7.725134e-001 0.000000e+000
         vertex -6.276159e-001 8.072430e-001 0.000000e+000
         vertex -6.522673e-001 1.089009e+000 0.000000e+000
      endloop
   endfacet
   facet normal 0.000000e+000 0.000000e+000 -1.000000e+000
      outer loop
         vertex -5.337880e-001 7.634904e-001 0.000000e+000
         vertex -5.674624e-001 7.725134e-001 0.000000e+000
         vertex -4.990584e-001 7.604519e-001 0.000000e+000
      endloop
   endfacet
   facet normal 0.000000e+000 0.000000e+000 -1.000000e+000
      outer loop
         vertex -4.990584e-001 7.604519e-001 0.000000e+000
         vertex -5.674624e-001 7.725134e-001 0.000000e+000
         vertex -6.522673e-001 1.089009e+000 0.000000e+000
      endloop
   endfacet
   facet normal 0.000000e+000 0.000000e+000 -1.000000e+000
      outer loop
         vertex -4.990584e-001 7.604519e-001 0.000000e+000
         vertex -6.522673e-001 1.089009e+000 0.000000e+000
         vertex -4.643288e-001 7.634904e-001 0.000000e+000
      endloop
   endfacet
   facet normal 0.000000e+000 0.000000e+000 -1.000000e+000
      outer loop
         vertex -4.643288e-001 7.634904e-001 0.000000e+000
         vertex -6.522673e-001 1.089009e+000 0.000000e+000
         vertex -4.306543e-001 7.725134e-001 0.000000e+000
      endloop
   endfacet
   facet normal 0.000000e+000 0.000000e+000 -1.000000e+000
      outer loop
         vertex -6.990584e-001 9.604519e-001 0.000000e+000
         vertex -6.960199e-001 9.951816e-001 0.000000e+000
         vertex -6.960199e-001 9.257224e-001 0.000000e+000
      endloop
   endfacet
   facet normal 0.000000e+000 0.000000e+000 -1.000000e+000
      outer loop
         vertex -6.960199e-001 9.257224e-001 0.000000e+000
         vertex -6.960199e-001 9.951816e-001 0.000000e+000
         vertex -6.869969e-001 1.028856e+000 0.000000e+000
      endloop
   endfacet
   facet normal 0.000000e+000 0.000000e+000 -1.000000e+000
      outer loop
         vertex -6.960199e-001 9.257224e-001 0.000000e+000
         vertex -6.869969e-001 1.028856e+000 0.000000e+000
         vertex -6.869969e-001 8.920479e-001 0.000000e+000
      endloop
   endfacet
   facet normal 0.000000e+000 0.000000e+000 -1.000000e+000
      outer loop
         vertex -6.869969e-001 8.920479e-001 0.000000e+000
         vertex -6.869969e-001 1.028856e+000 0.000000e+000
         vertex -6.522673e-001 1.089009e+000 0.000000e+000
      endloop
   endfacet
   facet normal 0.000000e+000 0.000000e+000 -1.000000e+000
      outer loop
         vertex -6.869969e-001 8.920479e-001 0.000000e+000
         vertex -6.522673e-001 1.089009e+000 0.000000e+000
         vertex -6.522673e-001 8.318944e-001 0.000000e+000
      endloop
   endfacet
   facet normal 0.000000e+000 0.000000e+000 -1.000000e+000
      outer loop
         vertex -6.522673e-001 8.318944e-001 0.000000e+000
         vertex -6.522673e-001 1.089009e+000 0.000000e+000
         vertex -6.276159e-001 8.072430e-001 0.000000e+000
      endloop
   endfacet
   facet normal 0.000000e+000 0.000000e+000 -1.000000e+000
      outer loop
         vertex -4.306543e-001 1.148391e+000 0.000000e+000
         vertex -3.990584e-001 1.133657e+000 0.000000e+000
         vertex -3.458495e-001 8.318944e-001 0.000000e+000
      endloop
   endfacet
   facet normal 0.000000e+000 0.000000e+000 -1.000000e+000
      outer loop
         vertex -3.458495e-001 8.318944e-001 0.000000e+000
         vertex -3.990584e-001 1.133657e+000 0.000000e+000
         vertex -3.705008e-001 1.113661e+000 0.000000e+000
      endloop
   endfacet
   facet normal 0.000000e+000 0.000000e+000 -1.000000e+000
      outer loop
         vertex -3.458495e-001 8.318944e-001 0.000000e+000
         vertex -3.705008e-001 1.113661e+000 0.000000e+000
         vertex -3.458495e-001 1.089009e+000 0.000000e+000
      endloop
   endfacet
   facet normal 0.000000e+000 0.000000e+000 -1.000000e+000
      outer loop
         vertex -3.020968e-001 9.951816e-001 0.000000e+000
         vertex -2.990584e-001 9.604519e-001 0.000000e+000
         vertex -3.020968e-001 9.257224e-001 0.000000e+000
      endloop
   endfacet
   facet normal 0.000000e+000 0.000000e+000 -1.000000e+000
      outer loop
         vertex -3.020968e-001 9.257224e-001 0.000000e+000
         vertex -3.111199e-001 8.920479e-001 0.000000e+000
         vertex -3.020968e-001 9.951816e-001 0.000000e+000
      endloop
   endfacet
   facet normal 0.000000e+000 0.000000e+000 -1.000000e+000
      outer loop
         vertex -3.020968e-001 9.951816e-001 0.000000e+000
         vertex -3.111199e-001 8.920479e-001 0.000000e+000
         vertex -3.458495e-001 8.318944e-001 0.000000e+000
      endloop
   endfacet
   facet normal 0.000000e+000 0.000000e+000 -1.000000e+000
      outer loop
         vertex -3.020968e-001 9.951816e-001 0.000000e+000
         vertex -3.458495e-001 8.318944e-001 0.000000e+000
         vertex -3.111199e-001 1.028856e+000 0.000000e+000
      endloop
   endfacet
   facet normal 0.000000e+000 0.000000e+000 -1.000000e+000
      outer loop
         vertex -3.111199e-001 1.028856e+000 0.000000e+000
         vertex -3.458495e-001 8.318944e-001 0.000000e+000
         vertex -3.458495e-001 1.089009e+000 0.000000e+000
      endloop
   endfacet
   facet normal 0.000000e+000 0.000000e+000 -1.000000e+000
      outer loop
         vertex -3.111199e-001 1.028856e+000 0.000000e+000
         vertex -3.458495e-001 1.089009e+000 0.000000e+000
         vertex -3.258533e-001 1.060452e+000 0.000000e+000
      endloop
   endfacet
   facet normal 0.000000e+000 0.000000e+000 1.000000e+000
      outer loop
         vertex -3.990584e-001 1.133657e+000 2.650000e+000
         vertex -4.306543e-001 1.148391e+000 2.650000e+000
         vertex -4.643288e-001 1.157413e+000 2.650000e+000
      endloop
   endfacet
   facet normal 0.000000e+000 0.000000e+000 1.000000e+000
      outer loop
         vertex -4.643288e-001 1.157413e+000 2.650000e+000
         vertex -4.990584e-001 1.160452e+000 2.650000e+000
         vertex -5.337880e-001 1.157413e+000 2.650000e+000
      endloop
   endfacet
   facet normal 0.000000e+000 0.000000e+000 1.000000e+000
      outer loop
         vertex -2.990584e-001 9.604519e-001 2.650000e+000
         vertex -3.020968e-001 9.951816e-001 2.650000e+000
         vertex -3.111199e-001 1.028856e+000 2.650000e+000
      endloop
   endfacet
   facet normal 0.000000e+000 0.000000e+000 1.000000e+000
      outer loop
         vertex -6.722634e-001 8.604519e-001 2.650000e+000
         vertex -6.522673e-001 8.318944e-001 2.650000e+000
         vertex -6.869969e-001 8.920479e-001 2.650000e+000
      endloop
   endfacet
   facet normal 0.000000e+000 0.000000e+000 1.000000e+000
      outer loop
         vertex -6.869969e-001 8.920479e-001 2.650000e+000
         vertex -6.522673e-001 8.318944e-001 2.650000e+000
         vertex -5.674624e-001 1.148391e+000 2.650000e+000
      endloop
   endfacet
   facet normal 0.000000e+000 0.000000e+000 1.000000e+000
      outer loop
         vertex -6.869969e-001 8.920479e-001 2.650000e+000
         vertex -5.674624e-001 1.148391e+000 2.650000e+000
         vertex -5.990584e-001 1.133657e+000 2.650000e+000
      endloop
   endfacet
   facet normal 0.000000e+000 0.000000e+000 1.000000e+000
      outer loop
         vertex -3.111199e-001 8.920479e-001 2.650000e+000
         vertex -3.020968e-001 9.257224e-001 2.650000e+000
         vertex -4.643288e-001 1.157413e+000 2.650000e+000
      endloop
   endfacet
   facet normal 0.000000e+000 0.000000e+000 1.000000e+000
      outer loop
         vertex -5.990584e-001 1.133657e+000 2.650000e+000
         vertex -6.276159e-001 1.113661e+000 2.650000e+000
         vertex -6.869969e-001 8.920479e-001 2.650000e+000
      endloop
   endfacet
   facet normal 0.000000e+000 0.000000e+000 1.000000e+000
      outer loop
         vertex -6.869969e-001 8.920479e-001 2.650000e+000
         vertex -6.276159e-001 1.113661e+000 2.650000e+000
         vertex -6.522673e-001 1.089009e+000 2.650000e+000
      endloop
   endfacet
   facet normal 0.000000e+000 0.000000e+000 1.000000e+000
      outer loop
         vertex -6.869969e-001 8.920479e-001 2.650000e+000
         vertex -6.522673e-001 1.089009e+000 2.650000e+000
         vertex -6.722634e-001 1.060452e+000 2.650000e+000
      endloop
   endfacet
   facet normal 0.000000e+000 0.000000e+000 1.000000e+000
      outer loop
         vertex -4.643288e-001 1.157413e+000 2.650000e+000
         vertex -5.337880e-001 1.157413e+000 2.650000e+000
         vertex -4.306543e-001 7.725134e-001 2.650000e+000
      endloop
   endfacet
   facet normal 0.000000e+000 0.000000e+000 1.000000e+000
      outer loop
         vertex -4.306543e-001 7.725134e-001 2.650000e+000
         vertex -5.337880e-001 1.157413e+000 2.650000e+000
         vertex -5.674624e-001 1.148391e+000 2.650000e+000
      endloop
   endfacet
   facet normal 0.000000e+000 0.000000e+000 1.000000e+000
      outer loop
         vertex -4.306543e-001 7.725134e-001 2.650000e+000
         vertex -5.674624e-001 1.148391e+000 2.650000e+000
         vertex -4.643288e-001 7.634904e-001 2.650000e+000
      endloop
   endfacet
   facet normal 0.000000e+000 0.000000e+000 1.000000e+000
      outer loop
         vertex -4.643288e-001 7.634904e-001 2.650000e+000
         vertex -5.674624e-001 1.148391e+000 2.650000e+000
         vertex -5.337880e-001 7.634904e-001 2.650000e+000
      endloop
   endfacet
   facet normal 0.000000e+000 0.000000e+000 1.000000e+000
      outer loop
         vertex -4.643288e-001 7.634904e-001 2.650000e+000
         vertex -5.337880e-001 7.634904e-001 2.650000e+000
         vertex -4.990584e-001 7.604519e-001 2.650000e+000
      endloop
   endfacet
   facet normal 0.000000e+000 0.000000e+000 1.000000e+000
      outer loop
         vertex -3.258533e-001 8.604519e-001 2.650000e+000
         vertex -3.111199e-001 8.920479e-001 2.650000e+000
         vertex -3.458495e-001 8.318944e-001 2.650000e+000
      endloop
   endfacet
   facet normal 0.000000e+000 0.000000e+000 1.000000e+000
      outer loop
         vertex -3.458495e-001 8.318944e-001 2.650000e+000
         vertex -3.111199e-001 8.920479e-001 2.650000e+000
         vertex -4.643288e-001 1.157413e+000 2.650000e+000
      endloop
   endfacet
   facet normal 0.000000e+000 0.000000e+000 1.000000e+000
      outer loop
         vertex -3.458495e-001 8.318944e-001 2.650000e+000
         vertex -4.643288e-001 1.157413e+000 2.650000e+000
         vertex -3.705008e-001 8.072430e-001 2.650000e+000
      endloop
   endfacet
   facet normal 0.000000e+000 0.000000e+000 1.000000e+000
      outer loop
         vertex -3.705008e-001 8.072430e-001 2.650000e+000
         vertex -4.643288e-001 1.157413e+000 2.650000e+000
         vertex -4.306543e-001 7.725134e-001 2.650000e+000
      endloop
   endfacet
   facet normal 0.000000e+000 0.000000e+000 1.000000e+000
      outer loop
         vertex -3.705008e-001 8.072430e-001 2.650000e+000
         vertex -4.306543e-001 7.725134e-001 2.650000e+000
         vertex -3.990584e-001 7.872469e-001 2.650000e+000
      endloop
   endfacet
   facet normal 0.000000e+000 0.000000e+000 1.000000e+000
      outer loop
         vertex -3.111199e-001 1.028856e+000 2.650000e+000
         vertex -3.258533e-001 1.060452e+000 2.650000e+000
         vertex -3.458495e-001 1.089009e+000 2.650000e+000
      endloop
   endfacet
   facet normal 0.000000e+000 0.000000e+000 1.000000e+000
      outer loop
         vertex -5.674624e-001 7.725134e-001 2.650000e+000
         vertex -5.337880e-001 7.634904e-001 2.650000e+000
         vertex -5.990584e-001 7.872469e-001 2.650000e+000
      endloop
   endfacet
   facet normal 0.000000e+000 0.000000e+000 1.000000e+000
      outer loop
         vertex -5.990584e-001 7.872469e-001 2.650000e+000
         vertex -5.337880e-001 7.634904e-001 2.650000e+000
         vertex -5.674624e-001 1.148391e+000 2.650000e+000
      endloop
   endfacet
   facet normal 0.000000e+000 0.000000e+000 1.000000e+000
      outer loop
         vertex -5.990584e-001 7.872469e-001 2.650000e+000
         vertex -5.674624e-001 1.148391e+000 2.650000e+000
         vertex -6.276159e-001 8.072430e-001 2.650000e+000
      endloop
   endfacet
   facet normal 0.000000e+000 0.000000e+000 1.000000e+000
      outer loop
         vertex -6.276159e-001 8.072430e-001 2.650000e+000
         vertex -5.674624e-001 1.148391e+000 2.650000e+000
         vertex -6.522673e-001 8.318944e-001 2.650000e+000
      endloop
   endfacet
   facet normal 0.000000e+000 0.000000e+000 1.000000e+000
      outer loop
         vertex -3.020968e-001 9.257224e-001 2.650000e+000
         vertex -2.990584e-001 9.604519e-001 2.650000e+000
         vertex -4.643288e-001 1.157413e+000 2.650000e+000
      endloop
   endfacet
   facet normal 0.000000e+000 0.000000e+000 1.000000e+000
      outer loop
         vertex -4.643288e-001 1.157413e+000 2.650000e+000
         vertex -2.990584e-001 9.604519e-001 2.650000e+000
         vertex -3.111199e-001 1.028856e+000 2.650000e+000
      endloop
   endfacet
   facet normal 0.000000e+000 0.000000e+000 1.000000e+000
      outer loop
         vertex -4.643288e-001 1.157413e+000 2.650000e+000
         vertex -3.111199e-001 1.028856e+000 2.650000e+000
         vertex -3.990584e-001 1.133657e+000 2.650000e+000
      endloop
   endfacet
   facet normal 0.000000e+000 0.000000e+000 1.000000e+000
      outer loop
         vertex -3.990584e-001 1.133657e+000 2.650000e+000
         vertex -3.111199e-001 1.028856e+000 2.650000e+000
         vertex -3.458495e-001 1.089009e+000 2.650000e+000
      endloop
   endfacet
   facet normal 0.000000e+000 0.000000e+000 1.000000e+000
      outer loop
         vertex -3.990584e-001 1.133657e+000 2.650000e+000
         vertex -3.458495e-001 1.089009e+000 2.650000e+000
         vertex -3.705008e-001 1.113661e+000 2.650000e+000
      endloop
   endfacet
   facet normal 0.000000e+000 0.000000e+000 1.000000e+000
      outer loop
         vertex -6.990584e-001 9.604519e-001 2.650000e+000
         vertex -6.960199e-001 9.257224e-001 2.650000e+000
         vertex -6.960199e-001 9.951816e-001 2.650000e+000
      endloop
   endfacet
   facet normal 0.000000e+000 0.000000e+000 1.000000e+000
      outer loop
         vertex -6.960199e-001 9.951816e-001 2.650000e+000
         vertex -6.960199e-001 9.257224e-001 2.650000e+000
         vertex -6.869969e-001 8.920479e-001 2.650000e+000
      endloop
   endfacet
   facet normal 0.000000e+000 0.000000e+000 1.000000e+000
      outer loop
         vertex -6.960199e-001 9.951816e-001 2.650000e+000
         vertex -6.869969e-001 8.920479e-001 2.650000e+000
         vertex -6.869969e-001 1.028856e+000 2.650000e+000
      endloop
   endfacet
   facet normal 0.000000e+000 0.000000e+000 1.000000e+000
      outer loop
         vertex -6.869969e-001 1.028856e+000 2.650000e+000
         vertex -6.869969e-001 8.920479e-001 2.650000e+000
         vertex -6.722634e-001 1.060452e+000 2.650000e+000
      endloop
   endfacet
   facet normal 6.868910e-001 1.627484e-001 -7.083035e-001
      outer loop
         vertex -2.528564e-001 1.003864e+000 5.000000e-002
         vertex -3.020968e-001 9.951816e-001 -1.705303e-011
         vertex -2.641352e-001 1.045957e+000 5.000000e-002
      endloop
   endfacet
   facet normal 6.762393e-001 2.025012e-001 -7.083035e-001
      outer loop
         vertex -2.641352e-001 1.045957e+000 5.000000e-002
         vertex -3.020968e-001 9.951816e-001 -1.705303e-011
         vertex -3.111199e-001 1.028856e+000 -1.705303e-011
      endloop
   endfacet
   facet normal 6.481946e-001 2.795533e-001 -7.083035e-001
      outer loop
         vertex -2.641352e-001 1.045957e+000 5.000000e-002
         vertex -3.111199e-001 1.028856e+000 -1.705303e-011
         vertex -2.825520e-001 1.085452e+000 5.000000e-002
      endloop
   endfacet
   facet normal 6.308017e-001 3.168525e-001 -7.083035e-001
      outer loop
         vertex -2.825520e-001 1.085452e+000 5.000000e-002
         vertex -3.111199e-001 1.028856e+000 -1.705303e-011
         vertex -3.258533e-001 1.060452e+000 -1.705303e-011
      endloop
   endfacet
   facet normal 5.898032e-001 3.878640e-001 -7.083035e-001
      outer loop
         vertex -2.825520e-001 1.085452e+000 5.000000e-002
         vertex -3.258533e-001 1.060452e+000 -1.705303e-011
         vertex -3.075472e-001 1.121149e+000 5.000000e-002
      endloop
   endfacet
   facet normal 5.661975e-001 4.215763e-001 -7.083034e-001
      outer loop
         vertex -3.075472e-001 1.121149e+000 5.000000e-002
         vertex -3.258533e-001 1.060452e+000 -1.705303e-011
         vertex -3.458495e-001 1.089009e+000 -1.705303e-011
      endloop
   endfacet
   facet normal 5.134909e-001 4.843898e-001 -7.083035e-001
      outer loop
         vertex -3.075472e-001 1.121149e+000 5.000000e-002
         vertex -3.458495e-001 1.089009e+000 -1.705303e-011
         vertex -3.383615e-001 1.151963e+000 5.000000e-002
      endloop
   endfacet
   facet normal 4.843898e-001 5.134908e-001 -7.083034e-001
      outer loop
         vertex -3.383615e-001 1.151963e+000 5.000000e-002
         vertex -3.458495e-001 1.089009e+000 -1.705303e-011
         vertex -3.705008e-001 1.113661e+000 -1.705303e-011
      endloop
   endfacet
   facet normal 4.215764e-001 5.661975e-001 -7.083035e-001
      outer loop
         vertex -3.383615e-001 1.151963e+000 5.000000e-002
         vertex -3.705008e-001 1.113661e+000 -1.705303e-011
         vertex -3.740584e-001 1.176958e+000 5.000000e-002
      endloop
   endfacet
   facet normal 3.878640e-001 5.898032e-001 -7.083035e-001
      outer loop
         vertex -3.740584e-001 1.176958e+000 5.000000e-002
         vertex -3.705008e-001 1.113661e+000 -1.705303e-011
         vertex -3.990584e-001 1.133657e+000 -1.705303e-011
      endloop
   endfacet
   facet normal 3.168525e-001 6.308017e-001 -7.083034e-001
      outer loop
         vertex -3.740584e-001 1.176958e+000 5.000000e-002
         vertex -3.990584e-001 1.133657e+000 -1.705303e-011
         vertex -4.135533e-001 1.195375e+000 5.000000e-002
      endloop
   endfacet
   facet normal 2.795533e-001 6.481946e-001 -7.083035e-001
      outer loop
         vertex -4.135533e-001 1.195375e+000 5.000000e-002
         vertex -3.990584e-001 1.133657e+000 -1.705303e-011
         vertex -4.306543e-001 1.148391e+000 -1.705303e-011
      endloop
   endfacet
   facet normal 2.025012e-001 6.762393e-001 -7.083035e-001
      outer loop
         vertex -4.135533e-001 1.195375e+000 5.000000e-002
         vertex -4.306543e-001 1.148391e+000 -1.705303e-011
         vertex -4.556463e-001 1.206654e+000 5.000000e-002
      endloop
   endfacet
   facet normal 1.627484e-001 6.868910e-001 -7.083035e-001
      outer loop
         vertex -4.556463e-001 1.206654e+000 5.000000e-002
         vertex -4.306543e-001 1.148391e+000 -1.705303e-011
         vertex -4.643288e-001 1.157413e+000 -1.705303e-011
      endloop
   endfacet
   facet normal 8.199707e-002 7.011296e-001 -7.083035e-001
      outer loop
         vertex -4.556463e-001 1.206654e+000 5.000000e-002
         vertex -4.643288e-001 1.157413e+000 -1.705303e-011
         vertex -4.990584e-001 1.210452e+000 5.000000e-002
      endloop
   endfacet
   facet normal 4.099853e-002 7.047165e-001 -7.083034e-001
      outer loop
         vertex -4.990584e-001 1.210452e+000 5.000000e-002
         vertex -4.643288e-001 1.157413e+000 -1.705303e-011
         vertex -4.990584e-001 1.160452e+000 -1.705303e-011
      endloop
   endfacet
   facet normal -4.099853e-002 7.047165e-001 -7.083034e-001
      outer loop
         vertex -4.990584e-001 1.210452e+000 5.000000e-002
         vertex -4.990584e-001 1.160452e+000 -1.705303e-011
         vertex -5.424705e-001 1.206654e+000 5.000000e-002
      endloop
   endfacet
   facet normal -8.199707e-002 7.011296e-001 -7.083035e-001
      outer loop
         vertex -5.424705e-001 1.206654e+000 5.000000e-002
         vertex -4.990584e-001 1.160452e+000 -1.705303e-011
         vertex -5.337880e-001 1.157413e+000 -1.705303e-011
      endloop
   endfacet
   facet normal -1.627484e-001 6.868910e-001 -7.083035e-001
      outer loop
         vertex -5.424705e-001 1.206654e+000 5.000000e-002
         vertex -5.337880e-001 1.157413e+000 -1.705303e-011
         vertex -5.845634e-001 1.195375e+000 5.000000e-002
      endloop
   endfacet
   facet normal -2.025012e-001 6.762393e-001 -7.083035e-001
      outer loop
         vertex -5.845634e-001 1.195375e+000 5.000000e-002
         vertex -5.337880e-001 1.157413e+000 -1.705303e-011
         vertex -5.674624e-001 1.148391e+000 -1.705303e-011
      endloop
   endfacet
   facet normal -2.795533e-001 6.481946e-001 -7.083035e-001
      outer loop
         vertex -5.845634e-001 1.195375e+000 5.000000e-002
         vertex -5.674624e-001 1.148391e+000 -1.705303e-011
         vertex -6.240584e-001 1.176958e+000 5.000000e-002
      endloop
   endfacet
   facet normal -3.168525e-001 6.308017e-001 -7.083035e-001
      outer loop
         vertex -6.240584e-001 1.176958e+000 5.000000e-002
         vertex -5.674624e-001 1.148391e+000 -1.705303e-011
         vertex -5.990584e-001 1.133657e+000 -1.705303e-011
      endloop
   endfacet
   facet normal -3.878640e-001 5.898032e-001 -7.083035e-001
      outer loop
         vertex -6.240584e-001 1.176958e+000 5.000000e-002
         vertex -5.990584e-001 1.133657e+000 -1.705303e-011
         vertex -6.597553e-001 1.151963e+000 5.000000e-002
      endloop
   endfacet
   facet normal -4.215763e-001 5.661975e-001 -7.083034e-001
      outer loop
         vertex -6.597553e-001 1.151963e+000 5.000000e-002
         vertex -5.990584e-001 1.133657e+000 -1.705303e-011
         vertex -6.276159e-001 1.113661e+000 -1.705303e-011
      endloop
   endfacet
   facet normal -4.843898e-001 5.134909e-001 -7.083035e-001
      outer loop
         vertex -6.597553e-001 1.151963e+000 5.000000e-002
         vertex -6.276159e-001 1.113661e+000 -1.705303e-011
         vertex -6.905695e-001 1.121149e+000 5.000000e-002
      endloop
   endfacet
   facet normal -5.134908e-001 4.843898e-001 -7.083034e-001
      outer loop
         vertex -6.905695e-001 1.121149e+000 5.000000e-002
         vertex -6.276159e-001 1.113661e+000 -1.705303e-011
         vertex -6.522673e-001 1.089009e+000 -1.705303e-011
      endloop
   endfacet
   facet normal -5.661975e-001 4.215764e-001 -7.083035e-001
      outer loop
         vertex -6.905695e-001 1.121149e+000 5.000000e-002
         vertex -6.522673e-001 1.089009e+000 -1.705303e-011
         vertex -7.155647e-001 1.085452e+000 5.000000e-002
      endloop
   endfacet
   facet normal -5.898032e-001 3.878640e-001 -7.083035e-001
      outer loop
         vertex -7.155647e-001 1.085452e+000 5.000000e-002
         vertex -6.522673e-001 1.089009e+000 -1.705303e-011
         vertex -6.722634e-001 1.060452e+000 -1.705303e-011
      endloop
   endfacet
   facet normal -6.308017e-001 3.168525e-001 -7.083034e-001
      outer loop
         vertex -7.155647e-001 1.085452e+000 5.000000e-002
         vertex -6.722634e-001 1.060452e+000 -1.705303e-011
         vertex -7.339815e-001 1.045957e+000 5.000000e-002
      endloop
   endfacet
   facet normal -6.481946e-001 2.795533e-001 -7.083035e-001
      outer loop
         vertex -7.339815e-001 1.045957e+000 5.000000e-002
         vertex -6.722634e-001 1.060452e+000 -1.705303e-011
         vertex -6.869969e-001 1.028856e+000 -1.705303e-011
      endloop
   endfacet
   facet normal -6.762393e-001 2.025012e-001 -7.083035e-001
      outer loop
         vertex -7.339815e-001 1.045957e+000 5.000000e-002
         vertex -6.869969e-001 1.028856e+000 -1.705303e-011
         vertex -7.452603e-001 1.003864e+000 5.000000e-002
      endloop
   endfacet
   facet normal -6.868910e-001 1.627484e-001 -7.083035e-001
      outer loop
         vertex -7.452603e-001 1.003864e+000 5.000000e-002
         vertex -6.869969e-001 1.028856e+000 -1.705303e-011
         vertex -6.960199e-001 9.951816e-001 -1.705303e-011
      endloop
   endfacet
   facet normal -7.011296e-001 8.199707e-002 -7.083035e-001
      outer loop
         vertex -7.452603e-001 1.003864e+000 5.000000e-002
         vertex -6.960199e-001 9.951816e-001 -1.705303e-011
         vertex -7.490584e-001 9.604519e-001 5.000000e-002
      endloop
   endfacet
   facet normal -7.047165e-001 4.099853e-002 -7.083034e-001
      outer loop
         vertex -7.490584e-001 9.604519e-001 5.000000e-002
         vertex -6.960199e-001 9.951816e-001 -1.705303e-011
         vertex -6.990584e-001 9.604519e-001 -1.705303e-011
      endloop
   endfacet
   facet normal -7.047165e-001 -4.099853e-002 -7.083034e-001
      outer loop
         vertex -7.490584e-001 9.604519e-001 5.000000e-002
         vertex -6.990584e-001 9.604519e-001 -1.705303e-011
         vertex -7.452603e-001 9.170399e-001 5.000000e-002
      endloop
   endfacet
   facet normal -7.011296e-001 -8.199707e-002 -7.083035e-001
      outer loop
         vertex -7.452603e-001 9.170399e-001 5.000000e-002
         vertex -6.990584e-001 9.604519e-001 -1.705303e-011
         vertex -6.960199e-001 9.257224e-001 -1.705303e-011
      endloop
   endfacet
   facet normal -6.868910e-001 -1.627484e-001 -7.083035e-001
      outer loop
         vertex -7.452603e-001 9.170399e-001 5.000000e-002
         vertex -6.960199e-001 9.257224e-001 -1.705303e-011
         vertex -7.339815e-001 8.749469e-001 5.000000e-002
      endloop
   endfacet
   facet normal -6.762393e-001 -2.025012e-001 -7.083035e-001
      outer loop
         vertex -7.339815e-001 8.749469e-001 5.000000e-002
         vertex -6.960199e-001 9.257224e-001 -1.705303e-011
         vertex -6.869969e-001 8.920479e-001 -1.705303e-011
      endloop
   endfacet
   facet normal -6.481946e-001 -2.795533e-001 -7.083035e-001
      outer loop
         vertex -7.339815e-001 8.749469e-001 5.000000e-002
         vertex -6.869969e-001 8.920479e-001 -1.705303e-011
         vertex -7.155647e-001 8.354520e-001 5.000000e-002
      endloop
   endfacet
   facet normal -6.308017e-001 -3.168525e-001 -7.083035e-001
      outer loop
         vertex -7.155647e-001 8.354520e-001 5.000000e-002
         vertex -6.869969e-001 8.920479e-001 -1.705303e-011
         vertex -6.722634e-001 8.604519e-001 -1.705303e-011
      endloop
   endfacet
   facet normal -5.898032e-001 -3.878640e-001 -7.083035e-001
      outer loop
         vertex -7.155647e-001 8.354520e-001 5.000000e-002
         vertex -6.722634e-001 8.604519e-001 -1.705303e-011
         vertex -6.905695e-001 7.997550e-001 5.000000e-002
      endloop
   endfacet
   facet normal -5.661975e-001 -4.215763e-001 -7.083034e-001
      outer loop
         vertex -6.905695e-001 7.997550e-001 5.000000e-002
         vertex -6.722634e-001 8.604519e-001 -1.705303e-011
         vertex -6.522673e-001 8.318944e-001 -1.705303e-011
      endloop
   endfacet
   facet normal -5.134909e-001 -4.843898e-001 -7.083035e-001
      outer loop
         vertex -6.905695e-001 7.997550e-001 5.000000e-002
         vertex -6.522673e-001 8.318944e-001 -1.705303e-011
         vertex -6.597553e-001 7.689409e-001 5.000000e-002
      endloop
   endfacet
   facet normal -4.843898e-001 -5.134908e-001 -7.083034e-001
      outer loop
         vertex -6.597553e-001 7.689409e-001 5.000000e-002
         vertex -6.522673e-001 8.318944e-001 -1.705303e-011
         vertex -6.276159e-001 8.072430e-001 -1.705303e-011
      endloop
   endfacet
   facet normal -4.215764e-001 -5.661975e-001 -7.083035e-001
      outer loop
         vertex -6.597553e-001 7.689409e-001 5.000000e-002
         vertex -6.276159e-001 8.072430e-001 -1.705303e-011
         vertex -6.240584e-001 7.439456e-001 5.000000e-002
      endloop
   endfacet
   facet normal -3.878640e-001 -5.898032e-001 -7.083035e-001
      outer loop
         vertex -6.240584e-001 7.439456e-001 5.000000e-002
         vertex -6.276159e-001 8.072430e-001 -1.705303e-011
         vertex -5.990584e-001 7.872469e-001 -1.705303e-011
      endloop
   endfacet
   facet normal -3.168525e-001 -6.308017e-001 -7.083034e-001
      outer loop
         vertex -6.240584e-001 7.439456e-001 5.000000e-002
         vertex -5.990584e-001 7.872469e-001 -1.705303e-011
         vertex -5.845634e-001 7.255288e-001 5.000000e-002
      endloop
   endfacet
   facet normal -2.795533e-001 -6.481946e-001 -7.083035e-001
      outer loop
         vertex -5.845634e-001 7.255288e-001 5.000000e-002
         vertex -5.990584e-001 7.872469e-001 -1.705303e-011
         vertex -5.674624e-001 7.725134e-001 -1.705303e-011
      endloop
   endfacet
   facet normal -2.025012e-001 -6.762393e-001 -7.083035e-001
      outer loop
         vertex -5.845634e-001 7.255288e-001 5.000000e-002
         vertex -5.674624e-001 7.725134e-001 -1.705303e-011
         vertex -5.424705e-001 7.142500e-001 5.000000e-002
      endloop
   endfacet
   facet normal -1.627484e-001 -6.868910e-001 -7.083035e-001
      outer loop
         vertex -5.424705e-001 7.142500e-001 5.000000e-002
         vertex -5.674624e-001 7.725134e-001 -1.705303e-011
         vertex -5.337880e-001 7.634904e-001 -1.705303e-011
      endloop
   endfacet
   facet normal -8.199707e-002 -7.011296e-001 -7.083035e-001
      outer loop
         vertex -5.424705e-001 7.142500e-001 5.000000e-002
         vertex -5.337880e-001 7.634904e-001 -1.705303e-011
         vertex -4.990584e-001 7.104519e-001 5.000000e-002
      endloop
   endfacet
   facet normal -4.099853e-002 -7.047165e-001 -7.083034e-001
      outer loop
         vertex -4.990584e-001 7.104519e-001 5.000000e-002
         vertex -5.337880e-001 7.634904e-001 -1.705303e-011
         vertex -4.990584e-001 7.604519e-001 -1.705303e-011
      endloop
   endfacet
   facet normal 4.099853e-002 -7.047165e-001 -7.083034e-001
      outer loop
         vertex -4.990584e-001 7.104519e-001 5.000000e-002
         vertex -4.990584e-001 7.604519e-001 -1.705303e-011
         vertex -4.556463e-001 7.142500e-001 5.000000e-002
      endloop
   endfacet
   facet normal 8.199707e-002 -7.011296e-001 -7.083035e-001
      outer loop
         vertex -4.556463e-001 7.142500e-001 5.000000e-002
         vertex -4.990584e-001 7.604519e-001 -1.705303e-011
         vertex -4.643288e-001 7.634904e-001 -1.705303e-011
      endloop
   endfacet
   facet normal 1.627484e-001 -6.868910e-001 -7.083035e-001
      outer loop
         vertex -4.556463e-001 7.142500e-001 5.000000e-002
         vertex -4.643288e-001 7.634904e-001 -1.705303e-011
         vertex -4.135533e-001 7.255288e-001 5.000000e-002
      endloop
   endfacet
   facet normal 2.025012e-001 -6.762393e-001 -7.083035e-001
      outer loop
         vertex -4.135533e-001 7.255288e-001 5.000000e-002
         vertex -4.643288e-001 7.634904e-001 -1.705303e-011
         vertex -4.306543e-001 7.725134e-001 -1.705303e-011
      endloop
   endfacet
   facet normal 2.795533e-001 -6.481946e-001 -7.083035e-001
      outer loop
         vertex -4.135533e-001 7.255288e-001 5.000000e-002
         vertex -4.306543e-001 7.725134e-001 -1.705303e-011
         vertex -3.740584e-001 7.439456e-001 5.000000e-002
      endloop
   endfacet
   facet normal 3.168525e-001 -6.308017e-001 -7.083035e-001
      outer loop
         vertex -3.740584e-001 7.439456e-001 5.000000e-002
         vertex -4.306543e-001 7.725134e-001 -1.705303e-011
         vertex -3.990584e-001 7.872469e-001 -1.705303e-011
      endloop
   endfacet
   facet normal 3.878640e-001 -5.898032e-001 -7.083035e-001
      outer loop
         vertex -3.740584e-001 7.439456e-001 5.000000e-002
         vertex -3.990584e-001 7.872469e-001 -1.705303e-011
         vertex -3.383615e-001 7.689409e-001 5.000000e-002
      endloop
   endfacet
   facet normal 4.215763e-001 -5.661975e-001 -7.083034e-001
      outer loop
         vertex -3.383615e-001 7.689409e-001 5.000000e-002
         vertex -3.990584e-001 7.872469e-001 -1.705303e-011
         vertex -3.705008e-001 8.072430e-001 -1.705303e-011
      endloop
   endfacet
   facet normal 4.843898e-001 -5.134909e-001 -7.083035e-001
      outer loop
         vertex -3.383615e-001 7.689409e-001 5.000000e-002
         vertex -3.705008e-001 8.072430e-001 -1.705303e-011
         vertex -3.075472e-001 7.997550e-001 5.000000e-002
      endloop
   endfacet
   facet normal 5.134908e-001 -4.843898e-001 -7.083034e-001
      outer loop
         vertex -3.075472e-001 7.997550e-001 5.000000e-002
         vertex -3.705008e-001 8.072430e-001 -1.705303e-011
         vertex -3.458495e-001 8.318944e-001 -1.705303e-011
      endloop
   endfacet
   facet normal 5.661975e-001 -4.215764e-001 -7.083035e-001
      outer loop
         vertex -3.075472e-001 7.997550e-001 5.000000e-002
         vertex -3.458495e-001 8.318944e-001 -1.705303e-011
         vertex -2.825520e-001 8.354520e-001 5.000000e-002
      endloop
   endfacet
   facet normal 5.898032e-001 -3.878640e-001 -7.083035e-001
      outer loop
         vertex -2.825520e-001 8.354520e-001 5.000000e-002
         vertex -3.458495e-001 8.318944e-001 -1.705303e-011
         vertex -3.258533e-001 8.604519e-001 -1.705303e-011
      endloop
   endfacet
   facet normal 6.308017e-001 -3.168525e-001 -7.083034e-001
      outer loop
         vertex -2.825520e-001 8.354520e-001 5.000000e-002
         vertex -3.258533e-001 8.604519e-001 -1.705303e-011
         vertex -2.641352e-001 8.749469e-001 5.000000e-002
      endloop
   endfacet
   facet normal 6.481946e-001 -2.795533e-001 -7.083035e-001
      outer loop
         vertex -2.641352e-001 8.749469e-001 5.000000e-002
         vertex -3.258533e-001 8.604519e-001 -1.705303e-011
         vertex -3.111199e-001 8.920479e-001 -1.705303e-011
      endloop
   endfacet
   facet normal 6.762393e-001 -2.025012e-001 -7.083035e-001
      outer loop
         vertex -2.641352e-001 8.749469e-001 5.000000e-002
         vertex -3.111199e-001 8.920479e-001 -1.705303e-011
         vertex -2.528564e-001 9.170399e-001 5.000000e-002
      endloop
   endfacet
   facet normal 6.868910e-001 -1.627484e-001 -7.083035e-001
      outer loop
         vertex -2.528564e-001 9.170399e-001 5.000000e-002
         vertex -3.111199e-001 8.920479e-001 -1.705303e-011
         vertex -3.020968e-001 9.257224e-001 -1.705303e-011
      endloop
   endfacet
   facet normal 7.011296e-001 -8.199707e-002 -7.083035e-001
      outer loop
         vertex -2.528564e-001 9.170399e-001 5.000000e-002
         vertex -3.020968e-001 9.257224e-001 -1.705303e-011
         vertex -2.490584e-001 9.604519e-001 5.000000e-002
      endloop
   endfacet
   facet normal 7.047165e-001 -4.099853e-002 -7.083034e-001
      outer loop
         vertex -2.490584e-001 9.604519e-001 5.000000e-002
         vertex -3.020968e-001 9.257224e-001 -1.705303e-011
         vertex -2.990584e-001 9.604519e-001 -1.705303e-011
      endloop
   endfacet
   facet normal 7.047165e-001 4.099853e-002 -7.083034e-001
      outer loop
         vertex -2.490584e-001 9.604519e-001 5.000000e-002
         vertex -2.990584e-001 9.604519e-001 -1.705303e-011
         vertex -2.528564e-001 1.003864e+000 5.000000e-002
      endloop
   endfacet
   facet normal 7.011296e-001 8.199707e-002 -7.083035e-001
      outer loop
         vertex -2.528564e-001 1.003864e+000 5.000000e-002
         vertex -2.990584e-001 9.604519e-001 -1.705303e-011
         vertex -3.020968e-001 9.951816e-001 -1.705303e-011
      endloop
   endfacet
   facet normal -6.868910e-001 1.627484e-001 7.083035e-001
      outer loop
         vertex -7.452603e-001 1.003864e+000 2.600000e+000
         vertex -6.960199e-001 9.951816e-001 2.650000e+000
         vertex -7.339815e-001 1.045957e+000 2.600000e+000
      endloop
   endfacet
   facet normal -6.762393e-001 2.025012e-001 7.083035e-001
      outer loop
         vertex -7.339815e-001 1.045957e+000 2.600000e+000
         vertex -6.960199e-001 9.951816e-001 2.650000e+000
         vertex -6.869969e-001 1.028856e+000 2.650000e+000
      endloop
   endfacet
   facet normal -6.481946e-001 2.795533e-001 7.083035e-001
      outer loop
         vertex -7.339815e-001 1.045957e+000 2.600000e+000
         vertex -6.869969e-001 1.028856e+000 2.650000e+000
         vertex -7.155647e-001 1.085452e+000 2.600000e+000
      endloop
   endfacet
   facet normal -6.308017e-001 3.168525e-001 7.083035e-001
      outer loop
         vertex -7.155647e-001 1.085452e+000 2.600000e+000
         vertex -6.869969e-001 1.028856e+000 2.650000e+000
         vertex -6.722634e-001 1.060452e+000 2.650000e+000
      endloop
   endfacet
   facet normal -5.898032e-001 3.878640e-001 7.083035e-001
      outer loop
         vertex -7.155647e-001 1.085452e+000 2.600000e+000
         vertex -6.722634e-001 1.060452e+000 2.650000e+000
         vertex -6.905695e-001 1.121149e+000 2.600000e+000
      endloop
   endfacet
   facet normal -5.661975e-001 4.215763e-001 7.083034e-001
      outer loop
         vertex -6.905695e-001 1.121149e+000 2.600000e+000
         vertex -6.722634e-001 1.060452e+000 2.650000e+000
         vertex -6.522673e-001 1.089009e+000 2.650000e+000
      endloop
   endfacet
   facet normal -5.134909e-001 4.843898e-001 7.083035e-001
      outer loop
         vertex -6.905695e-001 1.121149e+000 2.600000e+000
         vertex -6.522673e-001 1.089009e+000 2.650000e+000
         vertex -6.597553e-001 1.151963e+000 2.600000e+000
      endloop
   endfacet
   facet normal -4.843898e-001 5.134908e-001 7.083034e-001
      outer loop
         vertex -6.597553e-001 1.151963e+000 2.600000e+000
         vertex -6.522673e-001 1.089009e+000 2.650000e+000
         vertex -6.276159e-001 1.113661e+000 2.650000e+000
      endloop
   endfacet
   facet normal -4.215764e-001 5.661975e-001 7.083035e-001
      outer loop
         vertex -6.597553e-001 1.151963e+000 2.600000e+000
         vertex -6.276159e-001 1.113661e+000 2.650000e+000
         vertex -6.240584e-001 1.176958e+000 2.600000e+000
      endloop
   endfacet
   facet normal -3.878640e-001 5.898032e-001 7.083035e-001
      outer loop
         vertex -6.240584e-001 1.176958e+000 2.600000e+000
         vertex -6.276159e-001 1.113661e+000 2.650000e+000
         vertex -5.990584e-001 1.133657e+000 2.650000e+000
      endloop
   endfacet
   facet normal -3.168525e-001 6.308017e-001 7.083034e-001
      outer loop
         vertex -6.240584e-001 1.176958e+000 2.600000e+000
         vertex -5.990584e-001 1.133657e+000 2.650000e+000
         vertex -5.845634e-001 1.195375e+000 2.600000e+000
      endloop
   endfacet
   facet normal -2.795533e-001 6.481946e-001 7.083035e-001
      outer loop
         vertex -5.845634e-001 1.195375e+000 2.600000e+000
         vertex -5.990584e-001 1.133657e+000 2.650000e+000
         vertex -5.674624e-001 1.148391e+000 2.650000e+000
      endloop
   endfacet
   facet normal -2.025012e-001 6.762393e-001 7.083035e-001
      outer loop
         vertex -5.845634e-001 1.195375e+000 2.600000e+000
         vertex -5.674624e-001 1.148391e+000 2.650000e+000
         vertex -5.424705e-001 1.206654e+000 2.600000e+000
      endloop
   endfacet
   facet normal -1.627484e-001 6.868910e-001 7.083035e-001
      outer loop
         vertex -5.424705e-001 1.206654e+000 2.600000e+000
         vertex -5.674624e-001 1.148391e+000 2.650000e+000
         vertex -5.337880e-001 1.157413e+000 2.650000e+000
      endloop
   endfacet
   facet normal -8.199707e-002 7.011296e-001 7.083035e-001
      outer loop
         vertex -5.424705e-001 1.206654e+000 2.600000e+000
         vertex -5.337880e-001 1.157413e+000 2.650000e+000
         vertex -4.990584e-001 1.210452e+000 2.600000e+000
      endloop
   endfacet
   facet normal -4.099853e-002 7.047165e-001 7.083034e-001
      outer loop
         vertex -4.990584e-001 1.210452e+000 2.600000e+000
         vertex -5.337880e-001 1.157413e+000 2.650000e+000
         vertex -4.990584e-001 1.160452e+000 2.650000e+000
      endloop
   endfacet
   facet normal 4.099853e-002 7.047165e-001 7.083034e-001
      outer loop
         vertex -4.990584e-001 1.210452e+000 2.600000e+000
         vertex -4.990584e-001 1.160452e+000 2.650000e+000
         vertex -4.556463e-001 1.206654e+000 2.600000e+000
      endloop
   endfacet
   facet normal 8.199707e-002 7.011296e-001 7.083035e-001
      outer loop
         vertex -4.556463e-001 1.206654e+000 2.600000e+000
         vertex -4.990584e-001 1.160452e+000 2.650000e+000
         vertex -4.643288e-001 1.157413e+000 2.650000e+000
      endloop
   endfacet
   facet normal 1.627484e-001 6.868910e-001 7.083035e-001
      outer loop
         vertex -4.556463e-001 1.206654e+000 2.600000e+000
         vertex -4.643288e-001 1.157413e+000 2.650000e+000
         vertex -4.135533e-001 1.195375e+000 2.600000e+000
      endloop
   endfacet
   facet normal 2.025012e-001 6.762393e-001 7.083035e-001
      outer loop
         vertex -4.135533e-001 1.195375e+000 2.600000e+000
         vertex -4.643288e-001 1.157413e+000 2.650000e+000
         vertex -4.306543e-001 1.148391e+000 2.650000e+000
      endloop
   endfacet
   facet normal 2.795533e-001 6.481946e-001 7.083035e-001
      outer loop
         vertex -4.135533e-001 1.195375e+000 2.600000e+000
         vertex -4.306543e-001 1.148391e+000 2.650000e+000
         vertex -3.740584e-001 1.176958e+000 2.600000e+000
      endloop
   endfacet
   facet normal 3.168525e-001 6.308017e-001 7.083035e-001
      outer loop
         vertex -3.740584e-001 1.176958e+000 2.600000e+000
         vertex -4.306543e-001 1.148391e+000 2.650000e+000
         vertex -3.990584e-001 1.133657e+000 2.650000e+000
      endloop
   endfacet
   facet normal 3.878640e-001 5.898032e-001 7.083035e-001
      outer loop
         vertex -3.740584e-001 1.176958e+000 2.600000e+000
         vertex -3.990584e-001 1.133657e+000 2.650000e+000
         vertex -3.383615e-001 1.151963e+000 2.600000e+000
      endloop
   endfacet
   facet normal 4.215763e-001 5.661975e-001 7.083034e-001
      outer loop
         vertex -3.383615e-001 1.151963e+000 2.600000e+000
         vertex -3.990584e-001 1.133657e+000 2.650000e+000
         vertex -3.705008e-001 1.113661e+000 2.650000e+000
      endloop
   endfacet
   facet normal 4.843898e-001 5.134909e-001 7.083035e-001
      outer loop
         vertex -3.383615e-001 1.151963e+000 2.600000e+000
         vertex -3.705008e-001 1.113661e+000 2.650000e+000
         vertex -3.075472e-001 1.121149e+000 2.600000e+000
      endloop
   endfacet
   facet normal 5.134908e-001 4.843898e-001 7.083034e-001
      outer loop
         vertex -3.075472e-001 1.121149e+000 2.600000e+000
         vertex -3.705008e-001 1.113661e+000 2.650000e+000
         vertex -3.458495e-001 1.089009e+000 2.650000e+000
      endloop
   endfacet
   facet normal 5.661975e-001 4.215764e-001 7.083035e-001
      outer loop
         vertex -3.075472e-001 1.121149e+000 2.600000e+000
         vertex -3.458495e-001 1.089009e+000 2.650000e+000
         vertex -2.825520e-001 1.085452e+000 2.600000e+000
      endloop
   endfacet
   facet normal 5.898032e-001 3.878640e-001 7.083035e-001
      outer loop
         vertex -2.825520e-001 1.085452e+000 2.600000e+000
         vertex -3.458495e-001 1.089009e+000 2.650000e+000
         vertex -3.258533e-001 1.060452e+000 2.650000e+000
      endloop
   endfacet
   facet normal 6.308017e-001 3.168525e-001 7.083034e-001
      outer loop
         vertex -2.825520e-001 1.085452e+000 2.600000e+000
         vertex -3.258533e-001 1.060452e+000 2.650000e+000
         vertex -2.641352e-001 1.045957e+000 2.600000e+000
      endloop
   endfacet
   facet normal 6.481946e-001 2.795533e-001 7.083035e-001
      outer loop
         vertex -2.641352e-001 1.045957e+000 2.600000e+000
         vertex -3.258533e-001 1.060452e+000 2.650000e+000
         vertex -3.111199e-001 1.028856e+000 2.650000e+000
      endloop
   endfacet
   facet normal 6.762393e-001 2.025012e-001 7.083035e-001
      outer loop
         vertex -2.641352e-001 1.045957e+000 2.600000e+000
         vertex -3.111199e-001 1.028856e+000 2.650000e+000
         vertex -2.528564e-001 1.003864e+000 2.600000e+000
      endloop
   endfacet
   facet normal 6.868910e-001 1.627484e-001 7.083035e-001
      outer loop
         vertex -2.528564e-001 1.003864e+000 2.600000e+000
         vertex -3.111199e-001 1.028856e+000 2.650000e+000
         vertex -3.020968e-001 9.951816e-001 2.650000e+000
      endloop
   endfacet
   facet normal 7.011296e-001 8.199707e-002 7.083035e-001
      outer loop
         vertex -2.528564e-001 1.003864e+000 2.600000e+000
         vertex -3.020968e-001 9.951816e-001 2.650000e+000
         vertex -2.490584e-001 9.604519e-001 2.600000e+000
      endloop
   endfacet
   facet normal 7.047165e-001 4.099853e-002 7.083034e-001
      outer loop
         vertex -2.490584e-001 9.604519e-001 2.600000e+000
         vertex -3.020968e-001 9.951816e-001 2.650000e+000
         vertex -2.990584e-001 9.604519e-001 2.650000e+000
      endloop
   endfacet
   facet normal 7.047165e-001 -4.099853e-002 7.083034e-001
      outer loop
         vertex -2.490584e-001 9.604519e-001 2.600000e+000
         vertex -2.990584e-001 9.604519e-001 2.650000e+000
         vertex -2.528564e-001 9.170399e-001 2.600000e+000
      endloop
   endfacet
   facet normal 7.011296e-001 -8.199707e-002 7.083035e-001
      outer loop
         vertex -2.528564e-001 9.170399e-001 2.600000e+000
         vertex -2.990584e-001 9.604519e-001 2.650000e+000
         vertex -3.020968e-001 9.257224e-001 2.650000e+000
      endloop
   endfacet
   facet normal 6.868910e-001 -1.627484e-001 7.083035e-001
      outer loop
         vertex -2.528564e-001 9.170399e-001 2.600000e+000
         vertex -3.020968e-001 9.257224e-001 2.650000e+000
         vertex -2.641352e-001 8.749469e-001 2.600000e+000
      endloop
   endfacet
   facet normal 6.762393e-001 -2.025012e-001 7.083035e-001
      outer loop
         vertex -2.641352e-001 8.749469e-001 2.600000e+000
         vertex -3.020968e-001 9.257224e-001 2.650000e+000
         vertex -3.111199e-001 8.920479e-001 2.650000e+000
      endloop
   endfacet
   facet normal 6.481946e-001 -2.795533e-001 7.083035e-001
      outer loop
         vertex -2.641352e-001 8.749469e-001 2.600000e+000
         vertex -3.111199e-001 8.920479e-001 2.650000e+000
         vertex -2.825520e-001 8.354520e-001 2.600000e+000
      endloop
   endfacet
   facet normal 6.308017e-001 -3.168525e-001 7.083035e-001
      outer loop
         vertex -2.825520e-001 8.354520e-001 2.600000e+000
         vertex -3.111199e-001 8.920479e-001 2.650000e+000
         vertex -3.258533e-001 8.604519e-001 2.650000e+000
      endloop
   endfacet
   facet normal 5.898032e-001 -3.878640e-001 7.083035e-001
      outer loop
         vertex -2.825520e-001 8.354520e-001 2.600000e+000
         vertex -3.258533e-001 8.604519e-001 2.650000e+000
         vertex -3.075472e-001 7.997550e-001 2.600000e+000
      endloop
   endfacet
   facet normal 5.661975e-001 -4.215763e-001 7.083034e-001
      outer loop
         vertex -3.075472e-001 7.997550e-001 2.600000e+000
         vertex -3.258533e-001 8.604519e-001 2.650000e+000
         vertex -3.458495e-001 8.318944e-001 2.650000e+000
      endloop
   endfacet
   facet normal 5.134909e-001 -4.843898e-001 7.083035e-001
      outer loop
         vertex -3.075472e-001 7.997550e-001 2.600000e+000
         vertex -3.458495e-001 8.318944e-001 2.650000e+000
         vertex -3.383615e-001 7.689409e-001 2.600000e+000
      endloop
   endfacet
   facet normal 4.843898e-001 -5.134908e-001 7.083034e-001
      outer loop
         vertex -3.383615e-001 7.689409e-001 2.600000e+000
         vertex -3.458495e-001 8.318944e-001 2.650000e+000
         vertex -3.705008e-001 8.072430e-001 2.650000e+000
      endloop
   endfacet
   facet normal 4.215764e-001 -5.661975e-001 7.083035e-001
      outer loop
         vertex -3.383615e-001 7.689409e-001 2.600000e+000
         vertex -3.705008e-001 8.072430e-001 2.650000e+000
         vertex -3.740584e-001 7.439456e-001 2.600000e+000
      endloop
   endfacet
   facet normal 3.878640e-001 -5.898032e-001 7.083035e-001
      outer loop
         vertex -3.740584e-001 7.439456e-001 2.600000e+000
         vertex -3.705008e-001 8.072430e-001 2.650000e+000
         vertex -3.990584e-001 7.872469e-001 2.650000e+000
      endloop
   endfacet
   facet normal 3.168525e-001 -6.308017e-001 7.083034e-001
      outer loop
         vertex -3.740584e-001 7.439456e-001 2.600000e+000
         vertex -3.990584e-001 7.872469e-001 2.650000e+000
         vertex -4.135533e-001 7.255288e-001 2.600000e+000
      endloop
   endfacet
   facet normal 2.795533e-001 -6.481946e-001 7.083035e-001
      outer loop
         vertex -4.135533e-001 7.255288e-001 2.600000e+000
         vertex -3.990584e-001 7.872469e-001 2.650000e+000
         vertex -4.306543e-001 7.725134e-001 2.650000e+000
      endloop
   endfacet
   facet normal 2.025012e-001 -6.762393e-001 7.083035e-001
      outer loop
         vertex -4.135533e-001 7.255288e-001 2.600000e+000
         vertex -4.306543e-001 7.725134e-001 2.650000e+000
         vertex -4.556463e-001 7.142500e-001 2.600000e+000
      endloop
   endfacet
   facet normal 1.627484e-001 -6.868910e-001 7.083035e-001
      outer loop
         vertex -4.556463e-001 7.142500e-001 2.600000e+000
         vertex -4.306543e-001 7.725134e-001 2.650000e+000
         vertex -4.643288e-001 7.634904e-001 2.650000e+000
      endloop
   endfacet
   facet normal 8.199707e-002 -7.011296e-001 7.083035e-001
      outer loop
         vertex -4.556463e-001 7.142500e-001 2.600000e+000
         vertex -4.643288e-001 7.634904e-001 2.650000e+000
         vertex -4.990584e-001 7.104519e-001 2.600000e+000
      endloop
   endfacet
   facet normal 4.099853e-002 -7.047165e-001 7.083034e-001
      outer loop
         vertex -4.990584e-001 7.104519e-001 2.600000e+000
         vertex -4.643288e-001 7.634904e-001 2.650000e+000
         vertex -4.990584e-001 7.604519e-001 2.650000e+000
      endloop
   endfacet
   facet normal -4.099853e-002 -7.047165e-001 7.083034e-001
      outer loop
         vertex -4.990584e-001 7.104519e-001 2.600000e+000
         vertex -4.990584e-001 7.604519e-001 2.650000e+000
         vertex -5.424705e-001 7.142500e-001 2.600000e+000
      endloop
   endfacet
   facet normal -8.199707e-002 -7.011296e-001 7.083035e-001
      outer loop
         vertex -5.424705e-001 7.142500e-001 2.600000e+000
         vertex -4.990584e-001 7.604519e-001 2.650000e+000
         vertex -5.337880e-001 7.634904e-001 2.650000e+000
      endloop
   endfacet
   facet normal -1.627484e-001 -6.868910e-001 7.083035e-001
      outer loop
         vertex -5.424705e-001 7.142500e-001 2.600000e+000
         vertex -5.337880e-001 7.634904e-001 2.650000e+000
         vertex -5.845634e-001 7.255288e-001 2.600000e+000
      endloop
   endfacet
   facet normal -2.025012e-001 -6.762393e-001 7.083035e-001
      outer loop
         vertex -5.845634e-001 7.255288e-001 2.600000e+000
         vertex -5.337880e-001 7.634904e-001 2.650000e+000
         vertex -5.674624e-001 7.725134e-001 2.650000e+000
      endloop
   endfacet
   facet normal -2.795533e-001 -6.481946e-001 7.083035e-001
      outer loop
         vertex -5.845634e-001 7.255288e-001 2.600000e+000
         vertex -5.674624e-001 7.725134e-001 2.650000e+000
         vertex -6.240584e-001 7.439456e-001 2.600000e+000
      endloop
   endfacet
   facet normal -3.168525e-001 -6.308017e-001 7.083035e-001
      outer loop
         vertex -6.240584e-001 7.439456e-001 2.600000e+000
         vertex -5.674624e-001 7.725134e-001 2.650000e+000
         vertex -5.990584e-001 7.872469e-001 2.650000e+000
      endloop
   endfacet
   facet normal -3.878640e-001 -5.898032e-001 7.083035e-001
      outer loop
         vertex -6.240584e-001 7.439456e-001 2.600000e+000
         vertex -5.990584e-001 7.872469e-001 2.650000e+000
         vertex -6.597553e-001 7.689409e-001 2.600000e+000
      endloop
   endfacet
   facet normal -4.215763e-001 -5.661975e-001 7.083034e-001
      outer loop
         vertex -6.597553e-001 7.689409e-001 2.600000e+000
         vertex -5.990584e-001 7.872469e-001 2.650000e+000
         vertex -6.276159e-001 8.072430e-001 2.650000e+000
      endloop
   endfacet
   facet normal -4.843898e-001 -5.134909e-001 7.083035e-001
      outer loop
         vertex -6.597553e-001 7.689409e-001 2.600000e+000
         vertex -6.276159e-001 8.072430e-001 2.650000e+000
         vertex -6.905695e-001 7.997550e-001 2.600000e+000
      endloop
   endfacet
   facet normal -5.134908e-001 -4.843898e-001 7.083034e-001
      outer loop
         vertex -6.905695e-001 7.997550e-001 2.600000e+000
         vertex -6.276159e-001 8.072430e-001 2.650000e+000
         vertex -6.522673e-001 8.318944e-001 2.650000e+000
      endloop
   endfacet
   facet normal -5.661975e-001 -4.215764e-001 7.083035e-001
      outer loop
         vertex -6.905695e-001 7.997550e-001 2.600000e+000
         vertex -6.522673e-001 8.318944e-001 2.650000e+000
         vertex -7.155647e-001 8.354520e-001 2.600000e+000
      endloop
   endfacet
   facet normal -5.898032e-001 -3.878640e-001 7.083035e-001
      outer loop
         vertex -7.155647e-001 8.354520e-001 2.600000e+000
         vertex -6.522673e-001 8.318944e-001 2.650000e+000
         vertex -6.722634e-001 8.604519e-001 2.650000e+000
      endloop
   endfacet
   facet normal -6.308017e-001 -3.168525e-001 7.083034e-001
      outer loop
         vertex -7.155647e-001 8.354520e-001 2.600000e+000
         vertex -6.722634e-001 8.604519e-001 2.650000e+000
         vertex -7.339815e-001 8.749469e-001 2.600000e+000
      endloop
   endfacet
   facet normal -6.481946e-001 -2.795533e-001 7.083035e-001
      outer loop
         vertex -7.339815e-001 8.749469e-001 2.600000e+000
         vertex -6.722634e-001 8.604519e-001 2.650000e+000
         vertex -6.869969e-001 8.920479e-001 2.650000e+000
      endloop
   endfacet
   facet normal -6.762393e-001 -2.025012e-001 7.083035e-001
      outer loop
         vertex -7.339815e-001 8.749469e-001 2.600000e+000
         vertex -6.869969e-001 8.920479e-001 2.650000e+000
         vertex -7.452603e-001 9.170399e-001 2.600000e+000
      endloop
   endfacet
   facet normal -6.868910e-001 -1.627484e-001 7.083035e-001
      outer loop
         vertex -7.452603e-001 9.170399e-001 2.600000e+000
         vertex -6.869969e-001 8.920479e-001 2.650000e+000
         vertex -6.960199e-001 9.257224e-001 2.650000e+000
      endloop
   endfacet
   facet normal -7.011296e-001 -8.199707e-002 7.083035e-001
      outer loop
         vertex -7.452603e-001 9.170399e-001 2.600000e+000
         vertex -6.960199e-001 9.257224e-001 2.650000e+000
         vertex -7.490584e-001 9.604519e-001 2.600000e+000
      endloop
   endfacet
   facet normal -7.047165e-001 -4.099853e-002 7.083034e-001
      outer loop
         vertex -7.490584e-001 9.604519e-001 2.600000e+000
         vertex -6.960199e-001 9.257224e-001 2.650000e+000
         vertex -6.990584e-001 9.604519e-001 2.650000e+000
      endloop
   endfacet
   facet normal -7.047165e-001 4.099853e-002 7.083034e-001
      outer loop
         vertex -7.490584e-001 9.604519e-001 2.600000e+000
         vertex -6.990584e-001 9.604519e-001 2.650000e+000
         vertex -7.452603e-001 1.003864e+000 2.600000e+000
      endloop
   endfacet
   facet normal -7.011296e-001 8.199707e-002 7.083035e-001
      outer loop
         vertex -7.452603e-001 1.003864e+000 2.600000e+000
         vertex -6.990584e-001 9.604519e-001 2.650000e+000
         vertex -6.960199e-001 9.951816e-001 2.650000e+000
      endloop
   endfacet
   facet normal 9.983119e-001 5.807913e-002 0.000000e+000
      outer loop
         vertex -2.528564e-001 1.003864e+000 5.000000e-002
         vertex -2.490584e-001 9.604519e-001 2.600000e+000
         vertex -2.490584e-001 9.604519e-001 5.000000e-002
      endloop
   endfacet
   facet normal 9.983119e-001 -5.807913e-002 0.000000e+000
      outer loop
         vertex -2.490584e-001 9.604519e-001 5.000000e-002
         vertex -2.490584e-001 9.604519e-001 2.600000e+000
         vertex -2.528564e-001 9.170399e-001 2.600000e+000
      endloop
   endfacet
   facet normal 9.932307e-001 -1.161583e-001 0.000000e+000
      outer loop
         vertex -2.490584e-001 9.604519e-001 5.000000e-002
         vertex -2.528564e-001 9.170399e-001 2.600000e+000
         vertex -2.528564e-001 9.170399e-001 5.000000e-002
      endloop
   endfacet
   facet normal 9.730600e-001 -2.305519e-001 0.000000e+000
      outer loop
         vertex -2.528564e-001 9.170399e-001 5.000000e-002
         vertex -2.528564e-001 9.170399e-001 2.600000e+000
         vertex -2.641352e-001 8.749469e-001 2.600000e+000
      endloop
   endfacet
   facet normal 9.579706e-001 -2.868663e-001 0.000000e+000
      outer loop
         vertex -2.528564e-001 9.170399e-001 5.000000e-002
         vertex -2.641352e-001 8.749469e-001 2.600000e+000
         vertex -2.641352e-001 8.749469e-001 5.000000e-002
      endloop
   endfacet
   facet normal 9.182422e-001 -3.960194e-001 0.000000e+000
      outer loop
         vertex -2.641352e-001 8.749469e-001 5.000000e-002
         vertex -2.641352e-001 8.749469e-001 2.600000e+000
         vertex -2.825520e-001 8.354520e-001 2.600000e+000
      endloop
   endfacet
   facet normal 8.936031e-001 -4.488580e-001 0.000000e+000
      outer loop
         vertex -2.641352e-001 8.749469e-001 5.000000e-002
         vertex -2.825520e-001 8.354520e-001 2.600000e+000
         vertex -2.825520e-001 8.354520e-001 5.000000e-002
      endloop
   endfacet
   facet normal 8.355240e-001 -5.494540e-001 0.000000e+000
      outer loop
         vertex -2.825520e-001 8.354520e-001 5.000000e-002
         vertex -2.825520e-001 8.354520e-001 2.600000e+000
         vertex -3.075472e-001 7.997550e-001 2.600000e+000
      endloop
   endfacet
   facet normal 8.020838e-001 -5.972114e-001 0.000000e+000
      outer loop
         vertex -2.825520e-001 8.354520e-001 5.000000e-002
         vertex -3.075472e-001 7.997550e-001 2.600000e+000
         vertex -3.075472e-001 7.997550e-001 5.000000e-002
      endloop
   endfacet
   facet normal 7.274188e-001 -6.861938e-001 0.000000e+000
      outer loop
         vertex -3.075472e-001 7.997550e-001 5.000000e-002
         vertex -3.075472e-001 7.997550e-001 2.600000e+000
         vertex -3.383615e-001 7.689409e-001 2.600000e+000
      endloop
   endfacet
   facet normal 6.861938e-001 -7.274188e-001 0.000000e+000
      outer loop
         vertex -3.075472e-001 7.997550e-001 5.000000e-002
         vertex -3.383615e-001 7.689409e-001 2.600000e+000
         vertex -3.383615e-001 7.689409e-001 5.000000e-002
      endloop
   endfacet
   facet normal 5.972114e-001 -8.020838e-001 0.000000e+000
      outer loop
         vertex -3.383615e-001 7.689409e-001 5.000000e-002
         vertex -3.383615e-001 7.689409e-001 2.600000e+000
         vertex -3.740584e-001 7.439456e-001 2.600000e+000
      endloop
   endfacet
   facet normal 5.494540e-001 -8.355240e-001 0.000000e+000
      outer loop
         vertex -3.383615e-001 7.689409e-001 5.000000e-002
         vertex -3.740584e-001 7.439456e-001 2.600000e+000
         vertex -3.740584e-001 7.439456e-001 5.000000e-002
      endloop
   endfacet
   facet normal 4.488580e-001 -8.936031e-001 0.000000e+000
      outer loop
         vertex -3.740584e-001 7.439456e-001 5.000000e-002
         vertex -3.740584e-001 7.439456e-001 2.600000e+000
         vertex -4.135533e-001 7.255288e-001 2.600000e+000
      endloop
   endfacet
   facet normal 3.960194e-001 -9.182422e-001 0.000000e+000
      outer loop
         vertex -3.740584e-001 7.439456e-001 5.000000e-002
         vertex -4.135533e-001 7.255288e-001 2.600000e+000
         vertex -4.135533e-001 7.255288e-001 5.000000e-002
      endloop
   endfacet
   facet normal 2.868663e-001 -9.579706e-001 0.000000e+000
      outer loop
         vertex -4.135533e-001 7.255288e-001 5.000000e-002
         vertex -4.135533e-001 7.255288e-001 2.600000e+000
         vertex -4.556463e-001 7.142500e-001 2.600000e+000
      endloop
   endfacet
   facet normal 2.305519e-001 -9.730600e-001 0.000000e+000
      outer loop
         vertex -4.135533e-001 7.255288e-001 5.000000e-002
         vertex -4.556463e-001 7.142500e-001 2.600000e+000
         vertex -4.556463e-001 7.142500e-001 5.000000e-002
      endloop
   endfacet
   facet normal 1.161583e-001 -9.932307e-001 0.000000e+000
      outer loop
         vertex -4.556463e-001 7.142500e-001 5.000000e-002
         vertex -4.556463e-001 7.142500e-001 2.600000e+000
         vertex -4.990584e-001 7.104519e-001 2.600000e+000
      endloop
   endfacet
   facet normal 5.807913e-002 -9.983119e-001 0.000000e+000
      outer loop
         vertex -4.556463e-001 7.142500e-001 5.000000e-002
         vertex -4.990584e-001 7.104519e-001 2.600000e+000
         vertex -4.990584e-001 7.104519e-001 5.000000e-002
      endloop
   endfacet
   facet normal -5.807913e-002 -9.983119e-001 0.000000e+000
      outer loop
         vertex -4.990584e-001 7.104519e-001 5.000000e-002
         vertex -4.990584e-001 7.104519e-001 2.600000e+000
         vertex -5.424705e-001 7.142500e-001 2.600000e+000
      endloop
   endfacet
   facet normal -1.161583e-001 -9.932307e-001 0.000000e+000
      outer loop
         vertex -4.990584e-001 7.104519e-001 5.000000e-002
         vertex -5.424705e-001 7.142500e-001 2.600000e+000
         vertex -5.424705e-001 7.142500e-001 5.000000e-002
      endloop
   endfacet
   facet normal -2.305519e-001 -9.730600e-001 0.000000e+000
      outer loop
         vertex -5.424705e-001 7.142500e-001 5.000000e-002
         vertex -5.424705e-001 7.142500e-001 2.600000e+000
         vertex -5.845634e-001 7.255288e-001 2.600000e+000
      endloop
   endfacet
   facet normal -2.868663e-001 -9.579706e-001 0.000000e+000
      outer loop
         vertex -5.424705e-001 7.142500e-001 5.000000e-002
         vertex -5.845634e-001 7.255288e-001 2.600000e+000
         vertex -5.845634e-001 7.255288e-001 5.000000e-002
      endloop
   endfacet
   facet normal -3.960194e-001 -9.182422e-001 0.000000e+000
      outer loop
         vertex -5.845634e-001 7.255288e-001 5.000000e-002
         vertex -5.845634e-001 7.255288e-001 2.600000e+000
         vertex -6.240584e-001 7.439456e-001 2.600000e+000
      endloop
   endfacet
   facet normal -4.488580e-001 -8.936031e-001 0.000000e+000
      outer loop
         vertex -5.845634e-001 7.255288e-001 5.000000e-002
         vertex -6.240584e-001 7.439456e-001 2.600000e+000
         vertex -6.240584e-001 7.439456e-001 5.000000e-002
      endloop
   endfacet
   facet normal -5.494540e-001 -8.355240e-001 0.000000e+000
      outer loop
         vertex -6.240584e-001 7.439456e-001 5.000000e-002
         vertex -6.240584e-001 7.439456e-001 2.600000e+000
         vertex -6.597553e-001 7.689409e-001 2.600000e+000
      endloop
   endfacet
   facet normal -5.972114e-001 -8.020838e-001 0.000000e+000
      outer loop
         vertex -6.240584e-001 7.439456e-001 5.000000e-002
         vertex -6.597553e-001 7.689409e-001 2.600000e+000
         vertex -6.597553e-001 7.689409e-001 5.000000e-002
      endloop
   endfacet
   facet normal -6.861938e-001 -7.274188e-001 0.000000e+000
      outer loop
         vertex -6.597553e-001 7.689409e-001 5.000000e-002
         vertex -6.597553e-001 7.689409e-001 2.600000e+000
         vertex -6.905695e-001 7.997550e-001 2.600000e+000
      endloop
   endfacet
   facet normal -7.274188e-001 -6.861938e-001 0.000000e+000
      outer loop
         vertex -6.597553e-001 7.689409e-001 5.000000e-002
         vertex -6.905695e-001 7.997550e-001 2.600000e+000
         vertex -6.905695e-001 7.997550e-001 5.000000e-002
      endloop
   endfacet
   facet normal -8.020838e-001 -5.972114e-001 0.000000e+000
      outer loop
         vertex -6.905695e-001 7.997550e-001 5.000000e-002
         vertex -6.905695e-001 7.997550e-001 2.600000e+000
         vertex -7.155647e-001 8.354520e-001 2.600000e+000
      endloop
   endfacet
   facet normal -8.355240e-001 -5.494540e-001 0.000000e+000
      outer loop
         vertex -6.905695e-001 7.997550e-001 5.000000e-002
         vertex -7.155647e-001 8.354520e-001 2.600000e+000
         vertex -7.155647e-001 8.354520e-001 5.000000e-002
      endloop
   endfacet
   facet normal -8.936031e-001 -4.488580e-001 0.000000e+000
      outer loop
         vertex -7.155647e-001 8.354520e-001 5.000000e-002
         vertex -7.155647e-001 8.354520e-001 2.600000e+000
         vertex -7.339815e-001 8.749469e-001 2.600000e+000
      endloop
   endfacet
   facet normal -9.182422e-001 -3.960194e-001 0.000000e+000
      outer loop
         vertex -7.155647e-001 8.354520e-001 5.000000e-002
         vertex -7.339815e-001 8.749469e-001 2.600000e+000
         vertex -7.339815e-001 8.749469e-001 5.000000e-002
      endloop
   endfacet
   facet normal -9.579706e-001 -2.868663e-001 0.000000e+000
      outer loop
         vertex -7.339815e-001 8.749469e-001 5.000000e-002
         vertex -7.339815e-001 8.749469e-001 2.600000e+000
         vertex -7.452603e-001 9.170399e-001 2.600000e+000
      endloop
   endfacet
   facet normal -9.730600e-001 -2.305519e-001 0.000000e+000
      outer loop
         vertex -7.339815e-001 8.749469e-001 5.000000e-002
         vertex -7.452603e-001 9.170399e-001 2.600000e+000
         vertex -7.452603e-001 9.170399e-001 5.000000e-002
      endloop
   endfacet
   facet normal -9.932307e-001 -1.161583e-001 0.000000e+000
      outer loop
         vertex -7.452603e-001 9.170399e-001 5.000000e-002
         vertex -7.452603e-001 9.170399e-001 2.600000e+000
         vertex -7.490584e-001 9.604519e-001 2.600000e+000
      endloop
   endfacet
   facet normal -9.983119e-001 -5.807913e-002 0.000000e+000
      outer loop
         vertex -7.452603e-001 9.170399e-001 5.000000e-002
         vertex -7.490584e-001 9.604519e-001 2.600000e+000
         vertex -7.490584e-001 9.604519e-001 5.000000e-002
      endloop
   endfacet
   facet normal -9.983119e-001 5.807913e-002 0.000000e+000
      outer loop
         vertex -7.490584e-001 9.604519e-001 5.000000e-002
         vertex -7.490584e-001 9.604519e-001 2.600000e+000
         vertex -7.452603e-001 1.003864e+000 2.600000e+000
      endloop
   endfacet
   facet normal -9.932307e-001 1.161583e-001 0.000000e+000
      outer loop
         vertex -7.490584e-001 9.604519e-001 5.000000e-002
         vertex -7.452603e-001 1.003864e+000 2.600000e+000
         vertex -7.452603e-001 1.003864e+000 5.000000e-002
      endloop
   endfacet
   facet normal -9.730600e-001 2.305519e-001 0.000000e+000
      outer loop
         vertex -7.452603e-001 1.003864e+000 5.000000e-002
         vertex -7.452603e-001 1.003864e+000 2.600000e+000
         vertex -7.339815e-001 1.045957e+000 2.600000e+000
      endloop
   endfacet
   facet normal -9.579706e-001 2.868663e-001 0.000000e+000
      outer loop
         vertex -7.452603e-001 1.003864e+000 5.000000e-002
         vertex -7.339815e-001 1.045957e+000 2.600000e+000
         vertex -7.339815e-001 1.045957e+000 5.000000e-002
      endloop
   endfacet
   facet normal -9.182422e-001 3.960194e-001 0.000000e+000
      outer loop
         vertex -7.339815e-001 1.045957e+000 5.000000e-002
         vertex -7.339815e-001 1.045957e+000 2.600000e+000
         vertex -7.155647e-001 1.085452e+000 2.600000e+000
      endloop
   endfacet
   facet normal -8.936031e-001 4.488580e-001 0.000000e+000
      outer loop
         vertex -7.339815e-001 1.045957e+000 5.000000e-002
         vertex -7.155647e-001 1.085452e+000 2.600000e+000
         vertex -7.155647e-001 1.085452e+000 5.000000e-002
      endloop
   endfacet
   facet normal -8.355240e-001 5.494540e-001 0.000000e+000
      outer loop
         vertex -7.155647e-001 1.085452e+000 5.000000e-002
         vertex -7.155647e-001 1.085452e+000 2.600000e+000
         vertex -6.905695e-001 1.121149e+000 2.600000e+000
      endloop
   endfacet
   facet normal -8.020838e-001 5.972114e-001 0.000000e+000
      outer loop
         vertex -7.155647e-001 1.085452e+000 5.000000e-002
         vertex -6.905695e-001 1.121149e+000 2.600000e+000
         vertex -6.905695e-001 1.121149e+000 5.000000e-002
      endloop
   endfacet
   facet normal -7.274188e-001 6.861938e-001 0.000000e+000
      outer loop
         vertex -6.905695e-001 1.121149e+000 5.000000e-002
         vertex -6.905695e-001 1.121149e+000 2.600000e+000
         vertex -6.597553e-001 1.151963e+000 2.600000e+000
      endloop
   endfacet
   facet normal -6.861938e-001 7.274188e-001 0.000000e+000
      outer loop
         vertex -6.905695e-001 1.121149e+000 5.000000e-002
         vertex -6.597553e-001 1.151963e+000 2.600000e+000
         vertex -6.597553e-001 1.151963e+000 5.000000e-002
      endloop
   endfacet
   facet normal -5.972114e-001 8.020838e-001 0.000000e+000
      outer loop
         vertex -6.597553e-001 1.151963e+000 5.000000e-002
         vertex -6.597553e-001 1.151963e+000 2.600000e+000
         vertex -6.240584e-001 1.176958e+000 2.600000e+000
      endloop
   endfacet
   facet normal -5.494540e-001 8.355240e-001 0.000000e+000
      outer loop
         vertex -6.597553e-001 1.151963e+000 5.000000e-002
         vertex -6.240584e-001 1.176958e+000 2.600000e+000
         vertex -6.240584e-001 1.176958e+000 5.000000e-002
      endloop
   endfacet
   facet normal -4.488580e-001 8.936031e-001 0.000000e+000
      outer loop
         vertex -6.240584e-001 1.176958e+000 5.000000e-002
         vertex -6.240584e-001 1.176958e+000 2.600000e+000
         vertex -5.845634e-001 1.195375e+000 2.600000e+000
      endloop
   endfacet
   facet normal -3.960194e-001 9.182422e-001 0.000000e+000
      outer loop
         vertex -6.240584e-001 1.176958e+000 5.000000e-002
         vertex -5.845634e-001 1.195375e+000 2.600000e+000
         vertex -5.845634e-001 1.195375e+000 5.000000e-002
      endloop
   endfacet
   facet normal -2.868663e-001 9.579706e-001 0.000000e+000
      outer loop
         vertex -5.845634e-001 1.195375e+000 5.000000e-002
         vertex -5.845634e-001 1.195375e+000 2.600000e+000
         vertex -5.424705e-001 1.206654e+000 2.600000e+000
      endloop
   endfacet
   facet normal -2.305519e-001 9.730600e-001 0.000000e+000
      outer loop
         vertex -5.845634e-001 1.195375e+000 5.000000e-002
         vertex -5.424705e-001 1.206654e+000 2.600000e+000
         vertex -5.424705e-001 1.206654e+000 5.000000e-002
      endloop
   endfacet
   facet normal -1.161583e-001 9.932307e-001 0.000000e+000
      outer loop
         vertex -5.424705e-001 1.206654e+000 5.000000e-002
         vertex -5.424705e-001 1.206654e+000 2.600000e+000
         vertex -4.990584e-001 1.210452e+000 2.600000e+000
      endloop
   endfacet
   facet normal -5.807913e-002 9.983119e-001 0.000000e+000
      outer loop
         vertex -5.424705e-001 1.206654e+000 5.000000e-002
         vertex -4.990584e-001 1.210452e+000 2.600000e+000
         vertex -4.990584e-001 1.210452e+000 5.000000e-002
      endloop
   endfacet
   facet normal 5.807913e-002 9.983119e-001 0.000000e+000
      outer loop
         vertex -4.990584e-001 1.210452e+000 5.000000e-002
         vertex -4.990584e-001 1.210452e+000 2.600000e+000
         vertex -4.556463e-001 1.206654e+000 2.600000e+000
      endloop
   endfacet
   facet normal 1.161583e-001 9.932307e-001 0.000000e+000
      outer loop
         vertex -4.990584e-001 1.210452e+000 5.000000e-002
         vertex -4.556463e-001 1.206654e+000 2.600000e+000
         vertex -4.556463e-001 1.206654e+000 5.000000e-002
      endloop
   endfacet
   facet normal 2.305519e-001 9.730600e-001 0.000000e+000
      outer loop
         vertex -4.556463e-001 1.206654e+000 5.000000e-002
         vertex -4.556463e-001 1.206654e+000 2.600000e+000
         vertex -4.135533e-001 1.195375e+000 2.600000e+000
      endloop
   endfacet
   facet normal 2.868663e-001 9.579706e-001 0.000000e+000
      outer loop
         vertex -4.556463e-001 1.206654e+000 5.000000e-002
         vertex -4.135533e-001 1.195375e+000 2.600000e+000
         vertex -4.135533e-001 1.195375e+000 5.000000e-002
      endloop
   endfacet
   facet normal 3.960194e-001 9.182422e-001 0.000000e+000
      outer loop
         vertex -4.135533e-001 1.195375e+000 5.000000e-002
         vertex -4.135533e-001 1.195375e+000 2.600000e+000
         vertex -3.740584e-001 1.176958e+000 2.600000e+000
      endloop
   endfacet
   facet normal 4.488580e-001 8.936031e-001 0.000000e+000
      outer loop
         vertex -4.135533e-001 1.195375e+000 5.000000e-002
         vertex -3.740584e-001 1.176958e+000 2.600000e+000
         vertex -3.740584e-001 1.176958e+000 5.000000e-002
      endloop
   endfacet
   facet normal 5.494540e-001 8.355240e-001 0.000000e+000
      outer loop
         vertex -3.740584e-001 1.176958e+000 5.000000e-002
         vertex -3.740584e-001 1.176958e+000 2.600000e+000
         vertex -3.383615e-001 1.151963e+000 2.600000e+000
      endloop
   endfacet
   facet normal 5.972114e-001 8.020838e-001 0.000000e+000
      outer loop
         vertex -3.740584e-001 1.176958e+000 5.000000e-002
         vertex -3.383615e-001 1.151963e+000 2.600000e+000
         vertex -3.383615e-001 1.151963e+000 5.000000e-002
      endloop
   endfacet
   facet normal 6.861938e-001 7.274188e-001 0.000000e+000
      outer loop
         vertex -3.383615e-001 1.151963e+000 5.000000e-002
         vertex -3.383615e-001 1.151963e+000 2.600000e+000
         vertex -3.075472e-001 1.121149e+000 2.600000e+000
      endloop
   endfacet
   facet normal 7.274188e-001 6.861938e-001 0.000000e+000
      outer loop
         vertex -3.383615e-001 1.151963e+000 5.000000e-002
         vertex -3.075472e-001 1.121149e+000 2.600000e+000
         vertex -3.075472e-001 1.121149e+000 5.000000e-002
      endloop
   endfacet
   facet normal 8.020838e-001 5.972114e-001 0.000000e+000
      outer loop
         vertex -3.075472e-001 1.121149e+000 5.000000e-002
         vertex -3.075472e-001 1.121149e+000 2.600000e+000
         vertex -2.825520e-001 1.085452e+000 2.600000e+000
      endloop
   endfacet
   facet normal 8.355240e-001 5.494540e-001 0.000000e+000
      outer loop
         vertex -3.075472e-001 1.121149e+000 5.000000e-002
         vertex -2.825520e-001 1.085452e+000 2.600000e+000
         vertex -2.825520e-001 1.085452e+000 5.000000e-002
      endloop
   endfacet
   facet normal 8.936031e-001 4.488580e-001 0.000000e+000
      outer loop
         vertex -2.825520e-001 1.085452e+000 5.000000e-002
         vertex -2.825520e-001 1.085452e+000 2.600000e+000
         vertex -2.641352e-001 1.045957e+000 2.600000e+000
      endloop
   endfacet
   facet normal 9.182422e-001 3.960194e-001 0.000000e+000
      outer loop
         vertex -2.825520e-001 1.085452e+000 5.000000e-002
         vertex -2.641352e-001 1.045957e+000 2.600000e+000
         vertex -2.641352e-001 1.045957e+000 5.000000e-002
      endloop
   endfacet
   facet normal 9.579706e-001 2.868663e-001 0.000000e+000
      outer loop
         vertex -2.641352e-001 1.045957e+000 5.000000e-002
         vertex -2.641352e-001 1.045957e+000 2.600000e+000
         vertex -2.528564e-001 1.003864e+000 2.600000e+000
      endloop
   endfacet
   facet normal 9.730600e-001 2.305519e-001 0.000000e+000
      outer loop
         vertex -2.641352e-001 1.045957e+000 5.000000e-002
         vertex -2.528564e-001 1.003864e+000 2.600000e+000
         vertex -2.528564e-001 1.003864e+000 5.000000e-002
      endloop
   endfacet
   facet normal 9.932307e-001 1.161583e-001 0.000000e+000
      outer loop
         vertex -2.528564e-001 1.003864e+000 5.000000e-002
         vertex -2.528564e-001 1.003864e+000 2.600000e+000
         vertex -2.490584e-001 9.604519e-001 2.600000e+000
      endloop
   endfacet
endsolid