solid ShaftStop_Default_sldprt
   facet normal 0.000000e+000 0.000000e+000 -1.000000e+000
      outer loop
         vertex -1.253796e-001 5.181679e-001 0.000000e+000
         vertex -1.007282e-001 5.428193e-001 0.000000e+000
         vertex -7.217069e-002 5.628155e-001 0.000000e+000
      endloop
   endfacet
   facet normal 0.000000e+000 0.000000e+000 -1.000000e+000
      outer loop
         vertex -1.601092e-001 4.580144e-001 0.000000e+000
         vertex -1.453758e-001 4.896104e-001 0.000000e+000
         vertex 1.278293e-001 2.164053e-001 0.000000e+000
      endloop
   endfacet
   facet normal 0.000000e+000 0.000000e+000 -1.000000e+000
      outer loop
         vertex 1.278293e-001 2.164053e-001 0.000000e+000
         vertex -1.453758e-001 4.896104e-001 0.000000e+000
         vertex -1.253796e-001 5.181679e-001 0.000000e+000
      endloop
   endfacet
   facet normal 0.000000e+000 0.000000e+000 -1.000000e+000
      outer loop
         vertex 2.010344e-001 4.896104e-001 0.000000e+000
         vertex 1.278293e-001 2.164053e-001 0.000000e+000
         vertex 1.810382e-001 5.181679e-001 0.000000e+000
      endloop
   endfacet
   facet normal 0.000000e+000 0.000000e+000 -1.000000e+000
      outer loop
         vertex 1.810382e-001 5.181679e-001 0.000000e+000
         vertex 1.278293e-001 2.164053e-001 0.000000e+000
         vertex 1.278293e-001 5.628155e-001 0.000000e+000
      endloop
   endfacet
   facet normal 0.000000e+000 0.000000e+000 -1.000000e+000
      outer loop
         vertex 1.810382e-001 5.181679e-001 0.000000e+000
         vertex 1.278293e-001 5.628155e-001 0.000000e+000
         vertex 1.563868e-001 5.428193e-001 0.000000e+000
      endloop
   endfacet
   facet normal 0.000000e+000 0.000000e+000 -1.000000e+000
      outer loop
         vertex 2.278293e-001 3.896104e-001 0.000000e+000
         vertex 2.247909e-001 3.548808e-001 0.000000e+000
         vertex 2.157678e-001 3.212064e-001 0.000000e+000
      endloop
   endfacet
   facet normal 0.000000e+000 0.000000e+000 -1.000000e+000
      outer loop
         vertex -4.057471e-002 2.016719e-001 0.000000e+000
         vertex -7.217069e-002 2.164053e-001 0.000000e+000
         vertex -1.007282e-001 2.364015e-001 0.000000e+000
      endloop
   endfacet
   facet normal 0.000000e+000 0.000000e+000 -1.000000e+000
      outer loop
         vertex -1.253796e-001 5.181679e-001 0.000000e+000
         vertex -7.217069e-002 5.628155e-001 0.000000e+000
         vertex 1.278293e-001 2.164053e-001 0.000000e+000
      endloop
   endfacet
   facet normal 0.000000e+000 0.000000e+000 -1.000000e+000
      outer loop
         vertex 1.278293e-001 2.164053e-001 0.000000e+000
         vertex -7.217069e-002 5.628155e-001 0.000000e+000
         vertex -4.057471e-002 5.775489e-001 0.000000e+000
      endloop
   endfacet
   facet normal 0.000000e+000 0.000000e+000 -1.000000e+000
      outer loop
         vertex 1.278293e-001 2.164053e-001 0.000000e+000
         vertex -4.057471e-002 5.775489e-001 0.000000e+000
         vertex -6.900323e-003 5.865720e-001 0.000000e+000
      endloop
   endfacet
   facet normal 0.000000e+000 0.000000e+000 -1.000000e+000
      outer loop
         vertex 2.278293e-001 3.896104e-001 0.000000e+000
         vertex 1.278293e-001 2.164053e-001 0.000000e+000
         vertex 2.247909e-001 4.243400e-001 0.000000e+000
      endloop
   endfacet
   facet normal 0.000000e+000 0.000000e+000 -1.000000e+000
      outer loop
         vertex 2.247909e-001 4.243400e-001 0.000000e+000
         vertex 1.278293e-001 2.164053e-001 0.000000e+000
         vertex 2.010344e-001 4.896104e-001 0.000000e+000
      endloop
   endfacet
   facet normal 0.000000e+000 0.000000e+000 -1.000000e+000
      outer loop
         vertex 2.247909e-001 4.243400e-001 0.000000e+000
         vertex 2.010344e-001 4.896104e-001 0.000000e+000
         vertex 2.157678e-001 4.580144e-001 0.000000e+000
      endloop
   endfacet
   facet normal 0.000000e+000 0.000000e+000 -1.000000e+000
      outer loop
         vertex 2.157678e-001 3.212064e-001 0.000000e+000
         vertex 2.010344e-001 2.896104e-001 0.000000e+000
         vertex 1.810382e-001 2.610529e-001 0.000000e+000
      endloop
   endfacet
   facet normal 0.000000e+000 0.000000e+000 -1.000000e+000
      outer loop
         vertex 2.782931e-002 1.896104e-001 0.000000e+000
         vertex -6.900323e-003 1.926488e-001 0.000000e+000
         vertex 6.255895e-002 1.926488e-001 0.000000e+000
      endloop
   endfacet
   facet normal 0.000000e+000 0.000000e+000 -1.000000e+000
      outer loop
         vertex 6.255895e-002 1.926488e-001 0.000000e+000
         vertex -6.900323e-003 1.926488e-001 0.000000e+000
         vertex -1.601092e-001 4.580144e-001 0.000000e+000
      endloop
   endfacet
   facet normal 0.000000e+000 0.000000e+000 -1.000000e+000
      outer loop
         vertex 6.255895e-002 1.926488e-001 0.000000e+000
         vertex -1.601092e-001 4.580144e-001 0.000000e+000
         vertex 9.623334e-002 2.016719e-001 0.000000e+000
      endloop
   endfacet
   facet normal 0.000000e+000 0.000000e+000 -1.000000e+000
      outer loop
         vertex 9.623334e-002 2.016719e-001 0.000000e+000
         vertex -1.601092e-001 4.580144e-001 0.000000e+000
         vertex 1.278293e-001 2.164053e-001 0.000000e+000
      endloop
   endfacet
   facet normal 0.000000e+000 0.000000e+000 -1.000000e+000
      outer loop
         vertex 9.623334e-002 5.775489e-001 0.000000e+000
         vertex 1.278293e-001 5.628155e-001 0.000000e+000
         vertex 6.255895e-002 5.865720e-001 0.000000e+000
      endloop
   endfacet
   facet normal 0.000000e+000 0.000000e+000 -1.000000e+000
      outer loop
         vertex 6.255895e-002 5.865720e-001 0.000000e+000
         vertex 1.278293e-001 5.628155e-001 0.000000e+000
         vertex 1.278293e-001 2.164053e-001 0.000000e+000
      endloop
   endfacet
   facet normal 0.000000e+000 0.000000e+000 -1.000000e+000
      outer loop
         vertex 6.255895e-002 5.865720e-001 0.000000e+000
         vertex 1.278293e-001 2.164053e-001 0.000000e+000
         vertex 2.782931e-002 5.896104e-001 0.000000e+000
      endloop
   endfacet
   facet normal 0.000000e+000 0.000000e+000 -1.000000e+000
      outer loop
         vertex 2.782931e-002 5.896104e-001 0.000000e+000
         vertex 1.278293e-001 2.164053e-001 0.000000e+000
         vertex -6.900323e-003 5.865720e-001 0.000000e+000
      endloop
   endfacet
   facet normal 0.000000e+000 0.000000e+000 -1.000000e+000
      outer loop
         vertex 2.278293e-001 3.896104e-001 0.000000e+000
         vertex 2.157678e-001 3.212064e-001 0.000000e+000
         vertex 1.278293e-001 2.164053e-001 0.000000e+000
      endloop
   endfacet
   facet normal 0.000000e+000 0.000000e+000 -1.000000e+000
      outer loop
         vertex 1.278293e-001 2.164053e-001 0.000000e+000
         vertex 2.157678e-001 3.212064e-001 0.000000e+000
         vertex 1.810382e-001 2.610529e-001 0.000000e+000
      endloop
   endfacet
   facet normal 0.000000e+000 0.000000e+000 -1.000000e+000
      outer loop
         vertex 1.278293e-001 2.164053e-001 0.000000e+000
         vertex 1.810382e-001 2.610529e-001 0.000000e+000
         vertex 1.563868e-001 2.364015e-001 0.000000e+000
      endloop
   endfacet
   facet normal 0.000000e+000 0.000000e+000 -1.000000e+000
      outer loop
         vertex -6.900323e-003 1.926488e-001 0.000000e+000
         vertex -4.057471e-002 2.016719e-001 0.000000e+000
         vertex -1.601092e-001 4.580144e-001 0.000000e+000
      endloop
   endfacet
   facet normal 0.000000e+000 0.000000e+000 -1.000000e+000
      outer loop
         vertex -1.601092e-001 4.580144e-001 0.000000e+000
         vertex -4.057471e-002 2.016719e-001 0.000000e+000
         vertex -1.007282e-001 2.364015e-001 0.000000e+000
      endloop
   endfacet
   facet normal 0.000000e+000 0.000000e+000 -1.000000e+000
      outer loop
         vertex -1.601092e-001 4.580144e-001 0.000000e+000
         vertex -1.007282e-001 2.364015e-001 0.000000e+000
         vertex -1.691322e-001 4.243400e-001 0.000000e+000
      endloop
   endfacet
   facet normal 0.000000e+000 0.000000e+000 -1.000000e+000
      outer loop
         vertex -1.691322e-001 4.243400e-001 0.000000e+000
         vertex -1.007282e-001 2.364015e-001 0.000000e+000
         vertex -1.253796e-001 2.610529e-001 0.000000e+000
      endloop
   endfacet
   facet normal 0.000000e+000 0.000000e+000 -1.000000e+000
      outer loop
         vertex -1.691322e-001 4.243400e-001 0.000000e+000
         vertex -1.253796e-001 2.610529e-001 0.000000e+000
         vertex -1.721707e-001 3.896104e-001 0.000000e+000
      endloop
   endfacet
   facet normal 0.000000e+000 0.000000e+000 -1.000000e+000
      outer loop
         vertex -1.721707e-001 3.896104e-001 0.000000e+000
         vertex -1.253796e-001 2.610529e-001 0.000000e+000
         vertex -1.453758e-001 2.896104e-001 0.000000e+000
      endloop
   endfacet
   facet normal 0.000000e+000 0.000000e+000 -1.000000e+000
      outer loop
         vertex -1.721707e-001 3.896104e-001 0.000000e+000
         vertex -1.453758e-001 2.896104e-001 0.000000e+000
         vertex -1.691322e-001 3.548808e-001 0.000000e+000
      endloop
   endfacet
   facet normal 0.000000e+000 0.000000e+000 -1.000000e+000
      outer loop
         vertex -1.691322e-001 3.548808e-001 0.000000e+000
         vertex -1.453758e-001 2.896104e-001 0.000000e+000
         vertex -1.601092e-001 3.212064e-001 0.000000e+000
      endloop
   endfacet
   facet normal 0.000000e+000 0.000000e+000 1.000000e+000
      outer loop
         vertex 2.157678e-001 4.580144e-001 3.590000e+000
         vertex 2.010344e-001 4.896104e-001 3.590000e+000
         vertex 1.810382e-001 5.181679e-001 3.590000e+000
      endloop
   endfacet
   facet normal 0.000000e+000 0.000000e+000 1.000000e+000
      outer loop
         vertex -6.900323e-003 5.865720e-001 3.590000e+000
         vertex -4.057471e-002 5.775489e-001 3.590000e+000
         vertex -7.217069e-002 5.628155e-001 3.590000e+000
      endloop
   endfacet
   facet normal 0.000000e+000 0.000000e+000 1.000000e+000
      outer loop
         vertex -1.253796e-001 2.610529e-001 3.590000e+000
         vertex -1.007282e-001 2.364015e-001 3.590000e+000
         vertex 2.157678e-001 3.212064e-001 3.590000e+000
      endloop
   endfacet
   facet normal 0.000000e+000 0.000000e+000 1.000000e+000
      outer loop
         vertex 2.157678e-001 3.212064e-001 3.590000e+000
         vertex -1.007282e-001 2.364015e-001 3.590000e+000
         vertex -7.217069e-002 2.164053e-001 3.590000e+000
      endloop
   endfacet
   facet normal 0.000000e+000 0.000000e+000 1.000000e+000
      outer loop
         vertex 2.157678e-001 3.212064e-001 3.590000e+000
         vertex -7.217069e-002 2.164053e-001 3.590000e+000
         vertex -4.057471e-002 2.016719e-001 3.590000e+000
      endloop
   endfacet
   facet normal 0.000000e+000 0.000000e+000 1.000000e+000
      outer loop
         vertex 2.157678e-001 4.580144e-001 3.590000e+000
         vertex 1.810382e-001 5.181679e-001 3.590000e+000
         vertex -1.253796e-001 2.610529e-001 3.590000e+000
      endloop
   endfacet
   facet normal 0.000000e+000 0.000000e+000 1.000000e+000
      outer loop
         vertex -1.253796e-001 2.610529e-001 3.590000e+000
         vertex 1.810382e-001 5.181679e-001 3.590000e+000
         vertex 1.563868e-001 5.428193e-001 3.590000e+000
      endloop
   endfacet
   facet normal 0.000000e+000 0.000000e+000 1.000000e+000
      outer loop
         vertex -1.253796e-001 2.610529e-001 3.590000e+000
         vertex 1.563868e-001 5.428193e-001 3.590000e+000
         vertex 1.278293e-001 5.628155e-001 3.590000e+000
      endloop
   endfacet
   facet normal 0.000000e+000 0.000000e+000 1.000000e+000
      outer loop
         vertex 2.247909e-001 4.243400e-001 3.590000e+000
         vertex 2.157678e-001 4.580144e-001 3.590000e+000
         vertex 2.278293e-001 3.896104e-001 3.590000e+000
      endloop
   endfacet
   facet normal 0.000000e+000 0.000000e+000 1.000000e+000
      outer loop
         vertex 2.278293e-001 3.896104e-001 3.590000e+000
         vertex 2.157678e-001 4.580144e-001 3.590000e+000
         vertex -1.253796e-001 2.610529e-001 3.590000e+000
      endloop
   endfacet
   facet normal 0.000000e+000 0.000000e+000 1.000000e+000
      outer loop
         vertex 2.278293e-001 3.896104e-001 3.590000e+000
         vertex -1.253796e-001 2.610529e-001 3.590000e+000
         vertex 2.247909e-001 3.548808e-001 3.590000e+000
      endloop
   endfacet
   facet normal 0.000000e+000 0.000000e+000 1.000000e+000
      outer loop
         vertex 2.247909e-001 3.548808e-001 3.590000e+000
         vertex -1.253796e-001 2.610529e-001 3.590000e+000
         vertex 2.157678e-001 3.212064e-001 3.590000e+000
      endloop
   endfacet
   facet normal 0.000000e+000 0.000000e+000 1.000000e+000
      outer loop
         vertex 1.278293e-001 5.628155e-001 3.590000e+000
         vertex 9.623334e-002 5.775489e-001 3.590000e+000
         vertex -1.253796e-001 2.610529e-001 3.590000e+000
      endloop
   endfacet
   facet normal 0.000000e+000 0.000000e+000 1.000000e+000
      outer loop
         vertex -1.253796e-001 2.610529e-001 3.590000e+000
         vertex 9.623334e-002 5.775489e-001 3.590000e+000
         vertex 6.255895e-002 5.865720e-001 3.590000e+000
      endloop
   endfacet
   facet normal 0.000000e+000 0.000000e+000 1.000000e+000
      outer loop
         vertex -1.253796e-001 2.610529e-001 3.590000e+000
         vertex 6.255895e-002 5.865720e-001 3.590000e+000
         vertex 2.782931e-002 5.896104e-001 3.590000e+000
      endloop
   endfacet
   facet normal 0.000000e+000 0.000000e+000 1.000000e+000
      outer loop
         vertex 6.255895e-002 1.926488e-001 3.590000e+000
         vertex 9.623334e-002 2.016719e-001 3.590000e+000
         vertex 2.782931e-002 1.896104e-001 3.590000e+000
      endloop
   endfacet
   facet normal 0.000000e+000 0.000000e+000 1.000000e+000
      outer loop
         vertex 2.782931e-002 1.896104e-001 3.590000e+000
         vertex 9.623334e-002 2.016719e-001 3.590000e+000
         vertex 2.157678e-001 3.212064e-001 3.590000e+000
      endloop
   endfacet
   facet normal 0.000000e+000 0.000000e+000 1.000000e+000
      outer loop
         vertex 2.782931e-002 1.896104e-001 3.590000e+000
         vertex 2.157678e-001 3.212064e-001 3.590000e+000
         vertex -6.900323e-003 1.926488e-001 3.590000e+000
      endloop
   endfacet
   facet normal 0.000000e+000 0.000000e+000 1.000000e+000
      outer loop
         vertex -6.900323e-003 1.926488e-001 3.590000e+000
         vertex 2.157678e-001 3.212064e-001 3.590000e+000
         vertex -4.057471e-002 2.016719e-001 3.590000e+000
      endloop
   endfacet
   facet normal 0.000000e+000 0.000000e+000 1.000000e+000
      outer loop
         vertex 2.782931e-002 5.896104e-001 3.590000e+000
         vertex -6.900323e-003 5.865720e-001 3.590000e+000
         vertex -1.253796e-001 2.610529e-001 3.590000e+000
      endloop
   endfacet
   facet normal 0.000000e+000 0.000000e+000 1.000000e+000
      outer loop
         vertex -1.253796e-001 2.610529e-001 3.590000e+000
         vertex -6.900323e-003 5.865720e-001 3.590000e+000
         vertex -7.217069e-002 5.628155e-001 3.590000e+000
      endloop
   endfacet
   facet normal 0.000000e+000 0.000000e+000 1.000000e+000
      outer loop
         vertex -1.253796e-001 2.610529e-001 3.590000e+000
         vertex -7.217069e-002 5.628155e-001 3.590000e+000
         vertex -1.453758e-001 2.896104e-001 3.590000e+000
      endloop
   endfacet
   facet normal 0.000000e+000 0.000000e+000 1.000000e+000
      outer loop
         vertex -1.453758e-001 2.896104e-001 3.590000e+000
         vertex -7.217069e-002 5.628155e-001 3.590000e+000
         vertex -1.007282e-001 5.428193e-001 3.590000e+000
      endloop
   endfacet
   facet normal 0.000000e+000 0.000000e+000 1.000000e+000
      outer loop
         vertex -1.453758e-001 2.896104e-001 3.590000e+000
         vertex -1.007282e-001 5.428193e-001 3.590000e+000
         vertex -1.601092e-001 3.212064e-001 3.590000e+000
      endloop
   endfacet
   facet normal 0.000000e+000 0.000000e+000 1.000000e+000
      outer loop
         vertex -1.601092e-001 3.212064e-001 3.590000e+000
         vertex -1.007282e-001 5.428193e-001 3.590000e+000
         vertex -1.253796e-001 5.181679e-001 3.590000e+000
      endloop
   endfacet
   facet normal 0.000000e+000 0.000000e+000 1.000000e+000
      outer loop
         vertex -1.601092e-001 3.212064e-001 3.590000e+000
         vertex -1.253796e-001 5.181679e-001 3.590000e+000
         vertex -1.691322e-001 3.548808e-001 3.590000e+000
      endloop
   endfacet
   facet normal 0.000000e+000 0.000000e+000 1.000000e+000
      outer loop
         vertex -1.691322e-001 3.548808e-001 3.590000e+000
         vertex -1.253796e-001 5.181679e-001 3.590000e+000
         vertex -1.453758e-001 4.896104e-001 3.590000e+000
      endloop
   endfacet
   facet normal 0.000000e+000 0.000000e+000 1.000000e+000
      outer loop
         vertex -1.691322e-001 3.548808e-001 3.590000e+000
         vertex -1.453758e-001 4.896104e-001 3.590000e+000
         vertex -1.721707e-001 3.896104e-001 3.590000e+000
      endloop
   endfacet
   facet normal 0.000000e+000 0.000000e+000 1.000000e+000
      outer loop
         vertex -1.721707e-001 3.896104e-001 3.590000e+000
         vertex -1.453758e-001 4.896104e-001 3.590000e+000
         vertex -1.601092e-001 4.580144e-001 3.590000e+000
      endloop
   endfacet
   facet normal 0.000000e+000 0.000000e+000 1.000000e+000
      outer loop
         vertex -1.721707e-001 3.896104e-001 3.590000e+000
         vertex -1.601092e-001 4.580144e-001 3.590000e+000
         vertex -1.691322e-001 4.243400e-001 3.590000e+000
      endloop
   endfacet
   facet normal 0.000000e+000 0.000000e+000 1.000000e+000
      outer loop
         vertex 1.810382e-001 2.610529e-001 3.590000e+000
         vertex 2.010344e-001 2.896104e-001 3.590000e+000
         vertex 1.563868e-001 2.364015e-001 3.590000e+000
      endloop
   endfacet
   facet normal 0.000000e+000 0.000000e+000 1.000000e+000
      outer loop
         vertex 1.563868e-001 2.364015e-001 3.590000e+000
         vertex 2.010344e-001 2.896104e-001 3.590000e+000
         vertex 2.157678e-001 3.212064e-001 3.590000e+000
      endloop
   endfacet
   facet normal 0.000000e+000 0.000000e+000 1.000000e+000
      outer loop
         vertex 1.563868e-001 2.364015e-001 3.590000e+000
         vertex 2.157678e-001 3.212064e-001 3.590000e+000
         vertex 1.278293e-001 2.164053e-001 3.590000e+000
      endloop
   endfacet
   facet normal 0.000000e+000 0.000000e+000 1.000000e+000
      outer loop
         vertex 1.278293e-001 2.164053e-001 3.590000e+000
         vertex 2.157678e-001 3.212064e-001 3.590000e+000
         vertex 9.623334e-002 2.016719e-001 3.590000e+000
      endloop
   endfacet
   facet normal 6.868910e-001 1.627484e-001 -7.083035e-001
      outer loop
         vertex 2.740313e-001 4.330224e-001 5.000000e-002
         vertex 2.247909e-001 4.243400e-001 -2.273737e-011
         vertex 2.627525e-001 4.751154e-001 5.000000e-002
      endloop
   endfacet
   facet normal 6.762393e-001 2.025012e-001 -7.083035e-001
      outer loop
         vertex 2.627525e-001 4.751154e-001 5.000000e-002
         vertex 2.247909e-001 4.243400e-001 -2.273737e-011
         vertex 2.157678e-001 4.580144e-001 -2.273737e-011
      endloop
   endfacet
   facet normal 6.481946e-001 2.795533e-001 -7.083035e-001
      outer loop
         vertex 2.627525e-001 4.751154e-001 5.000000e-002
         vertex 2.157678e-001 4.580144e-001 -2.273737e-011
         vertex 2.443357e-001 5.146104e-001 5.000000e-002
      endloop
   endfacet
   facet normal 6.308017e-001 3.168525e-001 -7.083035e-001
      outer loop
         vertex 2.443357e-001 5.146104e-001 5.000000e-002
         vertex 2.157678e-001 4.580144e-001 -2.273737e-011
         vertex 2.010344e-001 4.896104e-001 -2.273737e-011
      endloop
   endfacet
   facet normal 5.898032e-001 3.878640e-001 -7.083035e-001
      outer loop
         vertex 2.443357e-001 5.146104e-001 5.000000e-002
         vertex 2.010344e-001 4.896104e-001 -2.273737e-011
         vertex 2.193404e-001 5.503073e-001 5.000000e-002
      endloop
   endfacet
   facet normal 5.661975e-001 4.215763e-001 -7.083034e-001
      outer loop
         vertex 2.193404e-001 5.503073e-001 5.000000e-002
         vertex 2.010344e-001 4.896104e-001 -2.273737e-011
         vertex 1.810382e-001 5.181679e-001 -2.273737e-011
      endloop
   endfacet
   facet normal 5.134909e-001 4.843898e-001 -7.083035e-001
      outer loop
         vertex 2.193404e-001 5.503073e-001 5.000000e-002
         vertex 1.810382e-001 5.181679e-001 -2.273737e-011
         vertex 1.885262e-001 5.811215e-001 5.000000e-002
      endloop
   endfacet
   facet normal 4.843898e-001 5.134908e-001 -7.083034e-001
      outer loop
         vertex 1.885262e-001 5.811215e-001 5.000000e-002
         vertex 1.810382e-001 5.181679e-001 -2.273737e-011
         vertex 1.563868e-001 5.428193e-001 -2.273737e-011
      endloop
   endfacet
   facet normal 4.215764e-001 5.661975e-001 -7.083035e-001
      outer loop
         vertex 1.885262e-001 5.811215e-001 5.000000e-002
         vertex 1.563868e-001 5.428193e-001 -2.273737e-011
         vertex 1.528293e-001 6.061168e-001 5.000000e-002
      endloop
   endfacet
   facet normal 3.878640e-001 5.898032e-001 -7.083035e-001
      outer loop
         vertex 1.528293e-001 6.061168e-001 5.000000e-002
         vertex 1.563868e-001 5.428193e-001 -2.273737e-011
         vertex 1.278293e-001 5.628155e-001 -2.273737e-011
      endloop
   endfacet
   facet normal 3.168525e-001 6.308017e-001 -7.083034e-001
      outer loop
         vertex 1.528293e-001 6.061168e-001 5.000000e-002
         vertex 1.278293e-001 5.628155e-001 -2.273737e-011
         vertex 1.133343e-001 6.245335e-001 5.000000e-002
      endloop
   endfacet
   facet normal 2.795533e-001 6.481946e-001 -7.083035e-001
      outer loop
         vertex 1.133343e-001 6.245335e-001 5.000000e-002
         vertex 1.278293e-001 5.628155e-001 -2.273737e-011
         vertex 9.623334e-002 5.775489e-001 -2.273737e-011
      endloop
   endfacet
   facet normal 2.025012e-001 6.762393e-001 -7.083035e-001
      outer loop
         vertex 1.133343e-001 6.245335e-001 5.000000e-002
         vertex 9.623334e-002 5.775489e-001 -2.273737e-011
         vertex 7.124136e-002 6.358123e-001 5.000000e-002
      endloop
   endfacet
   facet normal 1.627484e-001 6.868910e-001 -7.083035e-001
      outer loop
         vertex 7.124136e-002 6.358123e-001 5.000000e-002
         vertex 9.623334e-002 5.775489e-001 -2.273737e-011
         vertex 6.255895e-002 5.865720e-001 -2.273737e-011
      endloop
   endfacet
   facet normal 8.199707e-002 7.011296e-001 -7.083035e-001
      outer loop
         vertex 7.124136e-002 6.358123e-001 5.000000e-002
         vertex 6.255895e-002 5.865720e-001 -2.273737e-011
         vertex 2.782931e-002 6.396104e-001 5.000000e-002
      endloop
   endfacet
   facet normal 4.099853e-002 7.047165e-001 -7.083034e-001
      outer loop
         vertex 2.782931e-002 6.396104e-001 5.000000e-002
         vertex 6.255895e-002 5.865720e-001 -2.273737e-011
         vertex 2.782931e-002 5.896104e-001 -2.273737e-011
      endloop
   endfacet
   facet normal -4.099853e-002 7.047165e-001 -7.083034e-001
      outer loop
         vertex 2.782931e-002 6.396104e-001 5.000000e-002
         vertex 2.782931e-002 5.896104e-001 -2.273737e-011
         vertex -1.558273e-002 6.358123e-001 5.000000e-002
      endloop
   endfacet
   facet normal -8.199707e-002 7.011296e-001 -7.083035e-001
      outer loop
         vertex -1.558273e-002 6.358123e-001 5.000000e-002
         vertex 2.782931e-002 5.896104e-001 -2.273737e-011
         vertex -6.900323e-003 5.865720e-001 -2.273737e-011
      endloop
   endfacet
   facet normal -1.627484e-001 6.868910e-001 -7.083035e-001
      outer loop
         vertex -1.558273e-002 6.358123e-001 5.000000e-002
         vertex -6.900323e-003 5.865720e-001 -2.273737e-011
         vertex -5.767572e-002 6.245335e-001 5.000000e-002
      endloop
   endfacet
   facet normal -2.025012e-001 6.762393e-001 -7.083035e-001
      outer loop
         vertex -5.767572e-002 6.245335e-001 5.000000e-002
         vertex -6.900323e-003 5.865720e-001 -2.273737e-011
         vertex -4.057471e-002 5.775489e-001 -2.273737e-011
      endloop
   endfacet
   facet normal -2.795533e-001 6.481946e-001 -7.083035e-001
      outer loop
         vertex -5.767572e-002 6.245335e-001 5.000000e-002
         vertex -4.057471e-002 5.775489e-001 -2.273737e-011
         vertex -9.717069e-002 6.061168e-001 5.000000e-002
      endloop
   endfacet
   facet normal -3.168525e-001 6.308017e-001 -7.083035e-001
      outer loop
         vertex -9.717069e-002 6.061168e-001 5.000000e-002
         vertex -4.057471e-002 5.775489e-001 -2.273737e-011
         vertex -7.217069e-002 5.628155e-001 -2.273737e-011
      endloop
   endfacet
   facet normal -3.878640e-001 5.898032e-001 -7.083035e-001
      outer loop
         vertex -9.717069e-002 6.061168e-001 5.000000e-002
         vertex -7.217069e-002 5.628155e-001 -2.273737e-011
         vertex -1.328676e-001 5.811215e-001 5.000000e-002
      endloop
   endfacet
   facet normal -4.215763e-001 5.661975e-001 -7.083034e-001
      outer loop
         vertex -1.328676e-001 5.811215e-001 5.000000e-002
         vertex -7.217069e-002 5.628155e-001 -2.273737e-011
         vertex -1.007282e-001 5.428193e-001 -2.273737e-011
      endloop
   endfacet
   facet normal -4.843898e-001 5.134909e-001 -7.083035e-001
      outer loop
         vertex -1.328676e-001 5.811215e-001 5.000000e-002
         vertex -1.007282e-001 5.428193e-001 -2.273737e-011
         vertex -1.636818e-001 5.503073e-001 5.000000e-002
      endloop
   endfacet
   facet normal -5.134908e-001 4.843898e-001 -7.083034e-001
      outer loop
         vertex -1.636818e-001 5.503073e-001 5.000000e-002
         vertex -1.007282e-001 5.428193e-001 -2.273737e-011
         vertex -1.253796e-001 5.181679e-001 -2.273737e-011
      endloop
   endfacet
   facet normal -5.661975e-001 4.215764e-001 -7.083035e-001
      outer loop
         vertex -1.636818e-001 5.503073e-001 5.000000e-002
         vertex -1.253796e-001 5.181679e-001 -2.273737e-011
         vertex -1.886770e-001 5.146104e-001 5.000000e-002
      endloop
   endfacet
   facet normal -5.898032e-001 3.878640e-001 -7.083035e-001
      outer loop
         vertex -1.886770e-001 5.146104e-001 5.000000e-002
         vertex -1.253796e-001 5.181679e-001 -2.273737e-011
         vertex -1.453758e-001 4.896104e-001 -2.273737e-011
      endloop
   endfacet
   facet normal -6.308017e-001 3.168525e-001 -7.083034e-001
      outer loop
         vertex -1.886770e-001 5.146104e-001 5.000000e-002
         vertex -1.453758e-001 4.896104e-001 -2.273737e-011
         vertex -2.070938e-001 4.751154e-001 5.000000e-002
      endloop
   endfacet
   facet normal -6.481946e-001 2.795533e-001 -7.083035e-001
      outer loop
         vertex -2.070938e-001 4.751154e-001 5.000000e-002
         vertex -1.453758e-001 4.896104e-001 -2.273737e-011
         vertex -1.601092e-001 4.580144e-001 -2.273737e-011
      endloop
   endfacet
   facet normal -6.762393e-001 2.025012e-001 -7.083035e-001
      outer loop
         vertex -2.070938e-001 4.751154e-001 5.000000e-002
         vertex -1.601092e-001 4.580144e-001 -2.273737e-011
         vertex -2.183726e-001 4.330224e-001 5.000000e-002
      endloop
   endfacet
   facet normal -6.868910e-001 1.627484e-001 -7.083035e-001
      outer loop
         vertex -2.183726e-001 4.330224e-001 5.000000e-002
         vertex -1.601092e-001 4.580144e-001 -2.273737e-011
         vertex -1.691322e-001 4.243400e-001 -2.273737e-011
      endloop
   endfacet
   facet normal -7.011296e-001 8.199707e-002 -7.083035e-001
      outer loop
         vertex -2.183726e-001 4.330224e-001 5.000000e-002
         vertex -1.691322e-001 4.243400e-001 -2.273737e-011
         vertex -2.221707e-001 3.896104e-001 5.000000e-002
      endloop
   endfacet
   facet normal -7.047165e-001 4.099853e-002 -7.083034e-001
      outer loop
         vertex -2.221707e-001 3.896104e-001 5.000000e-002
         vertex -1.691322e-001 4.243400e-001 -2.273737e-011
         vertex -1.721707e-001 3.896104e-001 -2.273737e-011
      endloop
   endfacet
   facet normal -7.047165e-001 -4.099853e-002 -7.083034e-001
      outer loop
         vertex -2.221707e-001 3.896104e-001 5.000000e-002
         vertex -1.721707e-001 3.896104e-001 -2.273737e-011
         vertex -2.183726e-001 3.461984e-001 5.000000e-002
      endloop
   endfacet
   facet normal -7.011296e-001 -8.199707e-002 -7.083035e-001
      outer loop
         vertex -2.183726e-001 3.461984e-001 5.000000e-002
         vertex -1.721707e-001 3.896104e-001 -2.273737e-011
         vertex -1.691322e-001 3.548808e-001 -2.273737e-011
      endloop
   endfacet
   facet normal -6.868910e-001 -1.627484e-001 -7.083035e-001
      outer loop
         vertex -2.183726e-001 3.461984e-001 5.000000e-002
         vertex -1.691322e-001 3.548808e-001 -2.273737e-011
         vertex -2.070938e-001 3.041054e-001 5.000000e-002
      endloop
   endfacet
   facet normal -6.762393e-001 -2.025012e-001 -7.083035e-001
      outer loop
         vertex -2.070938e-001 3.041054e-001 5.000000e-002
         vertex -1.691322e-001 3.548808e-001 -2.273737e-011
         vertex -1.601092e-001 3.212064e-001 -2.273737e-011
      endloop
   endfacet
   facet normal -6.481946e-001 -2.795533e-001 -7.083035e-001
      outer loop
         vertex -2.070938e-001 3.041054e-001 5.000000e-002
         vertex -1.601092e-001 3.212064e-001 -2.273737e-011
         vertex -1.886770e-001 2.646104e-001 5.000000e-002
      endloop
   endfacet
   facet normal -6.308017e-001 -3.168525e-001 -7.083035e-001
      outer loop
         vertex -1.886770e-001 2.646104e-001 5.000000e-002
         vertex -1.601092e-001 3.212064e-001 -2.273737e-011
         vertex -1.453758e-001 2.896104e-001 -2.273737e-011
      endloop
   endfacet
   facet normal -5.898032e-001 -3.878640e-001 -7.083035e-001
      outer loop
         vertex -1.886770e-001 2.646104e-001 5.000000e-002
         vertex -1.453758e-001 2.896104e-001 -2.273737e-011
         vertex -1.636818e-001 2.289135e-001 5.000000e-002
      endloop
   endfacet
   facet normal -5.661975e-001 -4.215763e-001 -7.083034e-001
      outer loop
         vertex -1.636818e-001 2.289135e-001 5.000000e-002
         vertex -1.453758e-001 2.896104e-001 -2.273737e-011
         vertex -1.253796e-001 2.610529e-001 -2.273737e-011
      endloop
   endfacet
   facet normal -5.134909e-001 -4.843898e-001 -7.083035e-001
      outer loop
         vertex -1.636818e-001 2.289135e-001 5.000000e-002
         vertex -1.253796e-001 2.610529e-001 -2.273737e-011
         vertex -1.328676e-001 1.980993e-001 5.000000e-002
      endloop
   endfacet
   facet normal -4.843898e-001 -5.134908e-001 -7.083034e-001
      outer loop
         vertex -1.328676e-001 1.980993e-001 5.000000e-002
         vertex -1.253796e-001 2.610529e-001 -2.273737e-011
         vertex -1.007282e-001 2.364015e-001 -2.273737e-011
      endloop
   endfacet
   facet normal -4.215764e-001 -5.661975e-001 -7.083035e-001
      outer loop
         vertex -1.328676e-001 1.980993e-001 5.000000e-002
         vertex -1.007282e-001 2.364015e-001 -2.273737e-011
         vertex -9.717069e-002 1.731040e-001 5.000000e-002
      endloop
   endfacet
   facet normal -3.878640e-001 -5.898032e-001 -7.083035e-001
      outer loop
         vertex -9.717069e-002 1.731040e-001 5.000000e-002
         vertex -1.007282e-001 2.364015e-001 -2.273737e-011
         vertex -7.217069e-002 2.164053e-001 -2.273737e-011
      endloop
   endfacet
   facet normal -3.168525e-001 -6.308017e-001 -7.083034e-001
      outer loop
         vertex -9.717069e-002 1.731040e-001 5.000000e-002
         vertex -7.217069e-002 2.164053e-001 -2.273737e-011
         vertex -5.767572e-002 1.546872e-001 5.000000e-002
      endloop
   endfacet
   facet normal -2.795533e-001 -6.481946e-001 -7.083035e-001
      outer loop
         vertex -5.767572e-002 1.546872e-001 5.000000e-002
         vertex -7.217069e-002 2.164053e-001 -2.273737e-011
         vertex -4.057471e-002 2.016719e-001 -2.273737e-011
      endloop
   endfacet
   facet normal -2.025012e-001 -6.762393e-001 -7.083035e-001
      outer loop
         vertex -5.767572e-002 1.546872e-001 5.000000e-002
         vertex -4.057471e-002 2.016719e-001 -2.273737e-011
         vertex -1.558273e-002 1.434085e-001 5.000000e-002
      endloop
   endfacet
   facet normal -1.627484e-001 -6.868910e-001 -7.083035e-001
      outer loop
         vertex -1.558273e-002 1.434085e-001 5.000000e-002
         vertex -4.057471e-002 2.016719e-001 -2.273737e-011
         vertex -6.900323e-003 1.926488e-001 -2.273737e-011
      endloop
   endfacet
   facet normal -8.199707e-002 -7.011296e-001 -7.083035e-001
      outer loop
         vertex -1.558273e-002 1.434085e-001 5.000000e-002
         vertex -6.900323e-003 1.926488e-001 -2.273737e-011
         vertex 2.782931e-002 1.396104e-001 5.000000e-002
      endloop
   endfacet
   facet normal -4.099853e-002 -7.047165e-001 -7.083034e-001
      outer loop
         vertex 2.782931e-002 1.396104e-001 5.000000e-002
         vertex -6.900323e-003 1.926488e-001 -2.273737e-011
         vertex 2.782931e-002 1.896104e-001 -2.273737e-011
      endloop
   endfacet
   facet normal 4.099853e-002 -7.047165e-001 -7.083034e-001
      outer loop
         vertex 2.782931e-002 1.396104e-001 5.000000e-002
         vertex 2.782931e-002 1.896104e-001 -2.273737e-011
         vertex 7.124136e-002 1.434085e-001 5.000000e-002
      endloop
   endfacet
   facet normal 8.199707e-002 -7.011296e-001 -7.083035e-001
      outer loop
         vertex 7.124136e-002 1.434085e-001 5.000000e-002
         vertex 2.782931e-002 1.896104e-001 -2.273737e-011
         vertex 6.255895e-002 1.926488e-001 -2.273737e-011
      endloop
   endfacet
   facet normal 1.627484e-001 -6.868910e-001 -7.083035e-001
      outer loop
         vertex 7.124136e-002 1.434085e-001 5.000000e-002
         vertex 6.255895e-002 1.926488e-001 -2.273737e-011
         vertex 1.133343e-001 1.546872e-001 5.000000e-002
      endloop
   endfacet
   facet normal 2.025012e-001 -6.762393e-001 -7.083035e-001
      outer loop
         vertex 1.133343e-001 1.546872e-001 5.000000e-002
         vertex 6.255895e-002 1.926488e-001 -2.273737e-011
         vertex 9.623334e-002 2.016719e-001 -2.273737e-011
      endloop
   endfacet
   facet normal 2.795533e-001 -6.481946e-001 -7.083035e-001
      outer loop
         vertex 1.133343e-001 1.546872e-001 5.000000e-002
         vertex 9.623334e-002 2.016719e-001 -2.273737e-011
         vertex 1.528293e-001 1.731040e-001 5.000000e-002
      endloop
   endfacet
   facet normal 3.168525e-001 -6.308017e-001 -7.083035e-001
      outer loop
         vertex 1.528293e-001 1.731040e-001 5.000000e-002
         vertex 9.623334e-002 2.016719e-001 -2.273737e-011
         vertex 1.278293e-001 2.164053e-001 -2.273737e-011
      endloop
   endfacet
   facet normal 3.878640e-001 -5.898032e-001 -7.083035e-001
      outer loop
         vertex 1.528293e-001 1.731040e-001 5.000000e-002
         vertex 1.278293e-001 2.164053e-001 -2.273737e-011
         vertex 1.885262e-001 1.980993e-001 5.000000e-002
      endloop
   endfacet
   facet normal 4.215763e-001 -5.661975e-001 -7.083034e-001
      outer loop
         vertex 1.885262e-001 1.980993e-001 5.000000e-002
         vertex 1.278293e-001 2.164053e-001 -2.273737e-011
         vertex 1.563868e-001 2.364015e-001 -2.273737e-011
      endloop
   endfacet
   facet normal 4.843898e-001 -5.134909e-001 -7.083035e-001
      outer loop
         vertex 1.885262e-001 1.980993e-001 5.000000e-002
         vertex 1.563868e-001 2.364015e-001 -2.273737e-011
         vertex 2.193404e-001 2.289135e-001 5.000000e-002
      endloop
   endfacet
   facet normal 5.134908e-001 -4.843898e-001 -7.083034e-001
      outer loop
         vertex 2.193404e-001 2.289135e-001 5.000000e-002
         vertex 1.563868e-001 2.364015e-001 -2.273737e-011
         vertex 1.810382e-001 2.610529e-001 -2.273737e-011
      endloop
   endfacet
   facet normal 5.661975e-001 -4.215764e-001 -7.083035e-001
      outer loop
         vertex 2.193404e-001 2.289135e-001 5.000000e-002
         vertex 1.810382e-001 2.610529e-001 -2.273737e-011
         vertex 2.443357e-001 2.646104e-001 5.000000e-002
      endloop
   endfacet
   facet normal 5.898032e-001 -3.878640e-001 -7.083035e-001
      outer loop
         vertex 2.443357e-001 2.646104e-001 5.000000e-002
         vertex 1.810382e-001 2.610529e-001 -2.273737e-011
         vertex 2.010344e-001 2.896104e-001 -2.273737e-011
      endloop
   endfacet
   facet normal 6.308017e-001 -3.168525e-001 -7.083034e-001
      outer loop
         vertex 2.443357e-001 2.646104e-001 5.000000e-002
         vertex 2.010344e-001 2.896104e-001 -2.273737e-011
         vertex 2.627525e-001 3.041054e-001 5.000000e-002
      endloop
   endfacet
   facet normal 6.481946e-001 -2.795533e-001 -7.083035e-001
      outer loop
         vertex 2.627525e-001 3.041054e-001 5.000000e-002
         vertex 2.010344e-001 2.896104e-001 -2.273737e-011
         vertex 2.157678e-001 3.212064e-001 -2.273737e-011
      endloop
   endfacet
   facet normal 6.762393e-001 -2.025012e-001 -7.083035e-001
      outer loop
         vertex 2.627525e-001 3.041054e-001 5.000000e-002
         vertex 2.157678e-001 3.212064e-001 -2.273737e-011
         vertex 2.740313e-001 3.461984e-001 5.000000e-002
      endloop
   endfacet
   facet normal 6.868910e-001 -1.627484e-001 -7.083035e-001
      outer loop
         vertex 2.740313e-001 3.461984e-001 5.000000e-002
         vertex 2.157678e-001 3.212064e-001 -2.273737e-011
         vertex 2.247909e-001 3.548808e-001 -2.273737e-011
      endloop
   endfacet
   facet normal 7.011296e-001 -8.199707e-002 -7.083035e-001
      outer loop
         vertex 2.740313e-001 3.461984e-001 5.000000e-002
         vertex 2.247909e-001 3.548808e-001 -2.273737e-011
         vertex 2.778293e-001 3.896104e-001 5.000000e-002
      endloop
   endfacet
   facet normal 7.047165e-001 -4.099853e-002 -7.083034e-001
      outer loop
         vertex 2.778293e-001 3.896104e-001 5.000000e-002
         vertex 2.247909e-001 3.548808e-001 -2.273737e-011
         vertex 2.278293e-001 3.896104e-001 -2.273737e-011
      endloop
   endfacet
   facet normal 7.047165e-001 4.099853e-002 -7.083034e-001
      outer loop
         vertex 2.778293e-001 3.896104e-001 5.000000e-002
         vertex 2.278293e-001 3.896104e-001 -2.273737e-011
         vertex 2.740313e-001 4.330224e-001 5.000000e-002
      endloop
   endfacet
   facet normal 7.011296e-001 8.199707e-002 -7.083035e-001
      outer loop
         vertex 2.740313e-001 4.330224e-001 5.000000e-002
         vertex 2.278293e-001 3.896104e-001 -2.273737e-011
         vertex 2.247909e-001 4.243400e-001 -2.273737e-011
      endloop
   endfacet
   facet normal -6.868910e-001 1.627484e-001 7.083035e-001
      outer loop
         vertex -2.183726e-001 4.330224e-001 3.540000e+000
         vertex -1.691322e-001 4.243400e-001 3.590000e+000
         vertex -2.070938e-001 4.751154e-001 3.540000e+000
      endloop
   endfacet
   facet normal -6.762393e-001 2.025012e-001 7.083035e-001
      outer loop
         vertex -2.070938e-001 4.751154e-001 3.540000e+000
         vertex -1.691322e-001 4.243400e-001 3.590000e+000
         vertex -1.601092e-001 4.580144e-001 3.590000e+000
      endloop
   endfacet
   facet normal -6.481946e-001 2.795533e-001 7.083035e-001
      outer loop
         vertex -2.070938e-001 4.751154e-001 3.540000e+000
         vertex -1.601092e-001 4.580144e-001 3.590000e+000
         vertex -1.886770e-001 5.146104e-001 3.540000e+000
      endloop
   endfacet
   facet normal -6.308017e-001 3.168525e-001 7.083035e-001
      outer loop
         vertex -1.886770e-001 5.146104e-001 3.540000e+000
         vertex -1.601092e-001 4.580144e-001 3.590000e+000
         vertex -1.453758e-001 4.896104e-001 3.590000e+000
      endloop
   endfacet
   facet normal -5.898032e-001 3.878640e-001 7.083035e-001
      outer loop
         vertex -1.886770e-001 5.146104e-001 3.540000e+000
         vertex -1.453758e-001 4.896104e-001 3.590000e+000
         vertex -1.636818e-001 5.503073e-001 3.540000e+000
      endloop
   endfacet
   facet normal -5.661975e-001 4.215763e-001 7.083034e-001
      outer loop
         vertex -1.636818e-001 5.503073e-001 3.540000e+000
         vertex -1.453758e-001 4.896104e-001 3.590000e+000
         vertex -1.253796e-001 5.181679e-001 3.590000e+000
      endloop
   endfacet
   facet normal -5.134909e-001 4.843898e-001 7.083035e-001
      outer loop
         vertex -1.636818e-001 5.503073e-001 3.540000e+000
         vertex -1.253796e-001 5.181679e-001 3.590000e+000
         vertex -1.328676e-001 5.811215e-001 3.540000e+000
      endloop
   endfacet
   facet normal -4.843898e-001 5.134908e-001 7.083034e-001
      outer loop
         vertex -1.328676e-001 5.811215e-001 3.540000e+000
         vertex -1.253796e-001 5.181679e-001 3.590000e+000
         vertex -1.007282e-001 5.428193e-001 3.590000e+000
      endloop
   endfacet
   facet normal -4.215764e-001 5.661975e-001 7.083035e-001
      outer loop
         vertex -1.328676e-001 5.811215e-001 3.540000e+000
         vertex -1.007282e-001 5.428193e-001 3.590000e+000
         vertex -9.717069e-002 6.061168e-001 3.540000e+000
      endloop
   endfacet
   facet normal -3.878640e-001 5.898032e-001 7.083035e-001
      outer loop
         vertex -9.717069e-002 6.061168e-001 3.540000e+000
         vertex -1.007282e-001 5.428193e-001 3.590000e+000
         vertex -7.217069e-002 5.628155e-001 3.590000e+000
      endloop
   endfacet
   facet normal -3.168525e-001 6.308017e-001 7.083034e-001
      outer loop
         vertex -9.717069e-002 6.061168e-001 3.540000e+000
         vertex -7.217069e-002 5.628155e-001 3.590000e+000
         vertex -5.767572e-002 6.245335e-001 3.540000e+000
      endloop
   endfacet
   facet normal -2.795533e-001 6.481946e-001 7.083035e-001
      outer loop
         vertex -5.767572e-002 6.245335e-001 3.540000e+000
         vertex -7.217069e-002 5.628155e-001 3.590000e+000
         vertex -4.057471e-002 5.775489e-001 3.590000e+000
      endloop
   endfacet
   facet normal -2.025012e-001 6.762393e-001 7.083035e-001
      outer loop
         vertex -5.767572e-002 6.245335e-001 3.540000e+000
         vertex -4.057471e-002 5.775489e-001 3.590000e+000
         vertex -1.558273e-002 6.358123e-001 3.540000e+000
      endloop
   endfacet
   facet normal -1.627484e-001 6.868910e-001 7.083035e-001
      outer loop
         vertex -1.558273e-002 6.358123e-001 3.540000e+000
         vertex -4.057471e-002 5.775489e-001 3.590000e+000
         vertex -6.900323e-003 5.865720e-001 3.590000e+000
      endloop
   endfacet
   facet normal -8.199707e-002 7.011296e-001 7.083035e-001
      outer loop
         vertex -1.558273e-002 6.358123e-001 3.540000e+000
         vertex -6.900323e-003 5.865720e-001 3.590000e+000
         vertex 2.782931e-002 6.396104e-001 3.540000e+000
      endloop
   endfacet
   facet normal -4.099853e-002 7.047165e-001 7.083034e-001
      outer loop
         vertex 2.782931e-002 6.396104e-001 3.540000e+000
         vertex -6.900323e-003 5.865720e-001 3.590000e+000
         vertex 2.782931e-002 5.896104e-001 3.590000e+000
      endloop
   endfacet
   facet normal 4.099853e-002 7.047165e-001 7.083034e-001
      outer loop
         vertex 2.782931e-002 6.396104e-001 3.540000e+000
         vertex 2.782931e-002 5.896104e-001 3.590000e+000
         vertex 7.124136e-002 6.358123e-001 3.540000e+000
      endloop
   endfacet
   facet normal 8.199707e-002 7.011296e-001 7.083035e-001
      outer loop
         vertex 7.124136e-002 6.358123e-001 3.540000e+000
         vertex 2.782931e-002 5.896104e-001 3.590000e+000
         vertex 6.255895e-002 5.865720e-001 3.590000e+000
      endloop
   endfacet
   facet normal 1.627484e-001 6.868910e-001 7.083035e-001
      outer loop
         vertex 7.124136e-002 6.358123e-001 3.540000e+000
         vertex 6.255895e-002 5.865720e-001 3.590000e+000
         vertex 1.133343e-001 6.245335e-001 3.540000e+000
      endloop
   endfacet
   facet normal 2.025012e-001 6.762393e-001 7.083035e-001
      outer loop
         vertex 1.133343e-001 6.245335e-001 3.540000e+000
         vertex 6.255895e-002 5.865720e-001 3.590000e+000
         vertex 9.623334e-002 5.775489e-001 3.590000e+000
      endloop
   endfacet
   facet normal 2.795533e-001 6.481946e-001 7.083035e-001
      outer loop
         vertex 1.133343e-001 6.245335e-001 3.540000e+000
         vertex 9.623334e-002 5.775489e-001 3.590000e+000
         vertex 1.528293e-001 6.061168e-001 3.540000e+000
      endloop
   endfacet
   facet normal 3.168525e-001 6.308017e-001 7.083035e-001
      outer loop
         vertex 1.528293e-001 6.061168e-001 3.540000e+000
         vertex 9.623334e-002 5.775489e-001 3.590000e+000
         vertex 1.278293e-001 5.628155e-001 3.590000e+000
      endloop
   endfacet
   facet normal 3.878640e-001 5.898032e-001 7.083035e-001
      outer loop
         vertex 1.528293e-001 6.061168e-001 3.540000e+000
         vertex 1.278293e-001 5.628155e-001 3.590000e+000
         vertex 1.885262e-001 5.811215e-001 3.540000e+000
      endloop
   endfacet
   facet normal 4.215763e-001 5.661975e-001 7.083034e-001
      outer loop
         vertex 1.885262e-001 5.811215e-001 3.540000e+000
         vertex 1.278293e-001 5.628155e-001 3.590000e+000
         vertex 1.563868e-001 5.428193e-001 3.590000e+000
      endloop
   endfacet
   facet normal 4.843898e-001 5.134909e-001 7.083035e-001
      outer loop
         vertex 1.885262e-001 5.811215e-001 3.540000e+000
         vertex 1.563868e-001 5.428193e-001 3.590000e+000
         vertex 2.193404e-001 5.503073e-001 3.540000e+000
      endloop
   endfacet
   facet normal 5.134908e-001 4.843898e-001 7.083034e-001
      outer loop
         vertex 2.193404e-001 5.503073e-001 3.540000e+000
         vertex 1.563868e-001 5.428193e-001 3.590000e+000
         vertex 1.810382e-001 5.181679e-001 3.590000e+000
      endloop
   endfacet
   facet normal 5.661975e-001 4.215764e-001 7.083035e-001
      outer loop
         vertex 2.193404e-001 5.503073e-001 3.540000e+000
         vertex 1.810382e-001 5.181679e-001 3.590000e+000
         vertex 2.443357e-001 5.146104e-001 3.540000e+000
      endloop
   endfacet
   facet normal 5.898032e-001 3.878640e-001 7.083035e-001
      outer loop
         vertex 2.443357e-001 5.146104e-001 3.540000e+000
         vertex 1.810382e-001 5.181679e-001 3.590000e+000
         vertex 2.010344e-001 4.896104e-001 3.590000e+000
      endloop
   endfacet
   facet normal 6.308017e-001 3.168525e-001 7.083034e-001
      outer loop
         vertex 2.443357e-001 5.146104e-001 3.540000e+000
         vertex 2.010344e-001 4.896104e-001 3.590000e+000
         vertex 2.627525e-001 4.751154e-001 3.540000e+000
      endloop
   endfacet
   facet normal 6.481946e-001 2.795533e-001 7.083035e-001
      outer loop
         vertex 2.627525e-001 4.751154e-001 3.540000e+000
         vertex 2.010344e-001 4.896104e-001 3.590000e+000
         vertex 2.157678e-001 4.580144e-001 3.590000e+000
      endloop
   endfacet
   facet normal 6.762393e-001 2.025012e-001 7.083035e-001
      outer loop
         vertex 2.627525e-001 4.751154e-001 3.540000e+000
         vertex 2.157678e-001 4.580144e-001 3.590000e+000
         vertex 2.740313e-001 4.330224e-001 3.540000e+000
      endloop
   endfacet
   facet normal 6.868910e-001 1.627484e-001 7.083035e-001
      outer loop
         vertex 2.740313e-001 4.330224e-001 3.540000e+000
         vertex 2.157678e-001 4.580144e-001 3.590000e+000
         vertex 2.247909e-001 4.243400e-001 3.590000e+000
      endloop
   endfacet
   facet normal 7.011296e-001 8.199707e-002 7.083035e-001
      outer loop
         vertex 2.740313e-001 4.330224e-001 3.540000e+000
         vertex 2.247909e-001 4.243400e-001 3.590000e+000
         vertex 2.778293e-001 3.896104e-001 3.540000e+000
      endloop
   endfacet
   facet normal 7.047165e-001 4.099853e-002 7.083034e-001
      outer loop
         vertex 2.778293e-001 3.896104e-001 3.540000e+000
         vertex 2.247909e-001 4.243400e-001 3.590000e+000
         vertex 2.278293e-001 3.896104e-001 3.590000e+000
      endloop
   endfacet
   facet normal 7.047165e-001 -4.099853e-002 7.083034e-001
      outer loop
         vertex 2.778293e-001 3.896104e-001 3.540000e+000
         vertex 2.278293e-001 3.896104e-001 3.590000e+000
         vertex 2.740313e-001 3.461984e-001 3.540000e+000
      endloop
   endfacet
   facet normal 7.011296e-001 -8.199707e-002 7.083035e-001
      outer loop
         vertex 2.740313e-001 3.461984e-001 3.540000e+000
         vertex 2.278293e-001 3.896104e-001 3.590000e+000
         vertex 2.247909e-001 3.548808e-001 3.590000e+000
      endloop
   endfacet
   facet normal 6.868910e-001 -1.627484e-001 7.083035e-001
      outer loop
         vertex 2.740313e-001 3.461984e-001 3.540000e+000
         vertex 2.247909e-001 3.548808e-001 3.590000e+000
         vertex 2.627525e-001 3.041054e-001 3.540000e+000
      endloop
   endfacet
   facet normal 6.762393e-001 -2.025012e-001 7.083035e-001
      outer loop
         vertex 2.627525e-001 3.041054e-001 3.540000e+000
         vertex 2.247909e-001 3.548808e-001 3.590000e+000
         vertex 2.157678e-001 3.212064e-001 3.590000e+000
      endloop
   endfacet
   facet normal 6.481946e-001 -2.795533e-001 7.083035e-001
      outer loop
         vertex 2.627525e-001 3.041054e-001 3.540000e+000
         vertex 2.157678e-001 3.212064e-001 3.590000e+000
         vertex 2.443357e-001 2.646104e-001 3.540000e+000
      endloop
   endfacet
   facet normal 6.308017e-001 -3.168525e-001 7.083035e-001
      outer loop
         vertex 2.443357e-001 2.646104e-001 3.540000e+000
         vertex 2.157678e-001 3.212064e-001 3.590000e+000
         vertex 2.010344e-001 2.896104e-001 3.590000e+000
      endloop
   endfacet
   facet normal 5.898032e-001 -3.878640e-001 7.083035e-001
      outer loop
         vertex 2.443357e-001 2.646104e-001 3.540000e+000
         vertex 2.010344e-001 2.896104e-001 3.590000e+000
         vertex 2.193404e-001 2.289135e-001 3.540000e+000
      endloop
   endfacet
   facet normal 5.661975e-001 -4.215763e-001 7.083034e-001
      outer loop
         vertex 2.193404e-001 2.289135e-001 3.540000e+000
         vertex 2.010344e-001 2.896104e-001 3.590000e+000
         vertex 1.810382e-001 2.610529e-001 3.590000e+000
      endloop
   endfacet
   facet normal 5.134909e-001 -4.843898e-001 7.083035e-001
      outer loop
         vertex 2.193404e-001 2.289135e-001 3.540000e+000
         vertex 1.810382e-001 2.610529e-001 3.590000e+000
         vertex 1.885262e-001 1.980993e-001 3.540000e+000
      endloop
   endfacet
   facet normal 4.843898e-001 -5.134908e-001 7.083034e-001
      outer loop
         vertex 1.885262e-001 1.980993e-001 3.540000e+000
         vertex 1.810382e-001 2.610529e-001 3.590000e+000
         vertex 1.563868e-001 2.364015e-001 3.590000e+000
      endloop
   endfacet
   facet normal 4.215764e-001 -5.661975e-001 7.083035e-001
      outer loop
         vertex 1.885262e-001 1.980993e-001 3.540000e+000
         vertex 1.563868e-001 2.364015e-001 3.590000e+000
         vertex 1.528293e-001 1.731040e-001 3.540000e+000
      endloop
   endfacet
   facet normal 3.878640e-001 -5.898032e-001 7.083035e-001
      outer loop
         vertex 1.528293e-001 1.731040e-001 3.540000e+000
         vertex 1.563868e-001 2.364015e-001 3.590000e+000
         vertex 1.278293e-001 2.164053e-001 3.590000e+000
      endloop
   endfacet
   facet normal 3.168525e-001 -6.308017e-001 7.083034e-001
      outer loop
         vertex 1.528293e-001 1.731040e-001 3.540000e+000
         vertex 1.278293e-001 2.164053e-001 3.590000e+000
         vertex 1.133343e-001 1.546872e-001 3.540000e+000
      endloop
   endfacet
   facet normal 2.795533e-001 -6.481946e-001 7.083035e-001
      outer loop
         vertex 1.133343e-001 1.546872e-001 3.540000e+000
         vertex 1.278293e-001 2.164053e-001 3.590000e+000
         vertex 9.623334e-002 2.016719e-001 3.590000e+000
      endloop
   endfacet
   facet normal 2.025012e-001 -6.762393e-001 7.083035e-001
      outer loop
         vertex 1.133343e-001 1.546872e-001 3.540000e+000
         vertex 9.623334e-002 2.016719e-001 3.590000e+000
         vertex 7.124136e-002 1.434085e-001 3.540000e+000
      endloop
   endfacet
   facet normal 1.627484e-001 -6.868910e-001 7.083035e-001
      outer loop
         vertex 7.124136e-002 1.434085e-001 3.540000e+000
         vertex 9.623334e-002 2.016719e-001 3.590000e+000
         vertex 6.255895e-002 1.926488e-001 3.590000e+000
      endloop
   endfacet
   facet normal 8.199707e-002 -7.011296e-001 7.083035e-001
      outer loop
         vertex 7.124136e-002 1.434085e-001 3.540000e+000
         vertex 6.255895e-002 1.926488e-001 3.590000e+000
         vertex 2.782931e-002 1.396104e-001 3.540000e+000
      endloop
   endfacet
   facet normal 4.099853e-002 -7.047165e-001 7.083034e-001
      outer loop
         vertex 2.782931e-002 1.396104e-001 3.540000e+000
         vertex 6.255895e-002 1.926488e-001 3.590000e+000
         vertex 2.782931e-002 1.896104e-001 3.590000e+000
      endloop
   endfacet
   facet normal -4.099853e-002 -7.047165e-001 7.083034e-001
      outer loop
         vertex 2.782931e-002 1.396104e-001 3.540000e+000
         vertex 2.782931e-002 1.896104e-001 3.590000e+000
         vertex -1.558273e-002 1.434085e-001 3.540000e+000
      endloop
   endfacet
   facet normal -8.199707e-002 -7.011296e-001 7.083035e-001
      outer loop
         vertex -1.558273e-002 1.434085e-001 3.540000e+000
         vertex 2.782931e-002 1.896104e-001 3.590000e+000
         vertex -6.900323e-003 1.926488e-001 3.590000e+000
      endloop
   endfacet
   facet normal -1.627484e-001 -6.868910e-001 7.083035e-001
      outer loop
         vertex -1.558273e-002 1.434085e-001 3.540000e+000
         vertex -6.900323e-003 1.926488e-001 3.590000e+000
         vertex -5.767572e-002 1.546872e-001 3.540000e+000
      endloop
   endfacet
   facet normal -2.025012e-001 -6.762393e-001 7.083035e-001
      outer loop
         vertex -5.767572e-002 1.546872e-001 3.540000e+000
         vertex -6.900323e-003 1.926488e-001 3.590000e+000
         vertex -4.057471e-002 2.016719e-001 3.590000e+000
      endloop
   endfacet
   facet normal -2.795533e-001 -6.481946e-001 7.083035e-001
      outer loop
         vertex -5.767572e-002 1.546872e-001 3.540000e+000
         vertex -4.057471e-002 2.016719e-001 3.590000e+000
         vertex -9.717069e-002 1.731040e-001 3.540000e+000
      endloop
   endfacet
   facet normal -3.168525e-001 -6.308017e-001 7.083035e-001
      outer loop
         vertex -9.717069e-002 1.731040e-001 3.540000e+000
         vertex -4.057471e-002 2.016719e-001 3.590000e+000
         vertex -7.217069e-002 2.164053e-001 3.590000e+000
      endloop
   endfacet
   facet normal -3.878640e-001 -5.898032e-001 7.083035e-001
      outer loop
         vertex -9.717069e-002 1.731040e-001 3.540000e+000
         vertex -7.217069e-002 2.164053e-001 3.590000e+000
         vertex -1.328676e-001 1.980993e-001 3.540000e+000
      endloop
   endfacet
   facet normal -4.215763e-001 -5.661975e-001 7.083034e-001
      outer loop
         vertex -1.328676e-001 1.980993e-001 3.540000e+000
         vertex -7.217069e-002 2.164053e-001 3.590000e+000
         vertex -1.007282e-001 2.364015e-001 3.590000e+000
      endloop
   endfacet
   facet normal -4.843898e-001 -5.134909e-001 7.083035e-001
      outer loop
         vertex -1.328676e-001 1.980993e-001 3.540000e+000
         vertex -1.007282e-001 2.364015e-001 3.590000e+000
         vertex -1.636818e-001 2.289135e-001 3.540000e+000
      endloop
   endfacet
   facet normal -5.134908e-001 -4.843898e-001 7.083034e-001
      outer loop
         vertex -1.636818e-001 2.289135e-001 3.540000e+000
         vertex -1.007282e-001 2.364015e-001 3.590000e+000
         vertex -1.253796e-001 2.610529e-001 3.590000e+000
      endloop
   endfacet
   facet normal -5.661975e-001 -4.215764e-001 7.083035e-001
      outer loop
         vertex -1.636818e-001 2.289135e-001 3.540000e+000
         vertex -1.253796e-001 2.610529e-001 3.590000e+000
         vertex -1.886770e-001 2.646104e-001 3.540000e+000
      endloop
   endfacet
   facet normal -5.898032e-001 -3.878640e-001 7.083035e-001
      outer loop
         vertex -1.886770e-001 2.646104e-001 3.540000e+000
         vertex -1.253796e-001 2.610529e-001 3.590000e+000
         vertex -1.453758e-001 2.896104e-001 3.590000e+000
      endloop
   endfacet
   facet normal -6.308017e-001 -3.168525e-001 7.083034e-001
      outer loop
         vertex -1.886770e-001 2.646104e-001 3.540000e+000
         vertex -1.453758e-001 2.896104e-001 3.590000e+000
         vertex -2.070938e-001 3.041054e-001 3.540000e+000
      endloop
   endfacet
   facet normal -6.481946e-001 -2.795533e-001 7.083035e-001
      outer loop
         vertex -2.070938e-001 3.041054e-001 3.540000e+000
         vertex -1.453758e-001 2.896104e-001 3.590000e+000
         vertex -1.601092e-001 3.212064e-001 3.590000e+000
      endloop
   endfacet
   facet normal -6.762393e-001 -2.025012e-001 7.083035e-001
      outer loop
         vertex -2.070938e-001 3.041054e-001 3.540000e+000
         vertex -1.601092e-001 3.212064e-001 3.590000e+000
         vertex -2.183726e-001 3.461984e-001 3.540000e+000
      endloop
   endfacet
   facet normal -6.868910e-001 -1.627484e-001 7.083035e-001
      outer loop
         vertex -2.183726e-001 3.461984e-001 3.540000e+000
         vertex -1.601092e-001 3.212064e-001 3.590000e+000
         vertex -1.691322e-001 3.548808e-001 3.590000e+000
      endloop
   endfacet
   facet normal -7.011296e-001 -8.199707e-002 7.083035e-001
      outer loop
         vertex -2.183726e-001 3.461984e-001 3.540000e+000
         vertex -1.691322e-001 3.548808e-001 3.590000e+000
         vertex -2.221707e-001 3.896104e-001 3.540000e+000
      endloop
   endfacet
   facet normal -7.047165e-001 -4.099853e-002 7.083034e-001
      outer loop
         vertex -2.221707e-001 3.896104e-001 3.540000e+000
         vertex -1.691322e-001 3.548808e-001 3.590000e+000
         vertex -1.721707e-001 3.896104e-001 3.590000e+000
      endloop
   endfacet
   facet normal -7.047165e-001 4.099853e-002 7.083034e-001
      outer loop
         vertex -2.221707e-001 3.896104e-001 3.540000e+000
         vertex -1.721707e-001 3.896104e-001 3.590000e+000
         vertex -2.183726e-001 4.330224e-001 3.540000e+000
      endloop
   endfacet
   facet normal -7.011296e-001 8.199707e-002 7.083035e-001
      outer loop
         vertex -2.183726e-001 4.330224e-001 3.540000e+000
         vertex -1.721707e-001 3.896104e-001 3.590000e+000
         vertex -1.691322e-001 4.243400e-001 3.590000e+000
      endloop
   endfacet
   facet normal 9.983119e-001 5.807913e-002 0.000000e+000
      outer loop
         vertex 2.740313e-001 4.330224e-001 5.000000e-002
         vertex 2.778293e-001 3.896104e-001 3.540000e+000
         vertex 2.778293e-001 3.896104e-001 5.000000e-002
      endloop
   endfacet
   facet normal 9.983119e-001 -5.807913e-002 0.000000e+000
      outer loop
         vertex 2.778293e-001 3.896104e-001 5.000000e-002
         vertex 2.778293e-001 3.896104e-001 3.540000e+000
         vertex 2.740313e-001 3.461984e-001 3.540000e+000
      endloop
   endfacet
   facet normal 9.932307e-001 -1.161583e-001 0.000000e+000
      outer loop
         vertex 2.778293e-001 3.896104e-001 5.000000e-002
         vertex 2.740313e-001 3.461984e-001 3.540000e+000
         vertex 2.740313e-001 3.461984e-001 5.000000e-002
      endloop
   endfacet
   facet normal 9.730600e-001 -2.305519e-001 0.000000e+000
      outer loop
         vertex 2.740313e-001 3.461984e-001 5.000000e-002
         vertex 2.740313e-001 3.461984e-001 3.540000e+000
         vertex 2.627525e-001 3.041054e-001 3.540000e+000
      endloop
   endfacet
   facet normal 9.579706e-001 -2.868663e-001 0.000000e+000
      outer loop
         vertex 2.740313e-001 3.461984e-001 5.000000e-002
         vertex 2.627525e-001 3.041054e-001 3.540000e+000
         vertex 2.627525e-001 3.041054e-001 5.000000e-002
      endloop
   endfacet
   facet normal 9.182422e-001 -3.960194e-001 0.000000e+000
      outer loop
         vertex 2.627525e-001 3.041054e-001 5.000000e-002
         vertex 2.627525e-001 3.041054e-001 3.540000e+000
         vertex 2.443357e-001 2.646104e-001 3.540000e+000
      endloop
   endfacet
   facet normal 8.936031e-001 -4.488580e-001 0.000000e+000
      outer loop
         vertex 2.627525e-001 3.041054e-001 5.000000e-002
         vertex 2.443357e-001 2.646104e-001 3.540000e+000
         vertex 2.443357e-001 2.646104e-001 5.000000e-002
      endloop
   endfacet
   facet normal 8.355240e-001 -5.494540e-001 0.000000e+000
      outer loop
         vertex 2.443357e-001 2.646104e-001 5.000000e-002
         vertex 2.443357e-001 2.646104e-001 3.540000e+000
         vertex 2.193404e-001 2.289135e-001 3.540000e+000
      endloop
   endfacet
   facet normal 8.020838e-001 -5.972114e-001 0.000000e+000
      outer loop
         vertex 2.443357e-001 2.646104e-001 5.000000e-002
         vertex 2.193404e-001 2.289135e-001 3.540000e+000
         vertex 2.193404e-001 2.289135e-001 5.000000e-002
      endloop
   endfacet
   facet normal 7.274188e-001 -6.861938e-001 0.000000e+000
      outer loop
         vertex 2.193404e-001 2.289135e-001 5.000000e-002
         vertex 2.193404e-001 2.289135e-001 3.540000e+000
         vertex 1.885262e-001 1.980993e-001 3.540000e+000
      endloop
   endfacet
   facet normal 6.861938e-001 -7.274188e-001 0.000000e+000
      outer loop
         vertex 2.193404e-001 2.289135e-001 5.000000e-002
         vertex 1.885262e-001 1.980993e-001 3.540000e+000
         vertex 1.885262e-001 1.980993e-001 5.000000e-002
      endloop
   endfacet
   facet normal 5.972114e-001 -8.020838e-001 0.000000e+000
      outer loop
         vertex 1.885262e-001 1.980993e-001 5.000000e-002
         vertex 1.885262e-001 1.980993e-001 3.540000e+000
         vertex 1.528293e-001 1.731040e-001 3.540000e+000
      endloop
   endfacet
   facet normal 5.494540e-001 -8.355240e-001 0.000000e+000
      outer loop
         vertex 1.885262e-001 1.980993e-001 5.000000e-002
         vertex 1.528293e-001 1.731040e-001 3.540000e+000
         vertex 1.528293e-001 1.731040e-001 5.000000e-002
      endloop
   endfacet
   facet normal 4.488580e-001 -8.936031e-001 0.000000e+000
      outer loop
         vertex 1.528293e-001 1.731040e-001 5.000000e-002
         vertex 1.528293e-001 1.731040e-001 3.540000e+000
         vertex 1.133343e-001 1.546872e-001 3.540000e+000
      endloop
   endfacet
   facet normal 3.960194e-001 -9.182422e-001 0.000000e+000
      outer loop
         vertex 1.528293e-001 1.731040e-001 5.000000e-002
         vertex 1.133343e-001 1.546872e-001 3.540000e+000
         vertex 1.133343e-001 1.546872e-001 5.000000e-002
      endloop
   endfacet
   facet normal 2.868663e-001 -9.579706e-001 0.000000e+000
      outer loop
         vertex 1.133343e-001 1.546872e-001 5.000000e-002
         vertex 1.133343e-001 1.546872e-001 3.540000e+000
         vertex 7.124136e-002 1.434085e-001 3.540000e+000
      endloop
   endfacet
   facet normal 2.305519e-001 -9.730600e-001 0.000000e+000
      outer loop
         vertex 1.133343e-001 1.546872e-001 5.000000e-002
         vertex 7.124136e-002 1.434085e-001 3.540000e+000
         vertex 7.124136e-002 1.434085e-001 5.000000e-002
      endloop
   endfacet
   facet normal 1.161583e-001 -9.932307e-001 0.000000e+000
      outer loop
         vertex 7.124136e-002 1.434085e-001 5.000000e-002
         vertex 7.124136e-002 1.434085e-001 3.540000e+000
         vertex 2.782931e-002 1.396104e-001 3.540000e+000
      endloop
   endfacet
   facet normal 5.807913e-002 -9.983119e-001 0.000000e+000
      outer loop
         vertex 7.124136e-002 1.434085e-001 5.000000e-002
         vertex 2.782931e-002 1.396104e-001 3.540000e+000
         vertex 2.782931e-002 1.396104e-001 5.000000e-002
      endloop
   endfacet
   facet normal -5.807913e-002 -9.983119e-001 0.000000e+000
      outer loop
         vertex 2.782931e-002 1.396104e-001 5.000000e-002
         vertex 2.782931e-002 1.396104e-001 3.540000e+000
         vertex -1.558273e-002 1.434085e-001 3.540000e+000
      endloop
   endfacet
   facet normal -1.161583e-001 -9.932307e-001 0.000000e+000
      outer loop
         vertex 2.782931e-002 1.396104e-001 5.000000e-002
         vertex -1.558273e-002 1.434085e-001 3.540000e+000
         vertex -1.558273e-002 1.434085e-001 5.000000e-002
      endloop
   endfacet
   facet normal -2.305519e-001 -9.730600e-001 0.000000e+000
      outer loop
         vertex -1.558273e-002 1.434085e-001 5.000000e-002
         vertex -1.558273e-002 1.434085e-001 3.540000e+000
         vertex -5.767572e-002 1.546872e-001 3.540000e+000
      endloop
   endfacet
   facet normal -2.868663e-001 -9.579706e-001 0.000000e+000
      outer loop
         vertex -1.558273e-002 1.434085e-001 5.000000e-002
         vertex -5.767572e-002 1.546872e-001 3.540000e+000
         vertex -5.767572e-002 1.546872e-001 5.000000e-002
      endloop
   endfacet
   facet normal -3.960194e-001 -9.182422e-001 0.000000e+000
      outer loop
         vertex -5.767572e-002 1.546872e-001 5.000000e-002
         vertex -5.767572e-002 1.546872e-001 3.540000e+000
         vertex -9.717069e-002 1.731040e-001 3.540000e+000
      endloop
   endfacet
   facet normal -4.488580e-001 -8.936031e-001 0.000000e+000
      outer loop
         vertex -5.767572e-002 1.546872e-001 5.000000e-002
         vertex -9.717069e-002 1.731040e-001 3.540000e+000
         vertex -9.717069e-002 1.731040e-001 5.000000e-002
      endloop
   endfacet
   facet normal -5.494540e-001 -8.355240e-001 0.000000e+000
      outer loop
         vertex -9.717069e-002 1.731040e-001 5.000000e-002
         vertex -9.717069e-002 1.731040e-001 3.540000e+000
         vertex -1.328676e-001 1.980993e-001 3.540000e+000
      endloop
   endfacet
   facet normal -5.972114e-001 -8.020838e-001 0.000000e+000
      outer loop
         vertex -9.717069e-002 1.731040e-001 5.000000e-002
         vertex -1.328676e-001 1.980993e-001 3.540000e+000
         vertex -1.328676e-001 1.980993e-001 5.000000e-002
      endloop
   endfacet
   facet normal -6.861938e-001 -7.274188e-001 0.000000e+000
      outer loop
         vertex -1.328676e-001 1.980993e-001 5.000000e-002
         vertex -1.328676e-001 1.980993e-001 3.540000e+000
         vertex -1.636818e-001 2.289135e-001 3.540000e+000
      endloop
   endfacet
   facet normal -7.274188e-001 -6.861938e-001 0.000000e+000
      outer loop
         vertex -1.328676e-001 1.980993e-001 5.000000e-002
         vertex -1.636818e-001 2.289135e-001 3.540000e+000
         vertex -1.636818e-001 2.289135e-001 5.000000e-002
      endloop
   endfacet
   facet normal -8.020838e-001 -5.972114e-001 0.000000e+000
      outer loop
         vertex -1.636818e-001 2.289135e-001 5.000000e-002
         vertex -1.636818e-001 2.289135e-001 3.540000e+000
         vertex -1.886770e-001 2.646104e-001 3.540000e+000
      endloop
   endfacet
   facet normal -8.355240e-001 -5.494540e-001 0.000000e+000
      outer loop
         vertex -1.636818e-001 2.289135e-001 5.000000e-002
         vertex -1.886770e-001 2.646104e-001 3.540000e+000
         vertex -1.886770e-001 2.646104e-001 5.000000e-002
      endloop
   endfacet
   facet normal -8.936031e-001 -4.488580e-001 0.000000e+000
      outer loop
         vertex -1.886770e-001 2.646104e-001 5.000000e-002
         vertex -1.886770e-001 2.646104e-001 3.540000e+000
         vertex -2.070938e-001 3.041054e-001 3.540000e+000
      endloop
   endfacet
   facet normal -9.182422e-001 -3.960194e-001 0.000000e+000
      outer loop
         vertex -1.886770e-001 2.646104e-001 5.000000e-002
         vertex -2.070938e-001 3.041054e-001 3.540000e+000
         vertex -2.070938e-001 3.041054e-001 5.000000e-002
      endloop
   endfacet
   facet normal -9.579706e-001 -2.868663e-001 0.000000e+000
      outer loop
         vertex -2.070938e-001 3.041054e-001 5.000000e-002
         vertex -2.070938e-001 3.041054e-001 3.540000e+000
         vertex -2.183726e-001 3.461984e-001 3.540000e+000
      endloop
   endfacet
   facet normal -9.730600e-001 -2.305519e-001 0.000000e+000
      outer loop
         vertex -2.070938e-001 3.041054e-001 5.000000e-002
         vertex -2.183726e-001 3.461984e-001 3.540000e+000
         vertex -2.183726e-001 3.461984e-001 5.000000e-002
      endloop
   endfacet
   facet normal -9.932307e-001 -1.161583e-001 0.000000e+000
      outer loop
         vertex -2.183726e-001 3.461984e-001 5.000000e-002
         vertex -2.183726e-001 3.461984e-001 3.540000e+000
         vertex -2.221707e-001 3.896104e-001 3.540000e+000
      endloop
   endfacet
   facet normal -9.983119e-001 -5.807913e-002 0.000000e+000
      outer loop
         vertex -2.183726e-001 3.461984e-001 5.000000e-002
         vertex -2.221707e-001 3.896104e-001 3.540000e+000
         vertex -2.221707e-001 3.896104e-001 5.000000e-002
      endloop
   endfacet
   facet normal -9.983119e-001 5.807913e-002 0.000000e+000
      outer loop
         vertex -2.221707e-001 3.896104e-001 5.000000e-002
         vertex -2.221707e-001 3.896104e-001 3.540000e+000
         vertex -2.183726e-001 4.330224e-001 3.540000e+000
      endloop
   endfacet
   facet normal -9.932307e-001 1.161583e-001 0.000000e+000
      outer loop
         vertex -2.221707e-001 3.896104e-001 5.000000e-002
         vertex -2.183726e-001 4.330224e-001 3.540000e+000
         vertex -2.183726e-001 4.330224e-001 5.000000e-002
      endloop
   endfacet
   facet normal -9.730600e-001 2.305519e-001 0.000000e+000
      outer loop
         vertex -2.183726e-001 4.330224e-001 5.000000e-002
         vertex -2.183726e-001 4.330224e-001 3.540000e+000
         vertex -2.070938e-001 4.751154e-001 3.540000e+000
      endloop
   endfacet
   facet normal -9.579706e-001 2.868663e-001 0.000000e+000
      outer loop
         vertex -2.183726e-001 4.330224e-001 5.000000e-002
         vertex -2.070938e-001 4.751154e-001 3.540000e+000
         vertex -2.070938e-001 4.751154e-001 5.000000e-002
      endloop
   endfacet
   facet normal -9.182422e-001 3.960194e-001 0.000000e+000
      outer loop
         vertex -2.070938e-001 4.751154e-001 5.000000e-002
         vertex -2.070938e-001 4.751154e-001 3.540000e+000
         vertex -1.886770e-001 5.146104e-001 3.540000e+000
      endloop
   endfacet
   facet normal -8.936031e-001 4.488580e-001 0.000000e+000
      outer loop
         vertex -2.070938e-001 4.751154e-001 5.000000e-002
         vertex -1.886770e-001 5.146104e-001 3.540000e+000
         vertex -1.886770e-001 5.146104e-001 5.000000e-002
      endloop
   endfacet
   facet normal -8.355240e-001 5.494540e-001 0.000000e+000
      outer loop
         vertex -1.886770e-001 5.146104e-001 5.000000e-002
         vertex -1.886770e-001 5.146104e-001 3.540000e+000
         vertex -1.636818e-001 5.503073e-001 3.540000e+000
      endloop
   endfacet
   facet normal -8.020838e-001 5.972114e-001 0.000000e+000
      outer loop
         vertex -1.886770e-001 5.146104e-001 5.000000e-002
         vertex -1.636818e-001 5.503073e-001 3.540000e+000
         vertex -1.636818e-001 5.503073e-001 5.000000e-002
      endloop
   endfacet
   facet normal -7.274188e-001 6.861938e-001 0.000000e+000
      outer loop
         vertex -1.636818e-001 5.503073e-001 5.000000e-002
         vertex -1.636818e-001 5.503073e-001 3.540000e+000
         vertex -1.328676e-001 5.811215e-001 3.540000e+000
      endloop
   endfacet
   facet normal -6.861938e-001 7.274188e-001 0.000000e+000
      outer loop
         vertex -1.636818e-001 5.503073e-001 5.000000e-002
         vertex -1.328676e-001 5.811215e-001 3.540000e+000
         vertex -1.328676e-001 5.811215e-001 5.000000e-002
      endloop
   endfacet
   facet normal -5.972114e-001 8.020838e-001 0.000000e+000
      outer loop
         vertex -1.328676e-001 5.811215e-001 5.000000e-002
         vertex -1.328676e-001 5.811215e-001 3.540000e+000
         vertex -9.717069e-002 6.061168e-001 3.540000e+000
      endloop
   endfacet
   facet normal -5.494540e-001 8.355240e-001 0.000000e+000
      outer loop
         vertex -1.328676e-001 5.811215e-001 5.000000e-002
         vertex -9.717069e-002 6.061168e-001 3.540000e+000
         vertex -9.717069e-002 6.061168e-001 5.000000e-002
      endloop
   endfacet
   facet normal -4.488580e-001 8.936031e-001 0.000000e+000
      outer loop
         vertex -9.717069e-002 6.061168e-001 5.000000e-002
         vertex -9.717069e-002 6.061168e-001 3.540000e+000
         vertex -5.767572e-002 6.245335e-001 3.540000e+000
      endloop
   endfacet
   facet normal -3.960194e-001 9.182422e-001 0.000000e+000
      outer loop
         vertex -9.717069e-002 6.061168e-001 5.000000e-002
         vertex -5.767572e-002 6.245335e-001 3.540000e+000
         vertex -5.767572e-002 6.245335e-001 5.000000e-002
      endloop
   endfacet
   facet normal -2.868663e-001 9.579706e-001 0.000000e+000
      outer loop
         vertex -5.767572e-002 6.245335e-001 5.000000e-002
         vertex -5.767572e-002 6.245335e-001 3.540000e+000
         vertex -1.558273e-002 6.358123e-001 3.540000e+000
      endloop
   endfacet
   facet normal -2.305519e-001 9.730600e-001 0.000000e+000
      outer loop
         vertex -5.767572e-002 6.245335e-001 5.000000e-002
         vertex -1.558273e-002 6.358123e-001 3.540000e+000
         vertex -1.558273e-002 6.358123e-001 5.000000e-002
      endloop
   endfacet
   facet normal -1.161583e-001 9.932307e-001 0.000000e+000
      outer loop
         vertex -1.558273e-002 6.358123e-001 5.000000e-002
         vertex -1.558273e-002 6.358123e-001 3.540000e+000
         vertex 2.782931e-002 6.396104e-001 3.540000e+000
      endloop
   endfacet
   facet normal -5.807913e-002 9.983119e-001 0.000000e+000
      outer loop
         vertex -1.558273e-002 6.358123e-001 5.000000e-002
         vertex 2.782931e-002 6.396104e-001 3.540000e+000
         vertex 2.782931e-002 6.396104e-001 5.000000e-002
      endloop
   endfacet
   facet normal 5.807913e-002 9.983119e-001 0.000000e+000
      outer loop
         vertex 2.782931e-002 6.396104e-001 5.000000e-002
         vertex 2.782931e-002 6.396104e-001 3.540000e+000
         vertex 7.124136e-002 6.358123e-001 3.540000e+000
      endloop
   endfacet
   facet normal 1.161583e-001 9.932307e-001 0.000000e+000
      outer loop
         vertex 2.782931e-002 6.396104e-001 5.000000e-002
         vertex 7.124136e-002 6.358123e-001 3.540000e+000
         vertex 7.124136e-002 6.358123e-001 5.000000e-002
      endloop
   endfacet
   facet normal 2.305519e-001 9.730600e-001 0.000000e+000
      outer loop
         vertex 7.124136e-002 6.358123e-001 5.000000e-002
         vertex 7.124136e-002 6.358123e-001 3.540000e+000
         vertex 1.133343e-001 6.245335e-001 3.540000e+000
      endloop
   endfacet
   facet normal 2.868663e-001 9.579706e-001 0.000000e+000
      outer loop
         vertex 7.124136e-002 6.358123e-001 5.000000e-002
         vertex 1.133343e-001 6.245335e-001 3.540000e+000
         vertex 1.133343e-001 6.245335e-001 5.000000e-002
      endloop
   endfacet
   facet normal 3.960194e-001 9.182422e-001 0.000000e+000
      outer loop
         vertex 1.133343e-001 6.245335e-001 5.000000e-002
         vertex 1.133343e-001 6.245335e-001 3.540000e+000
         vertex 1.528293e-001 6.061168e-001 3.540000e+000
      endloop
   endfacet
   facet normal 4.488580e-001 8.936031e-001 0.000000e+000
      outer loop
         vertex 1.133343e-001 6.245335e-001 5.000000e-002
         vertex 1.528293e-001 6.061168e-001 3.540000e+000
         vertex 1.528293e-001 6.061168e-001 5.000000e-002
      endloop
   endfacet
   facet normal 5.494540e-001 8.355240e-001 0.000000e+000
      outer loop
         vertex 1.528293e-001 6.061168e-001 5.000000e-002
         vertex 1.528293e-001 6.061168e-001 3.540000e+000
         vertex 1.885262e-001 5.811215e-001 3.540000e+000
      endloop
   endfacet
   facet normal 5.972114e-001 8.020838e-001 0.000000e+000
      outer loop
         vertex 1.528293e-001 6.061168e-001 5.000000e-002
         vertex 1.885262e-001 5.811215e-001 3.540000e+000
         vertex 1.885262e-001 5.811215e-001 5.000000e-002
      endloop
   endfacet
   facet normal 6.861938e-001 7.274188e-001 0.000000e+000
      outer loop
         vertex 1.885262e-001 5.811215e-001 5.000000e-002
         vertex 1.885262e-001 5.811215e-001 3.540000e+000
         vertex 2.193404e-001 5.503073e-001 3.540000e+000
      endloop
   endfacet
   facet normal 7.274188e-001 6.861938e-001 0.000000e+000
      outer loop
         vertex 1.885262e-001 5.811215e-001 5.000000e-002
         vertex 2.193404e-001 5.503073e-001 3.540000e+000
         vertex 2.193404e-001 5.503073e-001 5.000000e-002
      endloop
   endfacet
   facet normal 8.020838e-001 5.972114e-001 0.000000e+000
      outer loop
         vertex 2.193404e-001 5.503073e-001 5.000000e-002
         vertex 2.193404e-001 5.503073e-001 3.540000e+000
         vertex 2.443357e-001 5.146104e-001 3.540000e+000
      endloop
   endfacet
   facet normal 8.355240e-001 5.494540e-001 0.000000e+000
      outer loop
         vertex 2.193404e-001 5.503073e-001 5.000000e-002
         vertex 2.443357e-001 5.146104e-001 3.540000e+000
         vertex 2.443357e-001 5.146104e-001 5.000000e-002
      endloop
   endfacet
   facet normal 8.936031e-001 4.488580e-001 0.000000e+000
      outer loop
         vertex 2.443357e-001 5.146104e-001 5.000000e-002
         vertex 2.443357e-001 5.146104e-001 3.540000e+000
         vertex 2.627525e-001 4.751154e-001 3.540000e+000
      endloop
   endfacet
   facet normal 9.182422e-001 3.960194e-001 0.000000e+000
      outer loop
         vertex 2.443357e-001 5.146104e-001 5.000000e-002
         vertex 2.627525e-001 4.751154e-001 3.540000e+000
         vertex 2.627525e-001 4.751154e-001 5.000000e-002
      endloop
   endfacet
   facet normal 9.579706e-001 2.868663e-001 0.000000e+000
      outer loop
         vertex 2.627525e-001 4.751154e-001 5.000000e-002
         vertex 2.627525e-001 4.751154e-001 3.540000e+000
         vertex 2.740313e-001 4.330224e-001 3.540000e+000
      endloop
   endfacet
   facet normal 9.730600e-001 2.305519e-001 0.000000e+000
      outer loop
         vertex 2.627525e-001 4.751154e-001 5.000000e-002
         vertex 2.740313e-001 4.330224e-001 3.540000e+000
         vertex 2.740313e-001 4.330224e-001 5.000000e-002
      endloop
   endfacet
   facet normal 9.932307e-001 1.161583e-001 0.000000e+000
      outer loop
         vertex 2.740313e-001 4.330224e-001 5.000000e-002
         vertex 2.740313e-001 4.330224e-001 3.540000e+000
         vertex 2.778293e-001 3.896104e-001 3.540000e+000
      endloop
   endfacet
endsolid