<?xml version="1.0" encoding="utf-8"?>
<!-- Generator: Adobe Illustrator 15.1.0, SVG Export Plug-In  -->
<!DOCTYPE svg PUBLIC "-//W3C//DTD SVG 1.1//EN" "http://www.w3.org/Graphics/SVG/1.1/DTD/svg11.dtd" [
	<!ENTITY ns_flows "http://ns.adobe.com/Flows/1.0/">
]>
<svg version="1.1"
	 xmlns="http://www.w3.org/2000/svg" xmlns:xlink="http://www.w3.org/1999/xlink" xmlns:a="http://ns.adobe.com/AdobeSVGViewerExtensions/3.0/"
	 x="0px" y="0px" width="130px" height="80px" viewBox="-21.433 -9.882 130 80" enable-background="new -21.433 -9.882 130 80"
	 xml:space="preserve">
<defs>
</defs>
<g>
	<path fill="#CCCCCC" d="M56.833,0.32c-0.31-0.455-0.368-0.421-0.13,0.075l3.538,7.346c0.238,0.496,0.604,1.197,0.813,1.559
		c0.208,0.362,0.604,1.047,0.879,1.524l1.153,1.996c0.274,0.477,0.499,0.867,0.499,0.867c-0.001,0,0.004,0.063,0.012,0.139
		c0.008,0.076-0.106,0.208-0.107,0.207c0,0-0.39,0.224-0.866,0.499l-1.99,1.149c-0.477,0.275-1.091,0.11-1.366-0.366l-0.014-0.022
		c-0.275-0.476-0.89-0.641-1.366-0.366L12.271,41.265c-0.477,0.275-0.642,0.89-0.366,1.366l0.013,0.021
		c0.275,0.477,0.11,1.091-0.366,1.366L9.56,45.168c-0.477,0.275-0.866,0.5-0.866,0.501c0.001,0-0.062,0.007-0.137,0.015
		c-0.076,0.008-0.209-0.106-0.21-0.106s-0.226-0.389-0.501-0.865l-1.153-1.996c-0.275-0.477-0.671-1.162-0.88-1.524
		s-0.634-1.029-0.943-1.484l-4.593-6.736c-0.31-0.455-0.368-0.421-0.13,0.075l3.538,7.346c0.238,0.496,0.604,1.197,0.813,1.558
		C4.706,42.314,5.102,43,5.377,43.477l1.278,2.213c0.275,0.477,0.585,1.014,0.69,1.195c0.104,0.181,0.341,0.438,0.526,0.572
		c0.186,0.134,0.849-0.051,1.029-0.155s0.719-0.415,1.195-0.689l2.213-1.278c0.477-0.275,1.091-0.11,1.366,0.366l5.581,9.666
		c0.275,0.477,0.89,0.641,1.366,0.366L66.24,29.396c0.477-0.275,0.642-0.89,0.366-1.366l-5.581-9.667
		c-0.275-0.477-0.11-1.091,0.366-1.366l2.214-1.278c0.477-0.275,1.014-0.585,1.195-0.689c0.181-0.104,0.438-0.341,0.572-0.527
		c0.134-0.186-0.052-0.848-0.156-1.029c-0.104-0.181-0.414-0.719-0.688-1.195l-1.279-2.215c-0.274-0.476-0.671-1.162-0.88-1.523
		c-0.208-0.362-0.633-1.029-0.942-1.484L56.833,0.32z"/>
</g>
<linearGradient id="SVGID_1_" gradientUnits="userSpaceOnUse" x1="62.5107" y1="29.4453" x2="54.6636" y2="15.8536" gradientTransform="matrix(1 0 0 1 0.9312 1.3955)">
	<stop  offset="0" style="stop-color:#333333"/>
	<stop  offset="0.1391" style="stop-color:#363636"/>
	<stop  offset="0.2227" style="stop-color:#3E3E3E"/>
	<stop  offset="0.2917" style="stop-color:#4C4C4C"/>
	<stop  offset="0.3528" style="stop-color:#616161"/>
	<stop  offset="0.4085" style="stop-color:#7B7B7B"/>
	<stop  offset="0.4604" style="stop-color:#9B9B9B"/>
	<stop  offset="0.5085" style="stop-color:#C1C1C1"/>
	<stop  offset="0.5212" style="stop-color:#CCCCCC"/>
	<stop  offset="0.5456" style="stop-color:#A9A9A9"/>
	<stop  offset="0.573" style="stop-color:#8A8A8A"/>
	<stop  offset="0.6042" style="stop-color:#6E6E6E"/>
	<stop  offset="0.6393" style="stop-color:#585858"/>
	<stop  offset="0.6803" style="stop-color:#474747"/>
	<stop  offset="0.7311" style="stop-color:#3C3C3C"/>
	<stop  offset="0.8023" style="stop-color:#353535"/>
	<stop  offset="1" style="stop-color:#333333"/>
</linearGradient>
<polygon fill="url(#SVGID_1_)" stroke="#1A1A1A" stroke-linejoin="round" stroke-miterlimit="10" points="37.3,33.657 34.77,29.272 
	33.937,29.753 34.668,31.527 33.498,30.006 32.621,30.513 33.354,32.287 32.184,30.766 30.823,31.551 38.671,45.142 40.029,44.357 
	39.297,42.583 40.468,44.104 41.345,43.598 40.613,41.824 41.782,43.345 42.616,42.864 40.086,38.479 85.682,12.154 82.896,7.332 
	"/>
<linearGradient id="SVGID_2_" gradientUnits="userSpaceOnUse" x1="45.2549" y1="44.9014" x2="33.6108" y2="24.7333">
	<stop  offset="0" style="stop-color:#333333"/>
	<stop  offset="0.1116" style="stop-color:#363636"/>
	<stop  offset="0.1787" style="stop-color:#3E3E3E"/>
	<stop  offset="0.2341" style="stop-color:#4C4C4C"/>
	<stop  offset="0.283" style="stop-color:#616161"/>
	<stop  offset="0.3278" style="stop-color:#7B7B7B"/>
	<stop  offset="0.3694" style="stop-color:#9B9B9B"/>
	<stop  offset="0.408" style="stop-color:#C1C1C1"/>
	<stop  offset="0.4182" style="stop-color:#CCCCCC"/>
	<stop  offset="0.5419" style="stop-color:#9F9F9F"/>
	<stop  offset="0.6893" style="stop-color:#717171"/>
	<stop  offset="0.8202" style="stop-color:#4F4F4F"/>
	<stop  offset="0.9282" style="stop-color:#3A3A3A"/>
	<stop  offset="1" style="stop-color:#333333"/>
</linearGradient>
<path fill="url(#SVGID_2_)" stroke="#1A1A1A" stroke-miterlimit="10" d="M10.786,60.125l1.772,3.069
	c0.139,0.241,0.45,0.324,0.691,0.185l62.695-36.197c0.24-0.139,0.324-0.451,0.185-0.691l-2.277-3.946
	c-0.14-0.24-0.057-0.552,0.185-0.691l0.438-0.253c0.241-0.139,0.324-0.45,0.186-0.691l-0.507-0.877
	c-0.139-0.241-0.45-0.325-0.691-0.186l-8.111,4.683c-0.24,0.14-0.323,0.451-0.185,0.692l1.772,3.069
	c0.139,0.241,0.055,0.553-0.186,0.691L20.28,55.813c-0.24,0.139-0.553,0.056-0.691-0.185l-7.847-13.591
	c-0.139-0.241-0.056-0.553,0.186-0.691l46.474-26.832c0.24-0.139,0.552-0.056,0.69,0.186l2.278,3.946
	c0.14,0.241,0.45,0.324,0.691,0.185l8.111-4.683c0.241-0.139,0.323-0.45,0.185-0.691l-0.506-0.877
	c-0.14-0.241-0.451-0.325-0.691-0.186l-0.438,0.253c-0.241,0.14-0.552,0.056-0.691-0.185l-2.278-3.946
	c-0.14-0.241-0.451-0.324-0.691-0.186l-0.439,0.253c-0.24,0.139-0.552,0.056-0.691-0.185l-0.253-0.438
	c-0.139-0.241-0.45-0.324-0.69-0.186l-3.509,2.025c-0.24,0.139-0.323,0.45-0.185,0.691l0.253,0.438
	c0.14,0.241,0.056,0.552-0.186,0.691L8.065,41.236c-0.241,0.139-0.553,0.056-0.692-0.185L7.12,40.613
	c-0.14-0.241-0.45-0.325-0.691-0.186l-3.507,2.025c-0.241,0.139-0.324,0.451-0.187,0.692l0.254,0.438
	c0.139,0.241,0.056,0.552-0.186,0.691l-0.438,0.253c-0.24,0.139-0.324,0.451-0.185,0.691l1.771,3.069L10.786,60.125z"/>
</svg>
